<?xml version="1.0" encoding="UTF-8"?>
<svg width="111px" height="84px" viewBox="0 0 111 84" version="1.1" xmlns="http://www.w3.org/2000/svg" xmlns:xlink="http://www.w3.org/1999/xlink">
    <title>编组 21@4x</title>
    <defs>
        <filter x="-13.4%" y="-25.1%" width="130.1%" height="150.2%" filterUnits="objectBoundingBox" id="filter-1">
            <feOffset dx="0" dy="2" in="SourceAlpha" result="shadowOffsetOuter1"></feOffset>
            <feGaussianBlur stdDeviation="2" in="shadowOffsetOuter1" result="shadowBlurOuter1"></feGaussianBlur>
            <feColorMatrix values="0 0 0 0 0.235294118   0 0 0 0 0.431372549   0 0 0 0 0.941176471  0 0 0 0.54 0" type="matrix" in="shadowBlurOuter1" result="shadowMatrixOuter1"></feColorMatrix>
            <feMerge>
                <feMergeNode in="shadowMatrixOuter1"></feMergeNode>
                <feMergeNode in="SourceGraphic"></feMergeNode>
            </feMerge>
        </filter>
        <linearGradient x1="50%" y1="0%" x2="50%" y2="100%" id="linearGradient-2">
            <stop stop-color="#FFFFFF" stop-opacity="0.589051573" offset="0%"></stop>
            <stop stop-color="#FFFFFF" stop-opacity="0.12941177" offset="100%"></stop>
        </linearGradient>
        <path d="M52.5339286,13.2 L44.2857143,13.2 L44.2857143,2.2 C44.2857143,0.99 43.2892857,0 42.0714286,0 L2.21428571,0 C0.996428571,0 0,0.99 0,2.2 L0,33 C0,34.21 0.996428571,35.2 2.21428571,35.2 L4.42857143,35.2 C4.42857143,40.04 8.41428571,44 13.2857143,44 C18.1571429,44 22.1428571,40.04 22.1428571,35.2 L39.8571429,35.2 C39.8571429,40.04 43.8428571,44 48.7142857,44 C53.5857143,44 57.5714286,40.04 57.5714286,35.2 L59.7857143,35.2 C61.0035714,35.2 62,34.21 62,33 L62,26.785 C62,26.565 61.9446429,26.345 61.8339286,26.18 L53.475,13.695 C53.2535714,13.365 52.9214286,13.2 52.5339286,13.2 Z M14.1714286,39.49 C11.0714286,40.095 8.35892857,37.4 8.96785714,34.32 C9.3,32.615 10.6839286,31.185 12.4553571,30.855 C15.5553571,30.25 18.2678571,32.945 17.6589286,36.025 C17.2714286,37.785 15.8875,39.16 14.1714286,39.49 L14.1714286,39.49 Z M49.6,39.49 C46.5,40.095 43.7875,37.4 44.3964286,34.32 C44.7285714,32.615 46.1125,31.185 47.8839286,30.855 C50.9839286,30.25 53.6964286,32.945 53.0875,36.025 C52.7,37.785 51.3160714,39.16 49.6,39.49 Z M44.2857143,26.4 L44.2857143,17.6 L50.8732143,17.6 C51.2607143,17.6 51.5928571,17.765 51.7589286,18.095 L57.5714286,26.4 L44.2857143,26.4 Z" id="path-3"></path>
        <filter x="-3.2%" y="-4.5%" width="106.5%" height="109.1%" filterUnits="objectBoundingBox" id="filter-4">
            <feGaussianBlur stdDeviation="2" in="SourceAlpha" result="shadowBlurInner1"></feGaussianBlur>
            <feOffset dx="0" dy="0" in="shadowBlurInner1" result="shadowOffsetInner1"></feOffset>
            <feComposite in="shadowOffsetInner1" in2="SourceAlpha" operator="arithmetic" k2="-1" k3="1" result="shadowInnerInner1"></feComposite>
            <feColorMatrix values="0 0 0 0 1   0 0 0 0 1   0 0 0 0 1  0 0 0 0.29803923 0" type="matrix" in="shadowInnerInner1"></feColorMatrix>
        </filter>
        <filter x="-5.9%" y="-6.7%" width="111.9%" height="113.4%" filterUnits="objectBoundingBox" id="filter-5">
            <feOffset dx="0" dy="2" in="SourceAlpha" result="shadowOffsetOuter1"></feOffset>
            <feColorMatrix values="0 0 0 0 0.235294118   0 0 0 0 0.431372549   0 0 0 0 0.941176471  0 0 0 0.5 0" type="matrix" in="shadowOffsetOuter1" result="shadowMatrixOuter1"></feColorMatrix>
            <feMerge>
                <feMergeNode in="shadowMatrixOuter1"></feMergeNode>
                <feMergeNode in="SourceGraphic"></feMergeNode>
            </feMerge>
        </filter>
        <linearGradient x1="50%" y1="0%" x2="50%" y2="100%" id="linearGradient-6">
            <stop stop-color="#3C6EF0" offset="0%"></stop>
            <stop stop-color="#6E9AFF" offset="100%"></stop>
        </linearGradient>
    </defs>
    <g id="页面-1" stroke="none" stroke-width="1" fill="none" fill-rule="evenodd">
        <g id="解决方案备份" transform="translate(-586.000000, -498.000000)">
            <g id="编组-21" filter="url(#filter-1)" transform="translate(595.000000, 510.000000)">
                <g id="编组-7" transform="translate(0.000000, 1.801294)">
                    <g id="形状" transform="translate(31.000000, 22.000000) scale(-1, 1) translate(-31.000000, -22.000000) ">
                        <use fill-opacity="0.2" fill="#7DCCFF" fill-rule="evenodd" xlink:href="#path-3"></use>
                        <use fill="black" fill-opacity="1" filter="url(#filter-4)" xlink:href="#path-3"></use>
                        <path stroke="url(#linearGradient-2)" stroke-width="0.568216399" d="M42.0714286,0.284108199 C42.6024371,0.284108199 43.0850749,0.500102337 43.4350242,0.847793924 C43.7454951,1.15626178 43.9516874,1.5686235 43.9936749,2.02634326 L44.0016061,2.2 L44.0016061,13.4841082 L52.5339286,13.4841082 C52.7823002,13.4841082 53.0010635,13.5736833 53.1628817,13.7548407 L53.2389188,13.8530605 L61.5980087,26.3383012 L61.7158918,33 C61.7158918,33.5266627 61.4985897,34.0051797 61.1493099,34.3522061 C60.8382439,34.6612653 60.4223375,34.8662672 59.9608099,34.9080077 L59.7857143,34.9158918 L57.2825963,34.9158918 C57.3641095,37.3691617 56.3852919,39.6079885 54.7693992,41.2134561 C53.215432,42.7573977 51.0720799,43.7158918 48.7142857,43.7158918 C46.3564915,43.7158918 44.2131394,42.7573977 42.6591722,41.2134561 C41.1135358,39.6777915 40.1507808,37.562645 40.1413214,35.234633 L40.1459751,34.9158918 L21.8540249,34.9158918 C21.9355381,37.3691617 20.9567204,39.6079885 19.3408278,41.2134561 C17.7868606,42.7573977 15.6435085,43.7158918 13.2857143,43.7158918 C10.9279201,43.7158918 8.78456797,42.7573977 7.23060078,41.2134561 C5.68496433,39.6777915 4.72220936,37.562645 4.71274998,35.234633 L4.71740371,34.9158918 L2.21428571,34.9158918 C1.68327722,34.9158918 1.20063939,34.6998977 0.850690069,34.3522061 C0.540219175,34.0437382 0.334026912,33.6313765 0.292039383,33.1736567 L0.284108199,33 L0.284108199,2.2 C0.284108199,1.67333727 0.501410313,1.19482026 0.850690069,0.847793924 C1.16175614,0.538734735 1.5776625,0.333732791 2.03919005,0.291992349 L2.21428571,0.284108199 L42.0714286,0.284108199 Z M16.6482347,31.8565811 C15.5956405,30.8107778 14.0499687,30.2543254 12.4009369,30.5761525 C11.4690867,30.7497366 10.6356755,31.21047 9.98958763,31.8523896 C9.33099578,32.5067324 8.86754808,33.3490826 8.68899103,34.2656754 C8.36497401,35.9045687 8.92502994,37.4416948 9.978551,38.4884189 C11.0311452,39.5342222 12.576817,40.0906746 14.2258488,39.7688475 C15.1390284,39.5932444 15.9649289,39.1398163 16.6136365,38.4952939 C17.2602687,37.8528335 17.7306405,37.0205962 17.9363913,36.0860891 C18.2618117,34.4404313 17.7017558,32.9033052 16.6482347,31.8565811 Z M52.0768061,31.8565811 C51.0242119,30.8107778 49.4785401,30.2543254 47.8295083,30.5761525 C46.8976581,30.7497366 46.064247,31.21047 45.4181591,31.8523896 C44.7595672,32.5067324 44.2961195,33.3490826 44.1175625,34.2656754 C43.7935454,35.9045687 44.3536014,37.4416948 45.4071224,38.4884189 C46.4597166,39.5342222 48.0053885,40.0906746 49.6544202,39.7688475 C50.5675999,39.5932444 51.3935003,39.1398163 52.0422079,38.4952939 C52.6888401,37.8528335 53.1592119,37.0205962 53.3649628,36.0860891 C53.6903831,34.4404313 53.1303272,32.9033052 52.0768061,31.8565811 Z M50.8732143,17.3158918 L44.0016061,17.3158918 L44.0016061,26.6841082 L58.1170487,26.6841082 L52.0026889,17.9478057 L51.9323015,17.8308898 C51.830928,17.6828895 51.7001358,17.5664318 51.5480307,17.4814246 C51.3537273,17.3728342 51.1230605,17.3158918 50.8732143,17.3158918 L50.8732143,17.3158918 Z" stroke-linejoin="square"></path>
                    </g>
                </g>
                <g id="仓库" filter="url(#filter-5)" transform="translate(22.326431, 0.000000)" fill="url(#linearGradient-6)" fill-rule="nonzero">
                    <path d="M34.2249809,0.165766796 L66.89855,21.7623553 C67.3592843,22.0668917 67.4859078,22.687266 67.1813715,23.1480003 C66.9962339,23.4280957 66.6828902,23.5965885 66.3471382,23.5965885 L62.4665103,23.5965885 L62.4665103,23.5965885 L62.4665103,58.8012944 C62.4665103,59.3535792 62.0187951,59.8012944 61.4665103,59.8012944 L52.0876868,59.8012944 C51.535402,59.8012944 51.0876868,59.3535792 51.0876868,58.8012944 L51.0876868,32.737765 L51.0876868,32.737765 L16.2594515,32.737765 L16.2594515,58.8012944 C16.2594515,59.3535792 15.8117362,59.8012944 15.2594515,59.8012944 L5.88062795,59.8012944 C5.3283432,59.8012944 4.88062795,59.3535792 4.88062795,58.8012944 L4.88062795,23.5965885 L4.88062795,23.5965885 L1,23.5965885 C0.44771525,23.5965885 -2.15383267e-13,23.1488733 -2.15383267e-13,22.5965885 C-2.15383267e-13,22.2608366 0.168492801,21.9474929 0.44858821,21.7623553 L33.1221573,0.165766796 C33.456543,-0.0552555988 33.8905952,-0.0552555988 34.2249809,0.165766796 Z M23.1629809,38.0742356 L44.1841574,38.0742356 L44.1841574,45.1401179 L23.1629809,45.1401179 L23.1629809,38.0742356 L23.1629809,38.0742356 Z M23.1629809,52.7283532 L44.1841574,52.7283532 L44.1841574,59.8012944 L23.1629809,59.8012944 L23.1629809,52.7283532 L23.1629809,52.7283532 Z" id="形状"></path>
                </g>
            </g>
        </g>
    </g>
</svg>