<?xml version="1.0" encoding="UTF-8"?>
<svg width="111px" height="80px" viewBox="0 0 111 80" version="1.1" xmlns="http://www.w3.org/2000/svg" xmlns:xlink="http://www.w3.org/1999/xlink">
    <title>编组 23@4x</title>
    <defs>
        <filter x="-13.3%" y="-20.6%" width="130.0%" height="146.4%" filterUnits="objectBoundingBox" id="filter-1">
            <feOffset dx="0" dy="2" in="SourceAlpha" result="shadowOffsetOuter1"></feOffset>
            <feGaussianBlur stdDeviation="2" in="shadowOffsetOuter1" result="shadowBlurOuter1"></feGaussianBlur>
            <feColorMatrix values="0 0 0 0 0.235294118   0 0 0 0 0.431372549   0 0 0 0 0.941176471  0 0 0 0.54 0" type="matrix" in="shadowBlurOuter1" result="shadowMatrixOuter1"></feColorMatrix>
            <feMerge>
                <feMergeNode in="shadowMatrixOuter1"></feMergeNode>
                <feMergeNode in="SourceGraphic"></feMergeNode>
            </feMerge>
        </filter>
        <linearGradient x1="50%" y1="0%" x2="50%" y2="100%" id="linearGradient-2">
            <stop stop-color="#FFFFFF" stop-opacity="0.589051573" offset="0%"></stop>
            <stop stop-color="#FFFFFF" stop-opacity="0.12941177" offset="100%"></stop>
        </linearGradient>
        <path d="M52.5339286,13.2 L44.2857143,13.2 L44.2857143,2.2 C44.2857143,0.99 43.2892857,0 42.0714286,0 L2.21428571,0 C0.996428571,0 0,0.99 0,2.2 L0,33 C0,34.21 0.996428571,35.2 2.21428571,35.2 L4.42857143,35.2 C4.42857143,40.04 8.41428571,44 13.2857143,44 C18.1571429,44 22.1428571,40.04 22.1428571,35.2 L39.8571429,35.2 C39.8571429,40.04 43.8428571,44 48.7142857,44 C53.5857143,44 57.5714286,40.04 57.5714286,35.2 L59.7857143,35.2 C61.0035714,35.2 62,34.21 62,33 L62,26.785 C62,26.565 61.9446429,26.345 61.8339286,26.18 L53.475,13.695 C53.2535714,13.365 52.9214286,13.2 52.5339286,13.2 Z M14.1714286,39.49 C11.0714286,40.095 8.35892857,37.4 8.96785714,34.32 C9.3,32.615 10.6839286,31.185 12.4553571,30.855 C15.5553571,30.25 18.2678571,32.945 17.6589286,36.025 C17.2714286,37.785 15.8875,39.16 14.1714286,39.49 L14.1714286,39.49 Z M49.6,39.49 C46.5,40.095 43.7875,37.4 44.3964286,34.32 C44.7285714,32.615 46.1125,31.185 47.8839286,30.855 C50.9839286,30.25 53.6964286,32.945 53.0875,36.025 C52.7,37.785 51.3160714,39.16 49.6,39.49 Z M44.2857143,26.4 L44.2857143,17.6 L50.8732143,17.6 C51.2607143,17.6 51.5928571,17.765 51.7589286,18.095 L57.5714286,26.4 L44.2857143,26.4 Z" id="path-3"></path>
        <filter x="-3.2%" y="-4.5%" width="106.5%" height="109.1%" filterUnits="objectBoundingBox" id="filter-4">
            <feGaussianBlur stdDeviation="2" in="SourceAlpha" result="shadowBlurInner1"></feGaussianBlur>
            <feOffset dx="0" dy="0" in="shadowBlurInner1" result="shadowOffsetInner1"></feOffset>
            <feComposite in="shadowOffsetInner1" in2="SourceAlpha" operator="arithmetic" k2="-1" k3="1" result="shadowInnerInner1"></feComposite>
            <feColorMatrix values="0 0 0 0 1   0 0 0 0 1   0 0 0 0 1  0 0 0 0.29803923 0" type="matrix" in="shadowInnerInner1"></feColorMatrix>
        </filter>
        <filter x="-6.1%" y="-7.4%" width="112.1%" height="114.8%" filterUnits="objectBoundingBox" id="filter-5">
            <feOffset dx="0" dy="2" in="SourceAlpha" result="shadowOffsetOuter1"></feOffset>
            <feColorMatrix values="0 0 0 0 0.235294118   0 0 0 0 0.431372549   0 0 0 0 0.941176471  0 0 0 0.5 0" type="matrix" in="shadowOffsetOuter1" result="shadowMatrixOuter1"></feColorMatrix>
            <feMerge>
                <feMergeNode in="shadowMatrixOuter1"></feMergeNode>
                <feMergeNode in="SourceGraphic"></feMergeNode>
            </feMerge>
        </filter>
        <linearGradient x1="50%" y1="0%" x2="50%" y2="100%" id="linearGradient-6">
            <stop stop-color="#3C6EF0" offset="0%"></stop>
            <stop stop-color="#6E9AFF" offset="100%"></stop>
        </linearGradient>
        <linearGradient x1="50%" y1="0%" x2="50%" y2="100%" id="linearGradient-7">
            <stop stop-color="#3C6EF0" offset="0%"></stop>
            <stop stop-color="#6E9AFF" offset="100%"></stop>
        </linearGradient>
        <linearGradient x1="50%" y1="0%" x2="50%" y2="100%" id="linearGradient-8">
            <stop stop-color="#3C6EF0" offset="0%"></stop>
            <stop stop-color="#6E9AFF" offset="100%"></stop>
        </linearGradient>
    </defs>
    <g id="页面-1" stroke="none" stroke-width="1" fill="none" fill-rule="evenodd">
        <g id="解决方案备份" transform="translate(-1011.000000, -502.000000)">
            <g id="编组-22" transform="translate(1020.000000, 511.000000)" filter="url(#filter-1)">
                <g id="形状" transform="translate(31.000000, 22.000000) scale(-1, 1) translate(-31.000000, -22.000000) ">
                    <use fill-opacity="0.2" fill="#7DCCFF" fill-rule="evenodd" xlink:href="#path-3"></use>
                    <use fill="black" fill-opacity="1" filter="url(#filter-4)" xlink:href="#path-3"></use>
                    <path stroke="url(#linearGradient-2)" stroke-width="0.568216399" d="M42.0714286,0.284108199 C42.6024371,0.284108199 43.0850749,0.500102337 43.4350242,0.847793924 C43.7454951,1.15626178 43.9516874,1.5686235 43.9936749,2.02634326 L44.0016061,2.2 L44.0016061,13.4841082 L52.5339286,13.4841082 C52.7823002,13.4841082 53.0010635,13.5736833 53.1628817,13.7548407 L53.2389188,13.8530605 L61.5980087,26.3383012 L61.7158918,33 C61.7158918,33.5266627 61.4985897,34.0051797 61.1493099,34.3522061 C60.8382439,34.6612653 60.4223375,34.8662672 59.9608099,34.9080077 L59.7857143,34.9158918 L57.2825963,34.9158918 C57.3641095,37.3691617 56.3852919,39.6079885 54.7693992,41.2134561 C53.215432,42.7573977 51.0720799,43.7158918 48.7142857,43.7158918 C46.3564915,43.7158918 44.2131394,42.7573977 42.6591722,41.2134561 C41.1135358,39.6777915 40.1507808,37.562645 40.1413214,35.234633 L40.1459751,34.9158918 L21.8540249,34.9158918 C21.9355381,37.3691617 20.9567204,39.6079885 19.3408278,41.2134561 C17.7868606,42.7573977 15.6435085,43.7158918 13.2857143,43.7158918 C10.9279201,43.7158918 8.78456797,42.7573977 7.23060078,41.2134561 C5.68496433,39.6777915 4.72220936,37.562645 4.71274998,35.234633 L4.71740371,34.9158918 L2.21428571,34.9158918 C1.68327722,34.9158918 1.20063939,34.6998977 0.850690069,34.3522061 C0.540219175,34.0437382 0.334026912,33.6313765 0.292039383,33.1736567 L0.284108199,33 L0.284108199,2.2 C0.284108199,1.67333727 0.501410313,1.19482026 0.850690069,0.847793924 C1.16175614,0.538734735 1.5776625,0.333732791 2.03919005,0.291992349 L2.21428571,0.284108199 L42.0714286,0.284108199 Z M16.6482347,31.8565811 C15.5956405,30.8107778 14.0499687,30.2543254 12.4009369,30.5761525 C11.4690867,30.7497366 10.6356755,31.21047 9.98958763,31.8523896 C9.33099578,32.5067324 8.86754808,33.3490826 8.68899103,34.2656754 C8.36497401,35.9045687 8.92502994,37.4416948 9.978551,38.4884189 C11.0311452,39.5342222 12.576817,40.0906746 14.2258488,39.7688475 C15.1390284,39.5932444 15.9649289,39.1398163 16.6136365,38.4952939 C17.2602687,37.8528335 17.7306405,37.0205962 17.9363913,36.0860891 C18.2618117,34.4404313 17.7017558,32.9033052 16.6482347,31.8565811 Z M52.0768061,31.8565811 C51.0242119,30.8107778 49.4785401,30.2543254 47.8295083,30.5761525 C46.8976581,30.7497366 46.064247,31.21047 45.4181591,31.8523896 C44.7595672,32.5067324 44.2961195,33.3490826 44.1175625,34.2656754 C43.7935454,35.9045687 44.3536014,37.4416948 45.4071224,38.4884189 C46.4597166,39.5342222 48.0053885,40.0906746 49.6544202,39.7688475 C50.5675999,39.5932444 51.3935003,39.1398163 52.0422079,38.4952939 C52.6888401,37.8528335 53.1592119,37.0205962 53.3649628,36.0860891 C53.6903831,34.4404313 53.1303272,32.9033052 52.0768061,31.8565811 Z M50.8732143,17.3158918 L44.0016061,17.3158918 L44.0016061,26.6841082 L58.1170487,26.6841082 L52.0026889,17.9478057 L51.9323015,17.8308898 C51.830928,17.6828895 51.7001358,17.5664318 51.5480307,17.4814246 C51.3537273,17.3728342 51.1230605,17.3158918 50.8732143,17.3158918 L50.8732143,17.3158918 Z" stroke-linejoin="square"></path>
                </g>
                <g id="服务02" filter="url(#filter-5)" transform="translate(24.000000, 4.198706)" fill-rule="nonzero">
                    <path d="M16.6444634,11.5288146 L28.207714,2.40181963 C31.3835364,-0.0596776256 35.5772505,-0.685625381 39.2253746,0.78619772 L57.6125717,8.08610195 C58.8258987,8.57670965 60.1125139,8.78817849 61.3339841,8.78817849 L64.3795163,8.78817849 C65.2589748,8.78817849 66,9.49025502 66,10.4038004 L66,33.8599237 C66,34.7734691 65.2589748,35.5432157 64.3795163,35.5432157 L60.3893805,35.5432157 C59.8519336,35.5432157 59.2411986,35.7546845 58.8340419,36.1014934 L57.9545834,36.8712399 C57.751005,37.0827088 57.4171365,37.0150388 57.2135582,36.8035699 L35.7808288,9.70172386 C35.243382,8.99964732 34.2906353,8.85584851 33.5496101,9.27878619 L23.7452764,14.9715273 C21.7827811,16.0965415 19.4212722,16.2318815 17.3203435,15.3267949 C16.2373067,14.8361872 15.6998598,13.4997042 16.1721616,12.3070199 C16.1721616,12.0194223 16.37574,11.7402834 16.6444634,11.5288146 L16.6444634,11.5288146 Z" id="路径" fill="url(#linearGradient-6)"></path>
                    <path d="M1.95058813,35.8980249 L5.38849971,35.8980249 L7.81860743,32.7693509 C9.98050927,29.992117 13.889813,29.6406769 16.523107,31.9121799 C17.4658912,32.7693509 18.2136167,33.9093883 18.5468422,35.186573 C20.6355969,35.7523059 22.2610871,37.4666478 22.8625184,39.6695772 C24.3498418,40.1667363 25.6989986,41.1610547 26.4385966,42.6611039 C27.7227338,42.8753966 28.933724,43.5182748 29.8765082,44.5125931 C31.8352238,46.7155225 32.2415963,49.9899156 30.7542729,52.6300022 L30.41292,53.2728804 L30.41292,53.3414541 C32.0302826,54.4814915 34.1921845,54.1214797 35.338155,52.4157095 C35.8745667,51.5585385 36.077753,50.5642202 35.8745667,49.5699018 L35.8745667,49.4927565 L35.9395863,49.4927565 L36.2077922,49.7756229 C37.4187823,51.0528076 39.3774979,51.2671004 40.7998018,50.272782 C41.9457723,49.4156111 42.4903115,47.9241336 42.2139782,46.5012298 L42.2139782,46.4326561 L42.2789978,46.4326561 L42.5472036,46.7155225 C43.7581938,47.9927073 45.6518897,48.207 47.1392132,47.2126817 C48.2851837,46.3555107 48.8947425,44.8640332 48.6265366,43.4411294 L48.6265366,43.3725558 L48.6915562,43.3725558 L48.9597621,43.6554222 C50.1057326,44.8640332 51.9262816,45.078326 53.2754384,44.221155 C54.9659481,43.1496913 55.5023598,40.8781882 54.4864285,39.0952726 C54.3482618,38.8809799 54.2182226,38.6666872 54.080056,38.5295398 L51.9181541,35.7523059 L34.4441354,13.3372851 C34.2409492,13.1229923 33.9727433,13.0544187 33.7045374,13.191566 L25.3332634,18.1031557 C22.6349498,19.6717785 19.4652441,19.954645 16.5637442,18.8146076 C14.9463816,18.2488747 13.727264,16.8945446 13.1258326,15.2573481 C12.6544405,13.5515778 12.8576268,11.7000885 13.7353914,10.2086111 C13.9385777,9.78002558 13.800411,9.28286642 13.402166,9.06857368 C13.2639993,9 13.1339601,9 12.9957934,9 L1.61736266,9 C0.739598,9 0,9.7114519 0,10.6371965 L0,34.3379738 C0.333225473,35.186573 1.07282347,35.8980249 1.95058813,35.8980249 L1.95058813,35.8980249 Z" id="路径" fill="url(#linearGradient-7)"></path>
                    <path d="M13.8770962,34.4024679 C12.5428487,33.640064 10.9433593,33.9835646 10.002956,35.2402743 L7.66400411,38.2312434 C6.65929969,39.5549776 6.79593949,41.4986886 8.06588587,42.5459467 L8.13018696,42.5459467 L8.46776764,42.8224229 C9.40013333,43.5848267 10.7343808,43.6602293 11.7390852,43.098899 C11.8033863,43.0318745 11.875725,43.098899 11.9400261,43.1659235 L11.9400261,43.3083506 C11.7390852,44.4226332 12.140967,45.6039403 13.0090316,46.2993197 L13.2742736,46.5087713 C14.2066392,47.2711752 15.4122845,47.3465778 16.48129,46.86065 C16.5455911,46.7936255 16.6822309,46.86065 16.6822309,46.9276746 L16.6822309,46.9946991 C16.5455911,48.0419572 17.0198116,49.0808372 17.8155375,49.7762165 L18.0164784,49.9186436 C18.9488441,50.6810475 20.1544894,50.8234746 21.2234949,50.1951198 C21.287796,50.1280953 21.4244358,50.1951198 21.4244358,50.2621443 L21.4244358,50.3291688 C21.5610756,51.0915727 21.9549197,51.7869521 22.5577423,52.2728798 L22.6943821,52.3399043 C24.0286296,53.3871624 25.9013986,53.1777108 26.8980654,51.7869521 C26.9623665,51.644525 27.0990063,51.5104759 27.1633074,51.4350733 L27.5651891,50.6726695 C28.2966139,49.3489352 28.0956731,47.7487249 27.0347052,46.7098449 C26.1666406,45.8720384 24.8966942,45.6625868 23.7633876,46.1568926 C23.6990865,46.1568926 23.6990865,46.1568926 23.6267478,46.0898681 L23.6267478,46.0228436 C23.6910489,44.3556087 22.4291402,42.8894474 20.8216131,42.7553983 C20.4197313,42.7553983 20.0178496,42.8224229 19.6240054,42.96485 C19.1578226,43.0318745 19.2864248,42.6213493 19.2864248,42.6213493 C19.8892474,41.021139 19.2221237,39.2785015 17.6869353,38.5831221 C16.8831718,38.2312434 15.886505,38.306646 15.1470426,38.7255492 C14.8094619,38.7925738 14.8818006,38.4490731 14.8818006,38.4490731 C15.7418276,37.1085828 15.2756447,35.2318963 13.8770962,34.4024679 L13.8770962,34.4024679 Z" id="路径" fill="url(#linearGradient-8)"></path>
                </g>
            </g>
        </g>
    </g>
</svg>