<?xml version="1.0" encoding="UTF-8"?><svg width="112px" height="91px" viewBox="0 0 112 91" version="1.1" xmlns="http://www.w3.org/2000/svg" xmlns:xlink="http://www.w3.org/1999/xlink"><title>编组 4@4x</title><defs><filter x="-14.1%" y="-26.7%" width="138.8%" height="161.7%" filterUnits="objectBoundingBox" id="filter-1"><feOffset dx="0" dy="2" in="SourceAlpha" result="shadowOffsetOuter1"/><feGaussianBlur stdDeviation="2" in="shadowOffsetOuter1" result="shadowBlurOuter1"/><feColorMatrix values="0 0 0 0 0.235294118   0 0 0 0 0.431372549   0 0 0 0 0.941176471  0 0 0 0.543706294 0" type="matrix" in="shadowBlurOuter1" result="shadowMatrixOuter1"/><feMerge><feMergeNode in="shadowMatrixOuter1"/><feMergeNode in="SourceGraphic"/></feMerge></filter><linearGradient x1="50%" y1="0%" x2="50%" y2="100%" id="linearGradient-2"><stop stop-color="#FFFFFF" stop-opacity="0.589051573" offset="0%"/><stop stop-color="#FFFFFF" stop-opacity="0.12941177" offset="100%"/></linearGradient><path d="M48.6264907,20.1889642 C44.4515337,19.880572 41.1571919,16.3625431 41.1571919,12.070567 C41.1571919,10.9352107 41.3891341,9.8528938 41.8058451,8.87074767 L41.8058446,8.87074731 C33.7350613,1.97873033 21.7338007,2.38618095 14.149698,9.80967767 L14.1496985,9.80967826 C15.4382763,11.298914 16.1447453,13.2034207 16.1388976,15.172171 C16.1349663,19.6703806 12.5182406,23.3160808 8.06021335,23.3121599 L7.90493023,23.3121599 C7.21696638,33.1866337 13.5462338,42.1791214 22.9811742,44.8112223 C23.1580793,44.1099733 23.4332648,43.4264005 23.8028019,42.7821172 L23.8028018,42.7821175 C25.2317081,40.268202 27.8994115,38.7125957 30.7925145,38.7062309 C33.9571482,38.7062309 36.6972329,40.5448022 38.0220471,43.2240827 C46.2383241,38.9164123 50.7041769,29.4858641 48.6245374,20.1889432 L48.6264907,20.1889642 Z M38.857404,47.2273355 C38.6667397,51.5526875 35.1325689,55.0000042 30.7983913,55.0000042 L30.7983908,55.0000042 C27.9054007,54.9951391 25.2369556,53.4410434 23.8066895,50.9280356 L23.8066891,50.9280349 C23.4417974,50.291674 23.1641255,49.6092022 22.9811325,48.8989298 C10.9260172,46.1037519 2.79234963,34.6637783 4.06013801,22.2357288 L4.06013773,22.2357286 C2.8177664,21.5167765 1.78874984,20.4809947 1.07830355,19.2343065 L1.07830339,19.2343062 C-0.361535076,16.7090738 -0.359293819,13.6115843 1.08420053,11.0884091 L1.08420001,11.08841 C2.51466496,8.57585872 5.18318536,7.02245996 8.07590135,7.01841553 C9.05870608,7.01841553 10.000233,7.19716529 10.8710017,7.52323642 L10.8710027,7.5232354 C15.474803,2.71879859 21.8420912,0.00135112321 28.4986251,4.170484e-06 L28.4986255,4.170484e-06 C34.2383402,-0.00335192385 39.7948844,2.01894066 44.1881248,5.71017147 L44.1881245,5.71017172 C45.6121774,4.55594136 47.3904511,3.92682063 49.2240199,3.92856624 C53.5640882,4.0896376 57,7.68623738 57,12.0705424 C57,15.2742881 55.162153,18.0616134 52.4790939,19.3875198 C55.0049048,30.7882415 49.2417349,42.3715802 38.8574098,47.2273109 L38.857404,47.2273355 Z" id="path-3"/><filter x="-4.4%" y="-4.5%" width="108.8%" height="109.1%" filterUnits="objectBoundingBox" id="filter-4"><feGaussianBlur stdDeviation="2.5" in="SourceAlpha" result="shadowBlurInner1"/><feOffset dx="0" dy="0" in="shadowBlurInner1" result="shadowOffsetInner1"/><feComposite in="shadowOffsetInner1" in2="SourceAlpha" operator="arithmetic" k2="-1" k3="1" result="shadowInnerInner1"/><feColorMatrix values="0 0 0 0 1   0 0 0 0 1   0 0 0 0 1  0 0 0 0.29803923 0" type="matrix" in="shadowInnerInner1"/></filter><filter x="-18.2%" y="-21.8%" width="136.4%" height="143.6%" filterUnits="objectBoundingBox" id="filter-5"><feOffset dx="0" dy="2" in="SourceAlpha" result="shadowOffsetOuter1"/><feGaussianBlur stdDeviation="2" in="shadowOffsetOuter1" result="shadowBlurOuter1"/><feColorMatrix values="0 0 0 0 0.235294118   0 0 0 0 0.431372549   0 0 0 0 0.941176471  0 0 0 0.543706294 0" type="matrix" in="shadowBlurOuter1" result="shadowMatrixOuter1"/><feMerge><feMergeNode in="shadowMatrixOuter1"/><feMergeNode in="SourceGraphic"/></feMerge></filter><linearGradient x1="50%" y1="0%" x2="50%" y2="100%" id="linearGradient-6"><stop stop-color="#3C6EF0" offset="0%"/><stop stop-color="#6E9AFF" offset="100%"/></linearGradient><linearGradient x1="50%" y1="0%" x2="50%" y2="100%" id="linearGradient-7"><stop stop-color="#3C6EF0" offset="0%"/><stop stop-color="#6E9AFF" offset="100%"/></linearGradient></defs><g id="页面-2" stroke="none" stroke-width="1" fill="none" fill-rule="evenodd"><g id="A3-解决方案流程图-寄件" transform="translate(-164.000000, -498.000000)"><g id="编组-4" filter="url(#filter-1)" transform="translate(173.000000, 511.000000)"><g id="形状"><use fill-opacity="0.2" fill="#7DCCFF" fill-rule="evenodd" xlink:href="#path-3"/><use fill="black" fill-opacity="1" filter="url(#filter-4)" xlink:href="#path-3"/><path stroke="url(#linearGradient-2)" stroke-width="0.735240601" d="M28.0456968,0.371917468 C33.8011991,0.364703686 38.9778111,2.12729902 43.1734825,5.36487821 L43.5639406,5.6727135 L44.1910208,6.18858586 C45.58351,4.96640383 47.3706205,4.29605303 49.2172109,4.29618992 C51.2854675,4.37476531 53.1379778,5.27117191 54.4739296,6.67000358 C55.812345,8.07141491 56.6323797,9.9770218 56.6323797,12.0705424 C56.6323797,13.5774829 56.2068225,14.98803 55.4685803,16.1828572 C54.708174,17.4135564 53.6162155,18.4155211 52.3162262,19.0579461 C53.3607493,25.0665952 52.5717027,30.7108533 50.2008579,35.55635 C47.8163137,40.4298452 43.8315937,44.4955474 38.7016928,46.8942991 C38.4008247,49.2373878 37.5432812,51.0619509 36.2039644,52.3950436 C34.8689246,53.723879 33.055025,54.5643376 31.0460891,54.6284233 C28.1349955,54.6256892 25.6625111,53.243884 24.27196,50.9919373 C23.7806549,50.1432561 23.512752,49.4888839 23.3371276,48.807212 C17.1894745,47.1786651 12.2604356,43.7320771 8.93025536,39.1148942 C5.59703072,34.4934904 3.8654363,28.6992871 4.3905034,22.6476395 C3.19052544,21.3280919 2.2443037,20.4183534 1.55974504,19.3230621 C0.076828943,16.7264008 0.02545882,13.8929055 1.26082346,11.5316603 C2.08677575,10.0743519 3.06329118,9.10182501 4.21665442,8.43043163 C5.36911349,7.75956458 6.69601888,7.38796546 8.07590135,7.38603583 C8.89619516,7.38603583 9.68635527,7.51652328 10.4275243,7.75752883 C15.5552753,3.15909758 21.6509145,0.491810272 28.0456968,0.371917468 Z M42.0445732,8.59118811 C37.9741042,5.11522542 32.9215761,3.46314571 27.8844094,3.63415839 C22.8809895,3.80402537 17.892061,5.77276848 13.8716985,10.0502208 C15.1022129,11.4723514 15.7768631,13.2910373 15.7712789,15.171079 C15.7694,17.320047 14.9050163,19.2648054 13.508541,20.6718778 C12.1117625,22.0792557 10.1823909,22.946412 7.53819892,23.2866093 C7.18843567,28.3068267 8.62114866,33.1029929 11.3398312,36.9798952 C14.06332,40.8636514 18.077238,43.8248104 23.337627,44.9011452 C23.4787043,44.3419168 23.6864208,43.7950122 24.1234823,42.9621591 C24.8052078,41.7632292 25.7822401,40.7929007 26.9337674,40.1214146 C28.0859057,39.4495723 29.4127249,39.0768876 30.7933232,39.0738504 C32.2772961,39.0738512 33.6641495,39.497991 34.8406235,40.2331886 C36.0575801,40.9936845 37.0495505,42.0867146 38.1927469,43.5496687 C42.3944813,41.3467626 45.632806,37.8276911 47.5462013,33.6706179 C49.4402936,29.5554827 50.036092,24.8153355 48.6535719,19.8223427 C46.6542468,19.6746583 44.8668417,18.7551906 43.5819654,17.3586558 C42.3053643,15.9711151 41.5248122,14.1124945 41.5248122,12.070567 C41.5248122,11.1023127 41.7030624,10.1748052 42.0445732,8.59118811 Z" stroke-linejoin="square"/></g><g id="便民服务" filter="url(#filter-5)" transform="translate(19.000000, 5.000000)" fill-rule="nonzero"><path d="M33.7764374,20.596127 L41.3661331,13.0190501 L57.9995769,29.6263117 L61.5199918,26.11175 C67.4933361,20.1483371 67.4933361,10.4442581 61.5199918,4.48084523 C58.6259039,1.59156912 54.7786777,0 50.6865274,0 C46.5943771,0 42.7471509,1.59156912 39.853063,4.48084523 L28.6883609,15.6269846 C27.3582461,16.9909762 27.3693119,19.2306624 28.7370506,20.596127 C30.126921,21.9822136 32.386567,21.9851596 33.7764374,20.596127 Z" id="路径" fill="url(#linearGradient-6)"/><path d="M40.2352036,20.0739509 L36.3208446,23.9818018 C34.1711193,26.1279529 30.9295638,26.9417816 28.1136746,25.7987389 C22.580751,23.5538973 21.6246618,16.9048061 25.2926212,13.1457276 L30.8587424,7.58886082 L28.2398252,4.97429794 C22.9023983,-0.353518361 14.5462082,-1.6387049 8.09850789,2.27872044 C-1.46681042,8.09188799 -2.55864068,20.7169125 4.8222794,28.0855608 L9.66100551,32.9162419 L30.958335,54.1781618 C32.056067,55.2740688 33.8369307,55.2740688 34.933925,54.1774254 L36.0146894,53.0969849 C37.0895521,52.0224363 37.0888143,50.2820949 36.0139517,49.2082829 L25.7433701,38.9547774 C24.7747396,37.9877574 24.7747396,36.4050262 25.7433701,35.4380062 L26.4353544,34.7471724 C27.4039849,33.7801524 28.9893519,33.7801524 29.9579824,34.7471724 L40.5826712,45.3534598 C41.4635126,46.2328367 42.8910069,46.2328367 43.7718483,45.3534598 L45.1882768,43.9393863 C46.0691182,43.0600094 46.0691182,41.6348885 45.1882768,40.7555116 L39.5992862,35.1758134 C38.7213957,34.2993825 38.7213957,32.8646872 39.5992862,31.9882562 L40.1562672,31.4322013 C41.0341577,30.5557704 42.4712424,30.5557704 43.349133,31.4322013 L48.2063022,36.2812948 C49.4914159,37.5642719 51.574746,37.5642719 52.8598598,36.2812948 L54.6650683,34.4790877 L40.2352036,20.0739509 Z" id="路径" fill="url(#linearGradient-7)"/></g></g></g></g></svg>