<?xml version="1.0" encoding="UTF-8"?><svg width="240px" height="152px" viewBox="0 0 240 152" version="1.1" xmlns="http://www.w3.org/2000/svg" xmlns:xlink="http://www.w3.org/1999/xlink"><title>编组@4x</title><defs><linearGradient x1="50%" y1="50%" x2="50%" y2="-24.5616319%" id="linearGradient-1"><stop stop-color="#F3F7FF" stop-opacity="0" offset="0%"/><stop stop-color="#D1D8E6" offset="100%"/></linearGradient><linearGradient x1="75.345661%" y1="52.0527067%" x2="73.4768435%" y2="20.0073454%" id="linearGradient-2"><stop stop-color="#8F9BB5" stop-opacity="0" offset="0%"/><stop stop-color="#EAF0FA" offset="100%"/></linearGradient><linearGradient x1="49.9999999%" y1="-13.372231%" x2="49.9999999%" y2="85.1516912%" id="linearGradient-3"><stop stop-color="#CAD1DF" offset="0%"/><stop stop-color="#E5EBF6" offset="58.1424198%"/><stop stop-color="#F0F4FA" offset="100%"/></linearGradient><linearGradient x1="49.9999999%" y1="-13.372231%" x2="49.9999999%" y2="85.1516912%" id="linearGradient-4"><stop stop-color="#CAD1DF" offset="0%"/><stop stop-color="#E5EBF6" offset="58.1424198%"/><stop stop-color="#F0F4FA" offset="100%"/></linearGradient><linearGradient x1="49.9999999%" y1="-13.372231%" x2="49.9999999%" y2="85.1516912%" id="linearGradient-5"><stop stop-color="#CAD1DF" offset="0%"/><stop stop-color="#E5EBF6" offset="58.1424198%"/><stop stop-color="#F0F4FA" offset="100%"/></linearGradient><linearGradient x1="49.9999999%" y1="-13.372231%" x2="49.9999999%" y2="85.1516912%" id="linearGradient-6"><stop stop-color="#CAD1DF" offset="0%"/><stop stop-color="#E5EBF6" offset="58.1424198%"/><stop stop-color="#F0F4FA" offset="100%"/></linearGradient><linearGradient x1="50%" y1="0%" x2="50%" y2="100%" id="linearGradient-7"><stop stop-color="#D1D6E2" offset="0%"/><stop stop-color="#999FA9" offset="100%"/></linearGradient><linearGradient x1="50%" y1="0%" x2="50%" y2="100%" id="linearGradient-8"><stop stop-color="#D9E1ED" offset="0%"/><stop stop-color="#B8C0CD" offset="100%"/></linearGradient><linearGradient x1="76.9612659%" y1="46.2488802%" x2="57.3039859%" y2="50%" id="linearGradient-9"><stop stop-color="#F7F9FE" stop-opacity="0" offset="0%"/><stop stop-color="#8C929D" offset="100%"/></linearGradient><linearGradient x1="50%" y1="0.175240756%" x2="50%" y2="99.0973395%" id="linearGradient-10"><stop stop-color="#F2F3F6" offset="0%"/><stop stop-color="#DAE0EA" offset="100%"/></linearGradient><linearGradient x1="63.9076154%" y1="50%" x2="3.66261672%" y2="74.4716924%" id="linearGradient-11"><stop stop-color="#E0E3E7" offset="0%"/><stop stop-color="#BCC2CC" offset="100%"/></linearGradient><linearGradient x1="55.1260092%" y1="31.3293169%" x2="61.9362956%" y2="62.0858001%" id="linearGradient-12"><stop stop-color="#F2F3F6" offset="0%"/><stop stop-color="#DAE0EA" offset="100%"/></linearGradient><linearGradient x1="27.6418937%" y1="36.7814105%" x2="91.900202%" y2="64.2455468%" id="linearGradient-13"><stop stop-color="#F2F3F6" offset="0%"/><stop stop-color="#DAE0EA" offset="100%"/></linearGradient><linearGradient x1="50%" y1="0%" x2="50%" y2="100%" id="linearGradient-14"><stop stop-color="#CAD1DF" offset="0%"/><stop stop-color="#E5EBF6" offset="100%"/></linearGradient><linearGradient x1="13.7616442%" y1="50%" x2="97.4754729%" y2="52.3603228%" id="linearGradient-15"><stop stop-color="#8F9BB5" stop-opacity="0" offset="0%"/><stop stop-color="#A3ADBF" offset="100%"/></linearGradient></defs><g id="页面-1" stroke="none" stroke-width="1" fill="none" fill-rule="evenodd"><g id="A1-API测试工具默认页面备份" transform="translate(-920.000000, -343.000000)"><g id="编组-4" transform="translate(854.000000, 343.000000)"><g id="编组" transform="translate(67.000000, 0.000000)"><ellipse id="椭圆形-copy-3" stroke="#FFFFFF" stroke-width="0.75" fill="url(#linearGradient-1)" cx="119" cy="117.19403" rx="119" ry="33.8059701"/><path d="M223.735016,67.2780611 L15.0157729,67.6119403 L15.0157729,45.8052026 L19.2467366,43.6280323 L20.6962488,42.7700146 C20.6962488,42.7700146 33.6021473,46.6496086 44.6618988,43.8438995 C55.7216503,41.0381904 54.3418647,39.493848 58.6904012,33.2195257 C63.0389377,26.9452034 71.8285281,39.416409 81.2759272,38.8168099 C94.5545283,37.9740556 97.5834167,31.963571 115.055227,11.8290471 C132.527037,-8.30547679 138.952762,0.584562135 151.743099,13.9465247 C164.533437,27.3084873 162.740804,18.2701759 177.207915,19.0420648 C191.675027,19.8139536 201.218763,59.0189286 223.717077,60.4100729 L223.735016,67.2780611 Z" id="Path-2-Copy" fill="url(#linearGradient-2)" opacity="0.8"/><path d="M171.245354,72.2303109 L176.986679,77.7770196 L172.924467,77.7763109 L177.86996,82.3941974 L173.798507,82.3935798 C173.973163,82.5715648 174.152607,82.7495497 174.336837,82.9275347 C175.588151,84.1364328 177.060286,85.3453308 178.75324,86.5542288 L163.737467,86.5542288 C165.49293,85.3613123 166.857861,84.3156392 167.83226,83.4172095 C168.148015,83.1260728 168.480917,82.7851941 168.830967,82.3945735 L164.620748,82.3941974 L169.564467,77.7763109 L165.504029,77.7770196 L171.245354,72.2303109 Z" id="形状结合复制-2-copy" fill="url(#linearGradient-3)" opacity="0.9" transform="translate(171.245354, 79.392270) rotate(7.000000) translate(-171.245354, -79.392270) "/><path d="M162.587028,49.2700948 L166.605955,53.1527909 L163.762507,53.1520948 L167.224252,56.3848154 L164.374601,56.3847565 C164.496745,56.5092215 164.622233,56.6336865 164.751065,56.7581515 C165.626985,57.6043801 166.65748,58.4506088 167.842548,59.2968374 L157.331507,59.2968374 C158.560331,58.4617959 159.515782,57.7298247 160.197862,57.1009239 C160.418844,56.8971703 160.651826,56.6586116 160.896805,56.385248 L157.949804,56.3848154 L161.410507,53.1520948 L158.5681,53.1527909 L162.587028,49.2700948 Z" id="形状结合复制-copy" fill="url(#linearGradient-4)" opacity="0.6" transform="translate(162.587028, 54.283466) rotate(5.000000) translate(-162.587028, -54.283466) "/><path d="M49.8467442,71.279788 L57.3546306,78.0409821 L52.619018,78.040788 L59.0307593,83.6193919 L52.505145,83.6192569 C53.0143063,84.1576205 53.5603239,84.6959841 54.1431978,85.2343477 C55.7699065,86.7368353 57.6836815,88.2393228 59.8845227,89.7418104 L40.364018,89.7418104 C42.6461191,88.2591856 44.4205291,86.9595633 45.6872481,85.8429436 C46.3465929,85.2617276 47.0634539,84.5210034 47.8378312,83.620771 L41.7626205,83.6193919 L48.173018,78.040788 L42.3388578,78.0409821 L49.8467442,71.279788 Z" id="形状结合-copy" fill="url(#linearGradient-5)" opacity="0.9" transform="translate(50.124270, 80.510799) rotate(-11.000000) translate(-50.124270, -80.510799) "/><path d="M75.829653,39.8159204 L78.7003155,42.5892747 L76.6697098,42.5889204 L79.1419558,44.8978636 L77.105899,44.8972182 C77.1933315,44.9863229 77.2831632,45.0754276 77.3753943,45.1645323 C78.0010515,45.7689813 78.7371188,46.3734303 79.5835962,46.9778794 L72.0757098,46.9778794 C72.953441,46.3814211 73.6359064,45.8585846 74.123106,45.4093697 C74.2808533,45.2639212 74.4471605,45.0936427 74.6220274,44.8985341 L72.5173502,44.8978636 L74.9877098,42.5889204 L72.9589905,42.5892747 L75.829653,39.8159204 Z" id="形状结合复制-copy" fill="url(#linearGradient-6)" opacity="0.5"/><g id="分组" transform="translate(69.072555, 45.825871)"><polygon id="矩形-copy-3" fill="url(#linearGradient-7)" points="13.8600176 9.26846836 48.2685231 0 48.2685231 20.9834046 45.0662667 21.2270428"/><polygon id="矩形-copy-4" fill="url(#linearGradient-8)" opacity="0.85" points="48.2685231 0 82.6770287 10.9641663 48.2685231 21.9651908"/><polygon id="矩形" fill="url(#linearGradient-9)" points="13.8600176 52.8007097 91.6035415 42.0497726 111.62751 48.4185421 45.0662667 66.761771"/><path d="M13.8600176,9.26846836 C13.8600176,9.26846836 24.2621007,13.2546599 45.0662667,21.2270428 L45.0662667,66.4038797 L13.8600176,52.7237985 C13.8600176,23.7535784 13.8600176,9.26846836 13.8600176,9.26846836 Z" id="路径-18" fill="url(#linearGradient-10)"/><polygon id="矩形" fill="url(#linearGradient-11)" points="45.0662667 21.2270428 82.6770287 10.9641663 82.6770287 54.8553594 45.0662667 66.4038797"/><path d="M49.8207673,59.9692406 C49.622004,60.028239 49.4130757,59.9148395 49.354113,59.7159557 C49.2951503,59.5170718 49.4084811,59.3080169 49.6072445,59.2490185 L55.6409145,57.4580587 C55.8396779,57.3990602 56.0486062,57.5124597 56.1075689,57.7113436 C56.1665316,57.9102274 56.0532007,58.1192823 55.8544374,58.1782808 L49.8207673,59.9692406 Z" id="路径-8" fill="#EFEFEF" fill-rule="nonzero"/><path d="M51.3343304,58.3634447 C51.3343304,58.5708949 51.1662606,58.7390666 50.9589361,58.7390666 C50.7516115,58.7390666 50.5835417,58.5708949 50.5835417,58.3634447 L50.5835417,54.2111619 C50.5835417,54.0037116 50.7516115,53.83554 50.9589361,53.83554 C51.1662606,53.83554 51.3343304,54.0037116 51.3343304,54.2111619 L51.3343304,58.3634447 Z" id="直线" fill="#EFEFEF" fill-rule="nonzero"/><path d="M54.6541441,57.1625262 C54.6541441,57.3699764 54.4860744,57.5381481 54.2787498,57.5381481 C54.0714252,57.5381481 53.9033555,57.3699764 53.9033555,57.1625262 L53.9033555,53.0102434 C53.9033555,52.8027931 54.0714252,52.6346215 54.2787498,52.6346215 C54.4860744,52.6346215 54.6541441,52.8027931 54.6541441,53.0102434 L54.6541441,57.1625262 Z" id="直线复制-4" fill="#EFEFEF" fill-rule="nonzero"/><path d="M53.4766633,54.4420151 C53.3492439,54.6056617 53.1133686,54.6349669 52.9498212,54.5074701 C52.7862738,54.3799734 52.7569864,54.1439552 52.8844059,53.9803086 L54.2368079,52.2434009 L55.5705729,53.5083157 C55.7210479,53.651023 55.7274149,53.8887683 55.584794,54.0393346 C55.4421731,54.1899009 55.2045718,54.1962718 55.0540968,54.0535644 L54.3206917,53.3580184 L53.4766633,54.4420151 Z" id="路径-9复制-2" fill="#EFEFEF" fill-rule="nonzero"/><path d="M50.0113578,55.6267586 C49.8848101,55.791081 49.649094,55.8216414 49.4848711,55.695017 C49.3206482,55.5683926 49.2901064,55.3325336 49.4166541,55.1682111 L50.8923858,53.2519698 L52.2562724,54.3194508 C52.4195738,54.4472629 52.4484064,54.6833372 52.3206718,54.8467375 C52.1929372,55.0101379 51.9570059,55.038988 51.7937045,54.9111759 L51.0254863,54.3099102 L50.0113578,55.6267586 Z" id="路径-9" fill="#EFEFEF" fill-rule="nonzero"/><polygon id="矩形-copy-2" fill="url(#linearGradient-12)" points="13.8600176 9.26846836 45.0662667 20.9734998 30.2448757 39.0394307 0 23.9290529"/><polygon id="矩形复制-2-copy" fill="url(#linearGradient-13)" points="82.6770287 10.9641663 95.3618717 25.895645 56.3810001 40.2229357 45.0662667 20.9734998"/></g><g id="树叶-copy-2备份-copy" transform="translate(168.927445, 29.674129) scale(-1, 1) rotate(-118.000000) translate(-168.927445, -29.674129) translate(162.921136, 26.293532)" fill="url(#linearGradient-14)"><path d="M11.998378,2.27089408 C11.2341144,3.42098417 10.1660779,4.41741311 9.04156862,5.21901673 C8.12623998,5.8701403 7.09476857,6.54176815 5.95406113,6.7133403 C5.36894889,6.80286072 4.67249857,6.76970117 4.10780626,6.58913894 C3.28661066,6.32751043 2.56435281,5.80328525 1.86684263,5.32110596 C1.45863834,5.0395264 1.13757205,5.17378973 0.831043465,5.52429898 C0.640639986,5.74222188 0.65088528,6.2059888 0.476097041,6.38069019 C0.252908623,6.60654857 0.0114553196,6.56600678 0.000150168204,6.16437512 C-0.0127447701,5.60699039 0.807903233,4.97111537 1.27418773,4.80002731 C1.01711919,3.92894077 1.62266903,2.4414462 2.19543392,1.79454106 C4.3751201,-0.663017332 8.07137467,-0.319838456 10.6893828,1.16922938 C10.8071506,1.23713903 12.1656059,2.01614644 11.998378,2.27089408 L11.998378,2.27089408 Z" id="路径"/></g><path d="M107.787579,39.4476123 C108.004608,39.6319501 108.238019,39.833929 108.50432,40.0674009 C108.649597,40.194769 108.870953,40.1806289 108.998731,40.0358182 C109.126509,39.8910074 109.112324,39.6703629 108.967046,39.5429948 C108.698184,39.3072769 108.462093,39.1029788 108.241997,38.9160364 C108.094733,38.7909553 107.873628,38.8085543 107.748144,38.955345 C107.62266,39.1021356 107.640315,39.3225312 107.787579,39.4476123 Z M109.467619,40.9192174 C109.820167,41.232223 109.978788,41.3728642 110.181593,41.551973 C110.326406,41.6798655 110.547812,41.6665257 110.676116,41.5221779 C110.804421,41.37783 110.791038,41.1571357 110.646225,41.0292432 C110.444029,40.8506723 110.285719,40.7103076 109.933626,40.3977054 C109.78915,40.2694344 109.567711,40.2821947 109.439026,40.4262062 C109.310342,40.5702178 109.323143,40.7909464 109.467619,40.9192174 Z M111.153203,42.4020454 C111.402391,42.6175188 111.643444,42.8236589 111.880824,43.0240608 C112.028464,43.1487011 112.249515,43.1304412 112.374557,42.9832761 C112.499599,42.8361109 112.48128,42.6157691 112.333641,42.4911288 C112.098455,42.2925791 111.85949,42.0882244 111.61232,41.8744961 C111.466172,41.7481217 111.244918,41.763771 111.118137,41.9094497 C110.991355,42.0551284 111.007055,42.2756711 111.153203,42.4020454 Z M112.878368,43.8494256 C113.13087,44.053816 113.380924,44.2525901 113.629723,44.446509 C113.782136,44.5653029 114.002303,44.538446 114.121479,44.3865224 C114.240656,44.2345987 114.213713,44.0151388 114.061299,43.8963449 C113.815961,43.7051233 113.569268,43.50902 113.320043,43.3072826 C113.169852,43.1857092 112.949226,43.2085173 112.827261,43.3582259 C112.705296,43.5079346 112.728177,43.7278522 112.878368,43.8494256 Z M114.666928,45.2316865 C114.92834,45.4235437 115.188952,45.610128 115.449291,45.7916479 C115.607831,45.9021884 115.826252,45.8636903 115.937149,45.70566 C116.048045,45.5476297 116.009423,45.32991 115.850884,45.2193695 C115.59526,45.0411377 115.339251,44.8578491 115.082343,44.6692978 C114.926544,44.5549523 114.707249,44.5881519 114.592535,44.7434513 C114.477821,44.8987506 114.511128,45.117341 114.666928,45.2316865 Z M116.531383,46.5175521 C116.804176,46.6932315 117.076898,46.8632506 117.349843,47.0276341 C117.51544,47.1273659 117.730791,47.0744031 117.830844,46.9093384 C117.930897,46.7442737 117.877764,46.5296138 117.712168,46.429882 C117.445312,46.2691665 117.17855,46.1028628 116.911598,45.9309449 C116.749089,45.8262885 116.532236,45.8727643 116.427242,46.0347514 C116.322249,46.1967385 116.368874,46.4128958 116.531383,46.5175521 Z M118.487092,47.6788289 C118.772655,47.8338018 119.058546,47.9824664 119.34495,48.1247674 C119.518107,48.2108011 119.728447,48.1406247 119.814757,47.968024 C119.901068,47.7954234 119.830666,47.5857588 119.657509,47.4997251 C119.378738,47.3612163 119.100331,47.2164434 118.822112,47.0654564 C118.652188,46.9732402 118.439441,47.0357924 118.346927,47.2051705 C118.254414,47.3745486 118.317168,47.5866127 118.487092,47.6788289 Z M120.542982,48.6812041 C120.841545,48.8101562 121.140675,48.9320573 121.440497,49.0468118 C121.621115,49.1159421 121.823757,49.0260334 121.89311,48.8459951 C121.962463,48.6659568 121.872265,48.4639658 121.691646,48.3948355 C121.401117,48.2836376 121.111122,48.1654593 120.821543,48.0403874 C120.644017,47.9637119 120.437745,48.0450059 120.360822,48.2219625 C120.2839,48.3989192 120.365456,48.6045286 120.542982,48.6812041 Z M122.666368,49.4745979 C122.976648,49.5723711 123.287634,49.6623769 123.599413,49.7444997 C123.786468,49.79377 123.978176,49.6825604 124.027605,49.4961061 C124.077035,49.3096518 123.965467,49.1185592 123.778412,49.0692889 C123.477508,48.9900308 123.177253,48.9031308 122.877558,48.8086929 C122.693081,48.7505617 122.496257,48.852505 122.437938,49.0363896 C122.37962,49.2202741 122.481891,49.4164667 122.666368,49.4745979 Z M124.891965,50.0385553 C125.211136,50.0997006 125.531078,50.1524955 125.851849,50.1968184 C126.043492,50.2232989 126.220385,50.0899071 126.246951,49.8988795 C126.273517,49.7078518 126.139695,49.5315266 125.948052,49.5050461 C125.6394,49.4623977 125.331472,49.4115853 125.024202,49.35272 C124.834203,49.316321 124.650577,49.4403432 124.614061,49.6297314 C124.577544,49.8191196 124.701966,50.0021563 124.891965,50.0385553 Z M127.17383,50.3308739 C127.496922,50.3517592 127.820782,50.3639884 128.145446,50.3674453 C128.154624,50.3675406 128.154624,50.3675406 128.155133,50.3675458 C128.348599,50.369509 128.50703,50.2147693 128.509,50.021925 C128.51097,49.8290807 128.355731,49.671158 128.162266,49.6691948 C128.161938,49.6691915 128.161938,49.6691915 128.152841,49.669097 C127.840929,49.6657759 127.529693,49.6540234 127.219171,49.6339507 C127.026101,49.6214703 126.859437,49.7673644 126.846916,49.9598145 C126.834396,50.1522645 126.98076,50.3183935 127.17383,50.3308739 Z M129.450104,50.3719944 C129.770544,50.3709335 130.090282,50.3682601 130.408967,50.3639681 C130.602425,50.3613627 130.757134,50.2029255 130.75452,50.0100888 C130.751907,49.8172521 130.592959,49.6630392 130.399501,49.6656447 C130.083203,49.6699045 129.765844,49.6725581 129.447777,49.6736111 C129.254303,49.6742516 129.097982,49.8311093 129.098622,50.0239625 C129.099267,50.2168157 129.25663,50.3726349 129.450104,50.3719944 Z M131.701195,50.3374968 C132.022604,50.3286242 132.342222,50.3180658 132.659719,50.3058213 C132.85305,50.2983653 133.003712,50.1360987 132.996232,49.9433886 C132.988752,49.7506785 132.825962,49.6005003 132.632631,49.6079563 C132.31771,49.6201015 132.000655,49.6305751 131.681799,49.6393773 C131.488397,49.6447163 131.335957,49.8053237 131.341313,49.9981041 C131.346669,50.1908845 131.507794,50.3428358 131.701195,50.3374968 Z M133.9535,50.2459103 C134.275793,50.2284292 134.595135,50.2091476 134.911211,50.1880694 C135.104256,50.1751959 135.250279,50.0087692 135.237364,49.8163451 C135.224449,49.6239209 135.057486,49.4783664 134.864442,49.4912399 C134.551284,49.5121235 134.234842,49.5312301 133.915432,49.5485548 C133.722242,49.5590334 133.574153,49.7236363 133.584665,49.9162057 C133.595177,50.1087751 133.76031,50.2563889 133.9535,50.2459103 Z M136.205767,50.0900853 C136.528905,50.0626132 136.847744,50.0331648 137.161977,50.0017479 C137.354486,49.9825009 137.494893,49.8113393 137.475584,49.6194478 C137.456275,49.4275564 137.284562,49.2876005 137.092052,49.3068475 C136.78131,49.3379155 136.46593,49.3670443 136.146225,49.3942246 C135.95345,49.4106137 135.810503,49.5796735 135.826945,49.7718301 C135.843387,49.9639868 136.012991,50.1064745 136.205767,50.0900853 Z M138.453449,49.8582883 C138.777101,49.8185631 139.094738,49.7765926 139.406048,49.7323881 C139.59759,49.70519 139.730746,49.5283649 139.70346,49.3374381 C139.676174,49.1465113 139.498779,49.0137829 139.307237,49.040981 C139.000369,49.084555 138.687124,49.1259451 138.367822,49.1651363 C138.175797,49.1887056 138.039298,49.3629796 138.062943,49.5543883 C138.086588,49.7457969 138.261424,49.8818576 138.453449,49.8582883 Z M140.694508,49.5303414 C141.01894,49.4743251 141.334874,49.4156134 141.641974,49.3542199 C141.831672,49.3162966 141.954611,49.1322669 141.916566,48.943178 C141.87852,48.7540891 141.693898,48.6315452 141.5042,48.6694685 C141.203245,48.7296335 140.89337,48.7872191 140.574927,48.8422014 C140.38429,48.8751167 140.256518,49.0558453 140.289539,49.2458699 C140.322561,49.4358945 140.503871,49.5632567 140.694508,49.5303414 Z M142.914297,49.0719562 C143.239204,48.9920353 143.55149,48.9085903 143.850757,48.8216299 C144.036501,48.7676568 144.143182,48.573811 144.089035,48.3886633 C144.034888,48.2035156 143.840418,48.0971776 143.654673,48.1511507 C143.364966,48.2353332 143.062075,48.316268 142.746434,48.3939094 C142.558594,48.4401146 142.443896,48.6293573 142.49025,48.8165947 C142.536604,49.0038321 142.726456,49.1181614 142.914297,49.0719562 Z M145.11361,48.4045847 C145.437001,48.2828599 145.739181,48.1556855 146.019605,48.0230009 C146.194388,47.9403005 146.268821,47.7320235 146.185854,47.5578012 C146.102887,47.3835788 145.893939,47.3093855 145.719155,47.3920858 C145.456648,47.5162933 145.172076,47.6360571 144.866098,47.7512277 C144.685097,47.8193568 144.593775,48.0208452 144.662123,48.2012648 C144.730472,48.3816843 144.932609,48.4727137 145.11361,48.4045847 Z M147.192435,47.3463339 C147.496831,47.1280289 147.754558,46.8973019 147.963868,46.6534019 C148.089634,46.5068516 148.072403,46.2864226 147.925381,46.16106 C147.778358,46.0356973 147.557219,46.0528732 147.431453,46.1994235 C147.26048,46.3986508 147.04417,46.5922998 146.783243,46.7794303 C146.626192,46.8920629 146.590479,47.1102753 146.703474,47.2668214 C146.816469,47.4233675 147.035385,47.4589665 147.192435,47.3463339 Z M148.6298,45.327257 C148.72877,44.9932927 148.80324,44.6694871 148.85359,44.3562664 C148.8842,44.1658412 148.754147,43.9867359 148.563109,43.9562235 C148.37207,43.9257112 148.192388,44.0553462 148.161777,44.2457715 C148.116259,44.528933 148.048488,44.8236129 147.957866,45.1294076 C147.903055,45.3143613 148.00904,45.5085859 148.19459,45.5632205 C148.380139,45.6178551 148.57499,45.5122106 148.6298,45.327257 Z M148.914384,42.970965 C148.883206,42.6106856 148.812607,42.2716419 148.704331,41.9559795 C148.641738,41.7734968 148.442588,41.6761445 148.259517,41.7385371 C148.076446,41.8009297 147.97878,41.9994403 148.041374,42.181923 C148.130995,42.4432001 148.189991,42.7265249 148.216339,43.0309856 C148.232967,43.2231263 148.402709,43.3654511 148.595468,43.3488769 C148.788228,43.3323027 148.931012,43.1631058 148.914384,42.970965 Z M147.966609,40.701576 C147.726905,40.4393352 147.449061,40.2167389 147.141456,40.0375778 C146.974407,39.9402822 146.759859,39.9963933 146.66225,40.1629056 C146.564641,40.3294179 146.620933,40.5432764 146.787982,40.6405721 C147.035021,40.7844574 147.2573,40.9625377 147.448704,41.171937 C147.579009,41.3144931 147.800579,41.3247638 147.943595,41.1948772 C148.08661,41.0649906 148.096914,40.8441322 147.966609,40.701576 Z M145.691492,39.5485789 C145.337393,39.5009513 144.985451,39.5020561 144.641225,39.5502808 C144.449632,39.5771222 144.316145,39.7536991 144.343073,39.9446763 C144.370001,40.1356536 144.547146,40.2687121 144.738739,40.2418707 C145.019646,40.2025169 145.307254,40.201614 145.5978,40.2406935 C145.789538,40.2664829 145.965946,40.1324543 145.991818,39.9413321 C146.017691,39.7502099 145.88323,39.5743684 145.691492,39.5485789 Z M143.222771,40.0473568 C142.922743,40.2239244 142.64583,40.440139 142.39942,40.6892651 C142.263586,40.8265971 142.265158,41.0476887 142.402933,41.183087 C142.540707,41.3184852 142.762511,41.3169176 142.898346,41.1795856 C143.10246,40.9732211 143.331466,40.7944128 143.578978,40.6487511 C143.745583,40.5507032 143.800904,40.336593 143.70254,40.1705225 C143.604176,40.0044521 143.389376,39.9493089 143.222771,40.0473568 Z M141.655832,41.8659694 C141.540654,42.1666955 141.450972,42.4983599 141.39049,42.8508842 C141.357875,43.0409786 141.486034,43.221435 141.676741,43.2539448 C141.867448,43.2864545 142.048486,43.1587069 142.081101,42.9686125 C142.134031,42.660108 142.211821,42.3724198 142.310391,42.1150583 C142.379396,41.9348874 142.288808,41.7330696 142.108057,41.6642856 C141.927306,41.5955016 141.724838,41.6857985 141.655832,41.8659694 Z M141.307561,44.2696684 C141.322922,44.5971628 141.361266,44.9290671 141.423154,45.2622468 C141.458378,45.451878 141.641155,45.5771414 141.831397,45.5420303 C142.021639,45.5069192 142.147306,45.3247296 142.112082,45.1350984 C142.056004,44.8332021 142.02131,44.5328816 142.007433,44.2370499 C141.998397,44.0444061 141.8344,43.8955393 141.641135,43.9045466 C141.447871,43.913554 141.298524,44.0770245 141.307561,44.2696684 Z M141.779867,46.5474385 C141.893992,46.8542302 142.02838,47.1577105 142.183202,47.4565654 C142.271973,47.6279218 142.483296,47.6951014 142.655204,47.6066153 C142.827112,47.5181293 142.894509,47.3074854 142.805737,47.136129 C142.66397,46.8624727 142.541062,46.5849184 142.436797,46.3046307 C142.369531,46.1238072 142.167943,46.0315752 141.986537,46.0986247 C141.805131,46.1656742 141.712602,46.366615 141.779867,46.5474385 Z M142.867641,48.6229326 C143.049955,48.9001479 143.240802,49.1656889 143.442351,49.4207349 C143.562072,49.572233 143.782334,49.5983053 143.93432,49.4789691 C144.086306,49.3596329 144.112462,49.1400784 143.992742,48.9885804 C143.804073,48.7498335 143.62503,48.5007166 143.453595,48.2400434 C143.347522,48.0787562 143.130363,48.0337199 142.968556,48.1394518 C142.806749,48.2451837 142.761568,48.4616454 142.867641,48.6229326 Z M144.345007,50.4195247 C144.581878,50.6480923 144.830638,50.8646283 145.092246,51.0689413 C145.244542,51.1878835 145.464735,51.1612408 145.584061,51.0094332 C145.703386,50.8576256 145.676658,50.6381396 145.524361,50.5191974 C145.282161,50.3300419 145.051806,50.1295267 144.832327,49.9177408 C144.693317,49.7836034 144.471537,49.7871916 144.336967,49.9257554 C144.202397,50.0643192 144.205997,50.2853872 144.345007,50.4195247 Z M146.205285,51.8177664 C146.486678,51.9797294 146.779878,52.1298174 147.085376,52.2677435 C147.261616,52.3473126 147.469199,52.2694037 147.549024,52.0937292 C147.628849,51.9180547 147.55069,51.7111389 147.374449,51.6315698 C147.089872,51.5030887 146.817124,51.3634702 146.555639,51.2129659 C146.38809,51.1165289 146.173835,51.1737405 146.077087,51.3407515 C145.98034,51.5077626 146.037736,51.7213294 146.205285,51.8177664 Z M148.362492,52.7501864 C148.668475,52.8451613 148.984622,52.92973 149.311211,53.0036898 C149.499879,53.0464159 149.687572,52.9285979 149.730436,52.740536 C149.773299,52.5524742 149.655102,52.3653836 149.466434,52.3226576 C149.157617,52.2527224 148.859178,52.1728908 148.570801,52.0833801 C148.386074,52.0260421 148.189692,52.1288302 148.132169,52.3129636 C148.074647,52.4970971 148.177766,52.6928484 148.362492,52.7501864 Z M150.610077,53.2675378 C150.98381,53.3416921 151.274626,53.3976869 151.552792,53.4484315 C151.743106,53.4831499 151.925622,53.3575097 151.960453,53.1678062 C151.995283,52.9781028 151.869238,52.7961729 151.678923,52.7614545 C151.404888,52.7114632 151.117348,52.6560992 150.746858,52.5825885 C150.557105,52.5449387 150.37266,52.6677487 150.334889,52.8568922 C150.297118,53.0460357 150.420324,53.229888 150.610077,53.2675378 Z M152.843984,53.6547397 C153.173994,53.6982726 153.493879,53.7322244 153.812068,53.7568937 C154.004961,53.7718488 154.173495,53.6281038 154.188498,53.4358302 C154.203501,53.2435567 154.059293,53.0755647 153.8664,53.0606096 C153.561137,53.0369423 153.253746,53.0043167 152.935905,52.962389 C152.744102,52.9370874 152.568037,53.0715644 152.542654,53.2627517 C152.517271,53.4539391 152.652181,53.6294381 152.843984,53.6547397 Z M155.138891,53.8056075 C155.456619,53.8043131 155.780174,53.7938507 156.112789,53.7738546 C156.305914,53.7622443 156.45303,53.5967766 156.441383,53.4042721 C156.429735,53.2117676 156.263734,53.0651239 156.070609,53.0767341 C155.751024,53.0959469 155.440578,53.1059855 155.136027,53.1072262 C154.942553,53.1080144 154.786353,53.2649913 154.78714,53.457844 C154.787934,53.6506967 154.945417,53.8063957 155.138891,53.8056075 Z M157.417548,53.6522675 C157.726521,53.6139766 158.045329,53.5682306 158.375494,53.5147261 C158.566462,53.483779 158.696104,53.3043781 158.665057,53.1140231 C158.634011,52.923668 158.454032,52.7944423 158.263063,52.8253894 C157.941415,52.8775137 157.631263,52.9220176 157.331104,52.9592163 C157.139107,52.9830105 157.002813,53.1574443 157.026684,53.3488252 C157.050555,53.540206 157.225551,53.6760617 157.417548,53.6522675 Z M159.666509,53.2777777 C159.970204,53.2160523 160.283618,53.1484827 160.607573,53.0748624 C160.796208,53.0319942 160.914264,52.8448146 160.871257,52.6567851 C160.828251,52.4687556 160.640468,52.3510791 160.451833,52.3939474 C160.133039,52.4663947 159.824873,52.5328331 159.526528,52.5934712 C159.336953,52.632002 159.214608,52.8164246 159.253263,53.0053906 C159.291918,53.1943566 159.476935,53.3163085 159.666509,53.2777777 Z M161.861829,52.7729534 C162.162445,52.6968589 162.471773,52.6160816 162.790317,52.5304792 C162.977123,52.4802787 163.087733,52.2886334 163.037371,52.1024273 C162.987008,51.9162213 162.794746,51.8059669 162.60794,51.8561674 C162.292653,51.9408945 161.986631,52.0208083 161.68938,52.0960512 C161.501856,52.1435189 161.388442,52.3335287 161.436063,52.5204501 C161.483683,52.7073715 161.674305,52.8204211 161.861829,52.7729534 Z M164.044392,52.1821824 C164.174981,52.14482 164.307032,52.1067217 164.440574,52.0678788 C164.626304,52.0138562 164.732933,51.8199821 164.678736,51.6348488 C164.624539,51.4497155 164.43004,51.3434293 164.244311,51.3974519 C164.111752,51.4360089 163.980689,51.473822 163.851094,51.5108997 C163.665127,51.5641058 163.557643,51.7575097 163.61102,51.9428793 C163.664398,52.1282489 163.858425,52.2353885 164.044392,52.1821824 Z" id="Path-31-Copy" fill="url(#linearGradient-15)" fill-rule="nonzero" transform="translate(136.178657, 46.319117) scale(-1, -1) rotate(146.000000) translate(-136.178657, -46.319117) "/></g></g></g></g></svg>