<?xml version="1.0" encoding="UTF-8"?>
<svg width="29px" height="29px" viewBox="0 0 29 29" version="1.1" xmlns="http://www.w3.org/2000/svg" xmlns:xlink="http://www.w3.org/1999/xlink">
    <title>编组 19@4x</title>
    <defs>
        <linearGradient x1="50%" y1="0%" x2="50%" y2="100%" id="linearGradient-1">
            <stop stop-color="#3C6EF0" offset="0%"></stop>
            <stop stop-color="#6E9AFF" offset="100%"></stop>
        </linearGradient>
    </defs>
    <g id="页面-1" stroke="none" stroke-width="1" fill="none" fill-rule="evenodd">
        <g id="首页设计稿-无顶图" transform="translate(-120.000000, -1463.000000)">
            <g id="编组-19" transform="translate(120.000000, 1463.000000)">
                <g id="编组-5备份-2" opacity="0.795694041" fill="url(#linearGradient-1)">
                    <circle id="椭圆形" cx="14.5" cy="14.5" r="14.5"></circle>
                </g>
                <g id="供应链" transform="translate(6.000000, 7.000000)" fill="#FFFFFF" fill-rule="nonzero">
                    <path d="M15.7095838,7.88343996 C15.5379026,10.6896361 13.8444639,13.0720006 11.466432,14.1724795 L11.466432,14.1724796 C11.3454938,15.8535134 9.91926009,17.1156602 8.28085606,16.9915817 C6.72885167,16.8740408 5.52745763,15.549005 5.52516636,13.9523021 L5.52516636,13.9523586 C5.52418429,12.2667528 6.85519429,10.8994878 8.49806033,10.8984659 C9.61658449,10.8977795 10.6409403,11.5409252 11.1493903,12.5631208 L11.1493903,12.5631208 C12.7431962,11.6998136 13.8430098,10.1115535 14.1130211,8.28326051 L14.1130212,8.28326051 C14.6672246,8.27080472 15.2120937,8.13435425 15.7095838,7.88343996 L15.7095838,7.88343996 Z M2.97542731,1.30804274 L2.97542718,1.30804274 C4.61829322,1.30880794 5.94949587,2.67587943 5.94875915,4.3614893 C5.94801647,6.04709507 4.61560805,7.41292943 2.97273802,7.41217323 C2.92290017,7.41215012 2.87307068,7.41084195 2.82329696,7.40824997 L2.82329696,7.41217386 C2.82329696,9.33322836 3.73014659,11.0371424 5.12866184,12.0979513 L5.12866176,12.0979515 C4.86970187,12.5951034 4.71755532,13.1434053 4.68246082,13.7059504 C2.63672911,12.397052 1.27559713,10.067452 1.27559713,7.41215972 C1.27559713,7.23252425 1.28197143,7.05463336 1.29387014,6.87804988 L1.29386988,6.8780497 C-0.0614953474,5.92545747 -0.407587918,4.02589956 0.520850661,2.63528424 C1.07552424,1.8044876 1.99391932,1.30788949 2.97541398,1.30804274 L2.97542731,1.30804274 Z M8.49981324,9.10954259e-06 C10.1558561,9.10954259e-06 11.6818634,0.571627752 12.900211,1.533462 L12.9002111,1.53346196 C14.4212085,0.896361452 16.1575975,1.64497872 16.7785538,3.20554602 C17.3995002,4.76611271 16.6698647,6.54767444 15.1488667,7.18478517 C13.6278693,7.82188568 11.8914803,7.07326841 11.270524,5.51270111 C10.8793113,4.52950107 11.0143409,3.40833293 11.6270505,2.55241402 L11.6270503,2.55241393 C10.7000579,1.92179633 9.6120547,1.58640422 8.49981918,1.58839896 C7.64906339,1.58839896 6.84250141,1.7802428 6.11796272,2.12468951 L6.11796265,2.12468941 C5.80216593,1.65716217 5.3912786,1.26548613 4.91364626,0.976678128 L4.91364626,0.976678209 C6.00514538,0.33475231 7.24173949,-0.00201935728 8.49982694,9.10954259e-06 L8.49981324,9.10954259e-06 Z" id="形状"></path>
                </g>
            </g>
        </g>
    </g>
</svg>