<?xml version="1.0" encoding="UTF-8"?>
<svg width="29px" height="29px" viewBox="0 0 29 29" version="1.1" xmlns="http://www.w3.org/2000/svg" xmlns:xlink="http://www.w3.org/1999/xlink">
    <title>编组 18@4x</title>
    <defs>
        <linearGradient x1="50%" y1="0%" x2="50%" y2="100%" id="linearGradient-1">
            <stop stop-color="#3C6EF0" offset="0%"></stop>
            <stop stop-color="#6E9AFF" offset="100%"></stop>
        </linearGradient>
    </defs>
    <g id="页面-1" stroke="none" stroke-width="1" fill="none" fill-rule="evenodd">
        <g id="首页设计稿-无顶图" transform="translate(-120.000000, -1404.000000)">
            <g id="编组-18" transform="translate(120.000000, 1404.000000)">
                <g id="编组-5备份" opacity="0.795694041" fill="url(#linearGradient-1)">
                    <circle id="椭圆形" cx="14.5" cy="14.5" r="14.5"></circle>
                </g>
                <g id="供应链资料" transform="translate(6.000000, 5.000000)" fill="#FFFFFF" fill-rule="nonzero">
                    <path d="M4.91583061,13.1041638 L5.56041493,12.7499975 L8.01832775,14.2870823 L8.01832775,10.5045801 L7.48707738,10.2708299 L5.0220757,8.73374516 L5.0220757,11.8079081 L4.49082534,12.1620744 L2.45791281,10.8587398 L0,12.3958245 L0,15.4629152 L2.45791281,17 L4.91582563,15.4629152 L4.91583061,13.1041638 Z M12.4029246,12.1620794 L11.8645903,11.8079131 L11.8645903,8.73375014 L8.98167723,10.50459 L8.98167723,14.1666811 L11.43959,12.6295963 L12.0841744,12.9837626 L12.0841744,15.3496028 L14.5420872,16.8796037 L17,15.3496028 L17,12.2754399 L14.5420872,10.745439 C14.4358371,10.8587725 12.4029246,12.162106 12.4029246,12.162106 L12.4029246,12.1620794 Z M5.56041991,7.7916657 L8.44333302,9.68291681 L8.98166727,9.32875049 L11.4395801,7.7916657 L8.98166727,6.25458091 L8.98166727,5.90041459 L10.9083297,4.72458001 L10.9083297,1.65041708 L8.44332804,0 L6.0916653,1.65041708 L6.0916653,4.72458001 L8.01832775,5.90041459 L8.01832775,6.25458091 L5.56041991,7.7916657 Z" id="形状"></path>
                </g>
            </g>
        </g>
    </g>
</svg>