<?xml version="1.0" encoding="UTF-8"?>
<svg width="29px" height="29px" viewBox="0 0 29 29" version="1.1" xmlns="http://www.w3.org/2000/svg" xmlns:xlink="http://www.w3.org/1999/xlink">
    <title>编组 10@4x</title>
    <defs>
        <linearGradient x1="50%" y1="0%" x2="50%" y2="100%" id="linearGradient-1">
            <stop stop-color="#3C6EF0" offset="0%"></stop>
            <stop stop-color="#6E9AFF" offset="100%"></stop>
        </linearGradient>
    </defs>
    <g id="页面-1" stroke="none" stroke-width="1" fill="none" fill-rule="evenodd">
        <g id="首页设计稿-无顶图" transform="translate(-120.000000, -1348.000000)">
            <g id="编组-10" transform="translate(120.000000, 1348.000000)">
                <g id="编组-5" opacity="0.795694041" fill="url(#linearGradient-1)">
                    <circle id="椭圆形" cx="14.5" cy="14.5" r="14.5"></circle>
                </g>
                <g id="出库管理" transform="translate(7.000000, 7.000000)" fill="#FFFFFF" fill-rule="nonzero">
                    <path d="M5.10200693,14.0792855 C5.40175698,12.7805691 7.74355516,12.7805691 8.04330521,14.0792855 L9.4733645,14.0792855 C10.097845,14.0792855 10.1478028,13.954409 10.1478028,13.4549024 L10.1478028,10.1768872 C10.1478028,8.81573248 10.3476357,8.92812233 8.86137421,8.92812233 L4.54621299,8.92812233 C3.9217325,8.92812233 3.87177465,9.02177965 3.87177465,9.5087988 L3.87177465,12.818031 L3.87177469,12.8180305 C3.84226515,13.1804036 3.85483842,13.5449755 3.90924337,13.9044568 C3.99042569,14.041821 4.14654537,14.0855284 4.40882776,14.0855284 L5.10200693,14.0792855 Z M14.6253234,11.8627202 L14.6253233,11.86272 C14.3408047,11.4626595 14.0142091,11.0942495 13.6511349,10.7638068 C13.5699524,10.6888808 13.4887697,10.6139551 13.4325674,10.5515168 L13.4325674,10.5515168 C13.2795277,10.3642766 13.0499308,10.2563825 12.8080869,10.2580377 L10.9034236,10.2580377 C10.609918,10.289276 10.5474699,10.4765903 10.5474699,10.7201001 L10.5474699,13.6921569 L10.5474699,13.692157 C10.5192804,13.8971298 10.6626179,14.0861426 10.8676233,14.1143272 C10.8939673,14.1179491 10.920622,14.1187567 10.9471371,14.1167363 C11.2843563,12.9116781 13.0703678,12.8679715 13.7073312,13.7233748 L13.7073312,13.7233747 C13.7753728,13.8508247 13.8358439,13.9821722 13.888431,14.1167362 C14.8438848,14.2103936 14.7189887,13.8732264 14.7189887,13.2800631 L14.7189887,13.2800627 C14.7689242,12.8057304 14.7372423,12.3263516 14.6253168,11.8627145 L14.6253234,11.8627202 Z M11.8214056,12.1686684 L11.8214056,10.8574652 L12.7955984,10.8574652 C13.0766139,10.8574652 13.1328175,11.0759986 13.2889369,11.2445819 C13.4450563,11.4131652 14.0258233,11.97511 14.0445579,12.1436933 C13.4325676,12.1436933 12.3959253,12.156181 11.8214056,12.1436933 L11.8214056,12.1686684 Z M6.35720935,13.5110914 C5.89509408,13.6047487 5.48293812,13.9419148 5.63905751,14.4164463 L5.63905746,14.4164461 C5.83713951,14.8582225 6.32657352,15.0909976 6.79434564,14.9659027 C7.25021654,14.8847329 7.64363793,14.5225911 7.52498766,14.0792795 L7.52498767,14.0792795 C7.3247387,13.6320933 6.83272901,13.3927042 6.35721077,13.5110913 L6.35720935,13.5110914 Z M12.3771907,13.4986038 C11.8588718,13.5423106 11.4404715,13.8482586 11.4841849,14.2915702 L11.4841849,14.2915701 C11.5902946,14.7672867 12.0540279,15.0736333 12.5333115,14.9846349 C13.0328959,14.9846349 13.4512977,14.5975183 13.4075828,14.1729383 L13.4075828,14.1729384 C13.2809258,13.7222877 12.8409367,13.4343401 12.3771907,13.4986052 L12.3771907,13.4986038 Z M14.5941016,3.22126563 L13.8946843,2.89658727 L13.6511365,2.77795462 L13.1640423,2.56566464 C12.3022598,2.19727961 11.1969353,1.64782156 10.3351485,1.31689981 L7.71858063,0.168036571 C7.24397516,-0.0442534066 7.36262689,-0.0442534066 7.00042879,0.105598256 L4.64613309,1.20451143 L4.17152909,1.4168014 L0.424646148,3.17132347 C0.324729416,3.23376179 0,3.32741853 0,3.44605177 L0,14.6287403 L2.72897227,14.6287403 L2.72897227,5.48778159 L12.2835106,5.48778159 L12.2835106,7.32347361 L15,7.32347361 L15,3.47728338 C15,3.33991923 14.7252289,3.2649934 14.5940884,3.22128672 L14.5941016,3.22126563 Z M10.2664575,3.33989828 L8.53040087,4.63861465 L8.53040087,4.63861465 C8.48137132,4.6766885 8.41075519,4.66781342 8.3726757,4.61879151 C8.35895187,4.60112412 8.35081339,4.57976386 8.34930197,4.55744498 L8.34930197,3.6645784 L8.34930197,3.66457843 C8.34275015,3.60495682 8.29052684,3.56098618 8.23065082,3.56467713 L4.38386096,3.56467713 L4.38386096,3.56467713 C4.3253311,3.56812559 4.27508725,3.52348071 4.2716382,3.46495996 C4.27145436,3.46281971 4.27145436,3.46067612 4.27145436,3.45853214 L4.27145436,3.05892722 L4.27145436,3.0589273 C4.27479616,3.00040026 4.32495797,2.95566332 4.38349414,2.95900446 C4.38361639,2.95901144 4.38373863,2.95901863 4.38386086,2.95902603 L8.20568498,2.95902603 L8.20568498,2.95902603 C8.26663127,2.95936449 8.31792166,2.91348032 8.32433613,2.85288104 L8.32433613,1.96001446 L8.32433612,1.96001444 C8.30545886,1.90088299 8.33809891,1.83764689 8.3972396,1.81877257 C8.44880338,1.80231635 8.50477469,1.82493961 8.53041454,1.87260095 L10.2664712,3.1838041 L10.2664712,3.18380409 C10.3095825,3.2123964 10.3213489,3.27051839 10.292752,3.31362299 C10.285835,3.32404909 10.2768989,3.33298381 10.2664712,3.33989973 L10.2664575,3.33989828 Z" id="形状"></path>
                </g>
            </g>
        </g>
    </g>
</svg>