<?xml version="1.0" encoding="UTF-8"?>
<svg width="29px" height="29px" viewBox="0 0 29 29" version="1.1" xmlns="http://www.w3.org/2000/svg" xmlns:xlink="http://www.w3.org/1999/xlink">
    <title>编组 9@4x</title>
    <defs>
        <linearGradient x1="50%" y1="0%" x2="50%" y2="100%" id="linearGradient-1">
            <stop stop-color="#6FA7F9" offset="0%"></stop>
            <stop stop-color="#3C6EF0" offset="100%"></stop>
        </linearGradient>
    </defs>
    <g id="页面-1" stroke="none" stroke-width="1" fill="none" fill-rule="evenodd">
        <g id="A6-美妆类解决方案-商家落地页" transform="translate(-119.000000, -934.000000)">
            <g id="编组-9" transform="translate(119.000000, 934.000000)">
                <g id="编组-8" fill="url(#linearGradient-1)" opacity="0.795694041">
                    <g id="编组-5备份-3">
                        <circle id="椭圆形" cx="14.5" cy="14.5" r="14.5"></circle>
                    </g>
                </g>
                <g id="美妆" transform="translate(8.000000, 5.000000)" fill="#FFFFFF" fill-rule="nonzero">
                    <path d="M6.99942514,8.95801374 L6.99942514,16.9418316 L6.99942514,16.9418316 C6.99942514,17.5262399 6.51727049,17.9999969 5.9225024,17.9999969 L1.07806237,17.9999969 L1.07806234,17.9999969 C0.483294254,18.0006147 0.000630647862,17.5273591 0,16.9429526 C0,16.9425792 0,16.9422057 0,16.9418323 L0,8.95801374 L6.99942514,8.95801374 L6.99942514,8.95801374 Z M12.9230773,11.9813467 C13.5179494,11.9813467 14,12.4561218 14,13.0406305 L14,16.9418353 L14,16.9418353 C14,17.5262436 13.5178453,18 12.9230773,18 L9.8267754,18 L9.82677535,18 C9.23200726,18 8.74985261,17.5262436 8.74985261,16.9418353 L8.74985261,13.0406305 C8.74985261,12.4561199 9.2319032,11.9824658 9.82677535,11.9824658 L12.9230772,11.9824658 L12.9230773,11.9813467 Z M1.93163134,0 C1.99544903,0 2.05926672,0.0134424409 2.12080508,0.0403164101 L3.53049181,0.409834671 C4.62450901,0.88908832 5.68091272,1.2518879 5.88718148,2.80721836 L5.88604187,5.96267545 L5.92250918,5.96267545 C6.51738132,5.96267545 7.00057091,6.4374506 7.00057091,7.02195928 L6.9982917,7.83825693 L6.19615821e-06,7.83825693 L6.19615821e-06,7.02083826 C6.19615821e-06,6.43744874 0.482056786,5.96379276 1.07692893,5.96379276 L1.30598905,5.962673 L1.30598905,0.859969095 C1.30598905,0.385193948 1.58633066,0 1.93162934,0 L1.93163134,0 Z" id="形状"></path>
                </g>
            </g>
        </g>
    </g>
</svg>