<?xml version="1.0" encoding="UTF-8"?>
<svg width="29px" height="29px" viewBox="0 0 29 29" version="1.1" xmlns="http://www.w3.org/2000/svg" xmlns:xlink="http://www.w3.org/1999/xlink">
    <title>编组 9@4x</title>
    <defs>
        <radialGradient cx="40.8035778%" cy="31.5989425%" fx="40.8035778%" fy="31.5989425%" r="77.8288635%" id="radialGradient-1">
            <stop stop-color="#FDFEFF" offset="0%"></stop>
            <stop stop-color="#DAE0EA" offset="76.7414988%"></stop>
            <stop stop-color="#D4DCEB" offset="100%"></stop>
        </radialGradient>
    </defs>
    <g id="页面-1" stroke="none" stroke-width="1" fill="none" fill-rule="evenodd">
        <g id="B5-休闲食品解决方案-商家落地页" transform="translate(-119.000000, -993.000000)">
            <g id="编组-9" transform="translate(119.000000, 993.000000)">
                <g id="编组-8" fill="url(#radialGradient-1)" opacity="0.795694041">
                    <g id="编组-5备份-3">
                        <circle id="椭圆形" cx="14.5" cy="14.5" r="14.5"></circle>
                    </g>
                </g>
                <g id="母婴产品" transform="translate(5.000000, 6.000000)" fill="#FFFFFF" fill-rule="nonzero">
                    <path d="M14.4247949,8.68478602 C14.6295691,8.88962365 14.7314871,9.14458875 14.7314871,9.4505761 C14.7314871,9.75652341 14.6295507,10.0185326 14.4247949,10.2348022 L6.9870028,17.6940107 C6.75944144,17.8979695 6.49228367,18 6.18645378,18 C5.87978162,18 5.62495172,17.8979907 5.42105579,17.6940107 L0.324257672,12.5946085 C0.108077888,12.378321 0,12.1198328 0,11.8200308 C0,11.5202289 0.108078088,11.2547166 0.324257672,11.0278779 L7.77963533,3.58624466 C7.99581511,3.3699571 8.25416612,3.26094057 8.55469635,3.26094057 C8.85436631,3.26094057 9.11267931,3.3699559 9.3288771,3.58624466 L14.4247749,8.68478602 L14.4247949,8.68478602 Z M8.93257283,6.32409888 C9.04065092,6.21684427 9.09427214,6.08408875 9.09427214,5.9284738 C9.09427214,5.77195687 9.04065292,5.64538631 8.93257283,5.54952118 C8.82449475,5.44138721 8.69532845,5.38689996 8.5459316,5.38689996 C8.39477661,5.38689996 8.26651199,5.44138721 8.15753182,5.54952118 L2.68287522,11.0278719 C2.57567601,11.1351265 2.52117592,11.2670013 2.52117592,11.423497 C2.52117592,11.5799935 2.57567601,11.7118691 2.68287522,11.8200048 C2.79183439,11.9281388 2.92011961,11.9826669 3.07127501,11.9826669 C3.22067025,11.9826669 3.34985636,11.9281386 3.45795625,11.8200048 L8.93257283,6.32409888 Z M16.1718027,7.2973909 C16.3405044,7.4652963 16.4248741,7.66401283 16.4248741,7.89259105 C16.4248741,8.12031052 16.3405028,8.31814408 16.1718027,8.48695046 C16.0162451,8.65401754 15.8237956,8.73839051 15.595354,8.73839051 C15.3677526,8.73839051 15.1700186,8.65401754 15.0012997,8.48695046 L9.52664311,3.00950052 C9.35882249,2.84067272 9.27533231,2.64199983 9.27533231,2.4151411 C9.27533231,2.18654087 9.35882269,1.98782655 9.52664311,1.81990092 C9.68307956,1.65199552 9.87465023,1.56758012 10.1030919,1.56758012 C10.3315755,1.56758012 10.5293055,1.65199412 10.6971461,1.81990092 L16.1718027,7.2973909 Z M17.7570798,1.44097232 C17.5883373,1.59748925 17.3932477,1.67485714 17.1717863,1.67485714 C16.9495066,1.67485714 16.7543954,1.59749025 16.5865348,1.44097232 C16.8150184,1.68190325 16.9819988,1.95266005 17.0909789,2.25160129 C17.1981783,2.55230605 17.2403742,2.87056204 17.2166241,3.20729805 C17.1929153,3.54403406 17.108546,3.87638427 16.964433,4.20697295 C16.8203193,4.53756163 16.6217496,4.84701198 16.3703788,5.13542608 L16.3703788,5.15298077 C16.4899027,5.26111474 16.5505241,5.39038864 16.5505241,5.54070099 C16.5505241,5.69105217 16.4899027,5.8194247 16.3703788,5.92846125 C16.2623007,6.03571586 16.1296113,6.09024194 15.9740745,6.09024194 C15.8185375,6.09024194 15.6858501,6.03571386 15.5777703,5.92846125 L12.0662292,2.41517459 C11.9695333,2.30615926 11.9221174,2.17424366 11.9221174,2.01778599 C11.9221174,1.86126906 11.9765765,1.72937188 12.0837757,1.62211887 C12.1804716,1.50169444 12.3060974,1.44100061 12.4625325,1.44100061 C12.61809,1.44100061 12.7498766,1.50169444 12.8588367,1.62211887 L12.8588367,1.63971453 C13.1470611,1.37594379 13.4581546,1.17110416 13.7956165,1.02779789 C14.1312777,0.883612452 14.466959,0.80183994 14.8035225,0.783343901 C15.140084,0.765789598 15.4608206,0.80798627 15.7675308,0.909975113 C16.0733206,1.01196376 16.3457401,1.17727091 16.5865055,1.40582911 C16.4178039,1.23704214 16.3343145,1.04182945 16.3343145,0.820277329 C16.3343145,0.596961674 16.4178049,0.408796501 16.5865055,0.252320808 C16.7543672,0.0834930036 16.9494774,0 17.1717571,0 C17.3931965,0 17.5883077,0.0834916023 17.7570506,0.252320808 C17.913446,0.421107777 17.994295,0.61805997 17.9995786,0.846680225 C18.0066403,1.07524043 17.9249096,1.27395475 17.7570706,1.44097959 L17.7570706,1.44097959 L17.7570798,1.44097232 Z" id="形状"></path>
                </g>
            </g>
        </g>
    </g>
</svg>