<?xml version="1.0" encoding="UTF-8"?>
<svg width="17px" height="16px" viewBox="0 0 17 16" version="1.1" xmlns="http://www.w3.org/2000/svg" xmlns:xlink="http://www.w3.org/1999/xlink">
    <title>调研@4x</title>
    <g id="页面-2" stroke="none" stroke-width="1" fill="none" fill-rule="evenodd">
        <g id="4.1.7典型页面-查询页-简单操作型备份-33" transform="translate(-1151.000000, -647.000000)" fill="#3C6EF0" fill-rule="nonzero">
            <g id="调研" transform="translate(1151.000000, 647.000000)">
                <path d="M8.48136624,1.33003168 L8.48136626,1.33003168 C8.72789921,1.33029921 8.92753021,1.52368866 8.92725819,1.76198288 C8.9270076,1.98038184 8.75796292,2.16415945 8.53359347,2.18995457 L8.48136626,2.19297487 L3.12472886,2.19297487 L3.12472886,11.6852925 L10.2669051,11.6852925 L10.2669051,11.6852925 C10.4932126,11.6853214 10.6836891,11.8490382 10.7101668,12.0662792 L10.7132915,12.1167611 L10.7132915,12.5482298 L10.7132915,12.5482309 C10.6593091,13.9770428 11.8138733,15.1776182 13.292073,15.2297991 C14.7702831,15.2819774 16.012366,14.165996 16.0663508,12.7371942 C16.0675074,12.7065815 16.0681018,12.6759511 16.0681336,12.645318 L16.0699191,12.5482386 L16.0699191,7.3706071 L16.0699191,7.37061434 C16.0701883,7.13231992 16.2702605,6.93935607 16.5167924,6.93961697 C16.7427421,6.93985543 16.9328755,7.10324813 16.9595666,7.32011828 L16.9626922,7.37060746 L16.9626922,12.548239 L16.9626922,12.5482389 C16.9626922,14.4545903 15.3638594,16 13.3915936,16 L3.57109873,16 L3.57109857,16 C1.59883909,16 0,14.4545963 0,12.5482389 L0,12.1167703 L0,12.1167704 C0,11.878476 0.199854049,11.6853018 0.446385752,11.6853018 C0.446385757,11.6853018 0.446385767,11.6853018 0.446385773,11.6853018 L2.23193087,11.6853018 L2.23193087,1.76150134 L2.23193087,1.76155818 C2.2319309,1.54281337 2.40128284,1.3586798 2.62603082,1.33305861 L2.67831641,1.33003168 L8.48133328,1.33003168 L8.48136624,1.33003168 Z M9.82052559,12.5482365 L0.892789629,12.5482365 L0.892789629,12.5482365 C0.892789629,13.9780061 2.09191476,15.1370594 3.57110832,15.1370594 L11.0297865,15.1366279 L10.9784521,15.092618 L10.9784523,15.0926182 C10.2681957,14.464703 9.85114382,13.5856322 9.82231214,12.6556729 L9.82052618,12.5482365 L9.82052559,12.5482365 Z M12.7108709,0.711307961 L12.7108709,0.711307972 C13.6920708,-0.237102654 15.2829147,-0.237102654 16.2641,0.711307951 C17.2453,1.65971858 17.2453,3.1974003 16.2641,4.14579676 L9.93299406,10.264038 L9.93299407,10.264038 C9.84919052,10.3450655 9.73548648,10.3904587 9.61695246,10.3904587 L6.69580651,10.3904587 L6.6958065,10.3904587 C6.61925262,10.3901156 6.54402409,10.3711208 6.47707784,10.3352305 L6.47707781,10.3352305 C6.45706722,10.3246959 6.43809175,10.3124202 6.4203868,10.2985556 L6.42038686,10.2985557 C6.39215487,10.2771195 6.36667841,10.2524944 6.3445011,10.2252058 L6.38021208,10.2640381 L6.38021206,10.2640381 C6.29688957,10.1830607 6.2499037,10.0736286 6.24942062,9.95942141 L6.2512063,9.99782224 L6.25120629,9.99782214 C6.2502585,9.98792105 6.24966297,9.9779914 6.24942062,9.96805076 L6.24942062,7.1354616 L6.24942062,7.13545557 C6.24942062,7.02088268 6.29638633,6.91097895 6.38021645,6.82997734 L12.7108709,0.711307961 Z M14.4870419,3.03822859 L7.77383605,9.52796493 L9.43260879,9.52796493 L15.3164356,3.84033674 L14.4870502,3.03866747 L14.4870419,3.03822859 Z M13.026019,1.6260296 L7.14175284,7.31452747 L7.14175284,8.91786803 L13.8558584,2.42857664 L13.0260253,1.62647455 L13.026019,1.6260296 Z M15.6329228,1.32141295 L15.6329228,1.32141291 C15.1219059,0.827333383 14.3341328,0.720140231 13.701855,1.05864812 L15.9043327,3.18752439 L15.9043327,3.18752439 C16.2374277,2.60622199 16.1547618,1.88502646 15.6981022,1.38829744 L15.6329228,1.32141295 Z" id="形状"></path>
            </g>
        </g>
    </g>
</svg>