<?xml version="1.0" encoding="UTF-8"?><svg width="16px" height="14px" viewBox="0 0 16 14" version="1.1" xmlns="http://www.w3.org/2000/svg" xmlns:xlink="http://www.w3.org/1999/xlink"><title>电子签名管理@4x</title><g id="页面-1" stroke="none" stroke-width="1" fill="none" fill-rule="evenodd"><g id="B1-休闲食品行业解决方案-整车/零担备份-3" transform="translate(-70.000000, -930.000000)" fill="#666666" fill-rule="nonzero"><g id="电子签名管理" transform="translate(70.000000, 930.000000)"><path d="M11.6651901,4.17761863 L13.2022351,2.68331347 L11.6415947,1.16590637 L10.1045497,2.6593856 L11.6651901,4.17761863 Z M10.6969532,5.118263 L9.13631273,3.60085591 L2.26426426,10.2802521 C1.97775352,10.5583194 1.6204586,11.2052199 1.53871713,11.5938533 L1.29686877,12.7383036 L2.47493393,12.5031425 C2.87857617,12.42228 3.53586552,12.0782022 3.8257482,11.7968332 L10.6969532,5.118263 L10.6969532,5.118263 Z M10.8250403,0.330876591 C11.0407669,0.118819446 11.3348609,0 11.6415951,0 C11.9483293,0 12.2424254,0.118818237 12.4581499,0.330876591 L14.0626092,1.88954002 L14.0626093,1.88954007 C14.5105559,2.32416385 14.51386,3.03206449 14.0699916,3.47068095 C14.067542,3.47310149 14.0650812,3.47551108 14.0626092,3.47790959 L4.66421176,12.6128835 C4.21337868,13.0510265 3.34794813,13.506496 2.7134107,13.6327408 L0.94968388,13.9842456 C0.689297002,14.0362285 0.419639836,13.9578415 0.231722087,13.7746642 L0.231722082,13.7746642 C0.0439946353,13.5926053 -0.0371491874,13.3300366 0.0159955264,13.0766063 L0.377503842,11.3628186 C0.505590996,10.7538747 0.974962178,9.90399429 1.42663875,9.46585325 L10.8250361,0.330879376 L10.8250403,0.330876591 Z M13.3783607,11.2778254 C13.2881941,11.8125078 12.9511231,12.2952069 12.419392,12.6747652 C13.5106609,12.7432507 14.3381709,12.3909224 14.9583729,11.6202529 C15.1564024,11.3751907 15.5204391,11.3314586 15.7749277,11.5212377 C16.0285748,11.711842 16.0749221,12.0641715 15.8777345,12.3092337 C14.8125895,13.6319121 13.2578392,14.0766545 11.3213653,13.6467648 L11.3213652,13.6467647 C11.0780952,13.5939657 10.8417502,13.5142409 10.616885,13.4091279 C9.00062693,13.8027129 7.52172797,13.9991019 6.18187715,13.9991019 C6.02766696,13.9999185 5.88019779,13.9405094 5.77149306,13.8357183 L5.77149301,13.8357183 C5.66210958,13.7307689 5.60042925,13.5871348 5.60042925,13.4371817 C5.6021146,13.1261094 5.86250313,12.8744457 6.18272101,12.8752697 C7.2166873,12.8752697 8.35261852,12.7465499 9.58966501,12.4882861 C9.36045683,12.072423 9.29809738,11.5855983 9.41691589,11.0773195 C9.66803454,10.0063047 10.6640803,9.19685669 11.7612536,9.35032903 C12.8542074,9.50545284 13.541834,10.3206788 13.3783531,11.2778257 L13.3783607,11.2778254 Z M10.5503263,11.327333 C10.4711145,11.6681107 10.5477982,11.9709317 10.8048148,12.1994914 C12.4800604,11.709367 12.6351124,10.6102967 11.5918758,10.4634258 C11.1511545,10.4023664 10.6775695,10.7877009 10.5503242,11.327333 L10.5503263,11.327333 Z" id="形状"/></g></g></g></svg>