<?xml version="1.0" encoding="UTF-8"?><svg width="20px" height="18px" viewBox="0 0 20 18" version="1.1" xmlns="http://www.w3.org/2000/svg" xmlns:xlink="http://www.w3.org/1999/xlink"><title>技术@4x</title><g id="页面-1" stroke="none" stroke-width="1" fill="none" fill-rule="evenodd"><g id="B1-休闲食品行业解决方案-整车/零担备份-3" transform="translate(-68.000000, -885.000000)" fill="#666666" fill-rule="nonzero"><g id="技术" transform="translate(69.000000, 885.000000)"><path d="M9.32657653,12.9557981 L8.92743452,12.9557981 C6.56881205,12.8842052 4.35536305,12.4547317 2.68618702,11.7389495 C0.908152134,10.9515744 -0.0352840985,9.91368712 0.00100927015,8.80420691 C0.0372813773,7.73052314 0.980738871,6.72843227 2.68618702,6.04842556 C4.28277632,5.40421529 6.4236811,5.04631371 8.67342347,5.04631371 L9.07256548,5.04631371 C11.4311879,5.08211016 13.6446369,5.51158367 15.313813,6.22736586 C17.0918479,7.01474095 18.0352841,8.05262827 17.9989907,9.16210849 C17.9627186,10.2357923 17.0192611,11.2379041 15.313813,11.9178898 C13.7172237,12.5978965 11.5763189,12.9557981 9.32657653,12.9557981 Z M8.67342347,5.76211687 C6.49624658,5.76211687 4.4642219,6.11999748 2.97647018,6.72843227 C1.59759857,7.30104963 0.763021182,8.05262827 0.763021182,8.84000336 C0.763021182,9.62737844 1.5613052,10.450529 3.01276355,11.0589428 C4.57308074,11.7389495 6.6776709,12.1326266 8.96370663,12.2042195 L9.3628699,12.2042195 C11.5400468,12.2042195 13.5720715,11.8463179 15.0598019,11.2379041 C16.4386948,10.6652658 17.2732722,9.91368712 17.2732722,9.12631204 C17.2732722,8.33893695 16.4749669,7.51578638 15.0235298,6.90737257 C13.4632126,6.22736586 11.3586012,5.8336888 9.07256548,5.76211687 L8.67342347,5.76211687 Z" id="形状" stroke="#666666" stroke-width="0.2"/><path d="M12.7737662,16.7136913 C11.7577645,16.7136913 10.5603172,16.1768494 9.25401106,15.1747376 C7.98397703,14.1726258 6.71396426,12.7768369 5.62537582,11.1663112 C4.31906968,9.23368041 3.41190556,7.19368125 3.08532903,5.44001174 C2.72248038,3.57895289 3.04905692,2.18316399 3.99249315,1.57475017 C4.31906968,1.36001342 4.71821169,1.25264504 5.18994044,1.25264504 C6.20596341,1.25264504 7.4034107,1.78948693 8.70971684,2.7915778 C9.9797296,3.79368964 11.2497424,5.18947854 12.3383308,6.80000419 C13.6446369,8.73263498 14.5518011,10.7726341 14.8783776,12.5263246 C15.2412475,14.3873625 14.914671,15.7831514 13.9712135,16.3915862 C13.6083648,16.6063229 13.2092016,16.7136913 12.7737662,16.7136913 Z M5.22623381,1.96842723 C4.93592938,1.96842723 4.64564622,2.03999916 4.4642219,2.18316399 C3.81106883,2.61263749 3.59335114,3.75789319 3.88363431,5.29684692 C4.21021084,6.9789445 5.04478823,8.91157528 6.31482225,10.7726341 C7.36711733,12.3115879 8.56456462,13.6357839 9.76201191,14.6020993 C10.9231658,15.4968427 11.9754822,15.9978882 12.8100596,15.9978882 C13.1003427,15.9978882 13.3906472,15.9263162 13.5720715,15.7831514 C14.2252245,15.3536779 14.4429422,14.2084222 14.1526591,12.6694685 C13.8260825,10.9873709 12.9914839,9.05474011 11.7214711,7.19368125 C10.669176,5.6547485 9.47172875,4.33053153 8.27428146,3.36421613 C7.11310627,2.46947267 6.02451783,1.96842723 5.22623381,1.96842723 Z" id="形状" stroke="#666666" stroke-width="0.2"/><path d="M4.64564622,16.7494668 C3.66591662,16.2126249 3.23048124,14.8884289 3.41190556,12.9915736 C3.59335114,11.2021076 4.31906968,9.09053656 5.48022361,7.08631288 C6.71396426,4.86737341 8.31055356,2.97053907 9.87087076,1.89685531 C10.0522951,1.78948693 10.2700128,1.82526241 10.415165,2.00422368 C10.5240238,2.18316399 10.4877305,2.39790074 10.3063061,2.54106557 C8.81857568,3.50738096 7.33082396,5.29684692 6.13337667,7.44421446 C5.04478823,9.37684524 4.35536305,11.381048 4.17391747,13.098942 C3.99249315,14.6378957 4.31906968,15.7473759 5.00851612,16.141053 C5.69796256,16.53473 6.82282311,16.1768494 8.05656377,15.210534 C9.39914201,14.1726258 10.7417415,12.4905282 11.83033,10.5578974 C13.0277772,8.4463263 13.7534958,6.22736586 13.8260825,4.47369635 C13.8260825,4.2589596 14.0075068,4.11579477 14.2252245,4.11579477 C14.4429422,4.11579477 14.5880944,4.29473508 14.5880944,4.50947183 C14.4792356,6.37053069 13.7172237,8.69683853 12.483483,10.915799 C11.3586012,12.9557981 9.94343623,14.6736922 8.52827125,15.7831514 C7.47597618,16.6063229 6.49624658,17 5.66166919,17 C5.29879928,17 4.97222275,16.9284281 4.64564622,16.7494668 Z" id="路径" stroke="#666666" stroke-width="0.2"/><path d="M11.0320247,1.89685531 C11.0320247,2.93474263 11.9028954,3.79368964 12.9552118,3.79368964 C14.0075281,3.79368964 14.8783776,2.93474263 14.8783776,1.89685531 C14.8783776,0.858967986 14.0075068,0 12.9552118,0 C11.9029167,0 11.0320247,0.823171537 11.0320247,1.89685531 Z" id="路径"/></g></g></g></svg>