<?xml version="1.0" encoding="UTF-8"?>
<svg width="29px" height="29px" viewBox="0 0 29 29" version="1.1" xmlns="http://www.w3.org/2000/svg" xmlns:xlink="http://www.w3.org/1999/xlink">
    <title>编组 9@4x</title>
    <defs>
        <radialGradient cx="40.8035778%" cy="31.5989425%" fx="40.8035778%" fy="31.5989425%" r="77.8288635%" id="radialGradient-1">
            <stop stop-color="#FDFEFF" offset="0%"></stop>
            <stop stop-color="#DAE0EA" offset="76.7414988%"></stop>
            <stop stop-color="#D4DCEB" offset="100%"></stop>
        </radialGradient>
    </defs>
    <g id="页面-1" stroke="none" stroke-width="1" fill="none" fill-rule="evenodd">
        <g id="A6-美妆类解决方案-商家落地页" transform="translate(-119.000000, -1112.000000)">
            <g id="编组-9" transform="translate(119.000000, 1112.000000)">
                <g id="编组-8" fill="url(#radialGradient-1)" opacity="0.795694041">
                    <g id="编组-5备份-3">
                        <circle id="椭圆形" cx="14.5" cy="14.5" r="14.5"></circle>
                    </g>
                </g>
                <g id="瓜子" transform="translate(5.000000, 8.604482)" fill="#FFFFFF" fill-rule="nonzero">
                    <g id="食物">
                        <path d="M0,2.47917047 L0,5.4581737 L12.5868896,8.85703645 L12.5868896,5.47816701 L0,2.47917047 Z M13.8182158,5.33821384 L13.8182158,13.3555313 C13.9745747,13.3821889 14.1504784,13.3955179 14.345927,13.3955179 C14.5153159,13.3955179 14.710765,13.3788568 14.9322728,13.3455346 C15.1537806,13.3122124 15.3948351,13.2422358 15.6554326,13.1356048 C15.9551198,13.015645 16.1929162,12.8490347 16.36882,12.6357721 C16.5447237,12.4225095 16.6782796,12.2159126 16.7694896,12.0159795 C16.8737288,11.7760597 16.9323634,11.5294762 16.9453933,11.276227 L17.5121943,2.7190902 C17.4209849,2.9190233 17.3037151,3.11229262 17.1603868,3.29889619 C17.0431176,3.47217161 16.9030455,3.65211199 16.7401723,3.83871557 C16.5772986,4.02531974 16.3851067,4.19193137 16.163599,4.33854833 C15.9030015,4.52515249 15.6326296,4.68176747 15.3524873,4.80839112 C15.0723449,4.93501535 14.821518,5.03831419 14.6000102,5.11828743 C14.3394127,5.21158961 14.0788133,5.28489828 13.8182158,5.33821384 L13.8182158,5.33821384 Z M0.175903737,1.53948489 L17.3558354,0 C17.3167457,0.373209109 17.2320514,0.73975248 17.1017522,1.09963206 C16.997513,1.4061955 16.847669,1.73275421 16.6522204,2.07930427 C16.4567719,2.42585433 16.1961744,2.73241972 15.8704261,2.99899654 C15.4404391,3.35887613 15.0397695,3.62878581 14.6684172,3.80872561 C14.2970649,3.9886654 13.9680604,4.11862192 13.6814018,4.19859516 C13.3426248,4.29189734 13.0364214,4.33854833 12.7627934,4.33854833 L0.175903737,1.53948489 Z M10.4955896,1.51949158 C10.3522607,1.51949158 10.2284759,1.57280714 10.1242373,1.67943806 C10.0199981,1.78606899 9.96787844,1.912694 9.96787844,2.05931096 C9.96787844,2.2059285 10.0199981,2.33255352 10.1242373,2.43918385 C10.2284765,2.54581478 10.3522613,2.59913033 10.4955896,2.59913033 C10.6389186,2.59913033 10.7627034,2.54581478 10.866942,2.43918385 C10.9711812,2.33255293 11.0233009,2.20592792 11.0233009,2.05931096 C11.0233009,1.91269341 10.9711812,1.7860684 10.866942,1.67943806 C10.7627028,1.57280714 10.638918,1.51949158 10.4955896,1.51949158 Z M12.5868896,2.47917047 C12.4305308,2.47917047 12.3002311,2.53581812 12.1959924,2.64911361 C12.0917533,2.7624091 12.0396336,2.8923662 12.0396336,3.03898316 C12.0396336,3.19892964 12.0917533,3.33221903 12.1959924,3.43884937 C12.3002316,3.54548029 12.4305308,3.59879585 12.5868896,3.59879585 C12.7302185,3.59879585 12.8572596,3.54548029 12.9680144,3.43884937 C13.0787687,3.33221844 13.1341457,3.19892964 13.1341457,3.03898316 C13.1341457,2.89236562 13.0787687,2.76240969 12.9680144,2.64911361 C12.8572601,2.53581812 12.730218,2.47917047 12.5868896,2.47917047 Z M13.2905046,0.999665513 C13.1471757,0.999665513 13.0233909,1.05298107 12.9191523,1.159612 C12.8149131,1.26624292 12.7627934,1.39286793 12.7627934,1.53948489 C12.7627934,1.68610243 12.8149131,1.81272745 12.9191523,1.91935779 C13.0233914,2.02598871 13.1471762,2.07930427 13.2905046,2.07930427 C13.4338335,2.07930427 13.5576183,2.02598871 13.6618569,1.91935779 C13.7660961,1.81272686 13.8182158,1.68610185 13.8182158,1.53948489 C13.8182158,1.39286735 13.7660961,1.26624233 13.6618569,1.159612 C13.5576177,1.05298107 13.4338329,0.999665513 13.2905046,0.999665513 Z M15.1472663,1.11962538 C15.0039373,1.11962538 14.8834106,1.16960865 14.7856863,1.2695752 C14.6879621,1.36954175 14.6390999,1.49283448 14.6390999,1.63945144 C14.6390999,1.78606899 14.6879621,1.912694 14.7856863,2.01932434 C14.8834106,2.12595526 15.0039379,2.17927082 15.1472663,2.17927082 C15.2905952,2.17927082 15.41438,2.12595526 15.5186186,2.01932434 C15.6228578,1.91269341 15.6749775,1.7860684 15.6749775,1.63945144 C15.6749775,1.4928339 15.6228578,1.36954175 15.5186186,1.2695752 C15.4143794,1.16960865 15.2905946,1.11962538 15.1472663,1.11962538 Z M8.15020649,1.51949158 C8.00687758,1.51949158 7.88309277,1.57280714 7.77885415,1.67943806 C7.67461497,1.78606899 7.62249528,1.912694 7.62249528,2.05931096 C7.62249528,2.2059285 7.67461497,2.33255352 7.77885415,2.43918385 C7.88309334,2.54581478 8.00687815,2.59913033 8.15020649,2.59913033 C8.2935354,2.59913033 8.41732021,2.54581478 8.52155882,2.43918385 C8.62579801,2.33255293 8.6779177,2.20592792 8.6779177,2.05931096 C8.6779177,1.91269341 8.62579801,1.7860684 8.52155882,1.67943806 C8.41731963,1.57280714 8.29353482,1.51949158 8.15020649,1.51949158 Z M12.5868896,10.0966217 L0,6.51781915 L0,8.09729066 C0,8.56380058 0.0846943283,8.92368017 0.254083176,9.17692941 C0.423472023,9.43017866 0.736190351,9.63677555 1.19223644,9.79672203 C1.24435613,9.82337971 1.44957773,9.89002421 1.80789952,9.99665513 C2.16622131,10.1032861 2.61575308,10.2432386 3.15649484,10.4165146 C3.69723659,10.5897901 4.30638345,10.783058 4.98393922,10.9963206 C5.66149499,11.2095833 6.3520794,11.4228439 7.05569435,11.6361066 C8.69746256,12.1559326 10.541188,12.7290749 12.5868896,13.3555313 L12.5868896,10.0966217 L12.5868896,10.0966217 Z" id="形状"></path>
                    </g>
                </g>
            </g>
        </g>
    </g>
</svg>