<?xml version="1.0" encoding="UTF-8"?>
<svg width="22px" height="18px" viewBox="0 0 22 18" version="1.1" xmlns="http://www.w3.org/2000/svg" xmlns:xlink="http://www.w3.org/1999/xlink">
    <title>微信@4x</title>
    <g id="页面-1" stroke="none" stroke-width="1" fill="none" fill-rule="evenodd">
        <g id="底部框架" transform="translate(-949.000000, -778.000000)" fill="#999999" fill-rule="nonzero">
            <g id="微信" transform="translate(949.000000, 778.000000)">
                <path d="M22,11.6820589 C22,8.72209732 19.2549549,6.31463704 15.7938015,6.19624741 C15.3959223,2.72323138 12.0144189,0 7.91678235,0 C3.54067983,0 0,3.03895342 0,6.82766696 C0,9.07721715 1.27308982,11.0505903 3.22237646,12.3134784 C3.46107926,12.4318926 2.50626808,14.4051922 2.7449956,14.5236309 C3.14287481,14.7604346 4.73416908,13.0633858 5.17176202,13.2212468 C6.04699736,13.4975465 6.96199589,13.6553584 7.956595,13.6553584 C8.43397586,13.6553584 8.91135672,13.6158871 9.38878704,13.5369443 C10.3038103,15.628658 12.6907888,17.1283499 15.4755723,17.1283499 C16.2314439,17.1283499 16.9873155,17.0099358 17.6636607,16.8126279 C17.8625508,16.7336606 19.4141066,18.0755897 19.6130215,17.9966469 C19.9710386,17.8782327 18.976489,16.299598 19.2947676,16.1022656 C20.9258992,15.1156035 22,13.4974729 22,11.6820098 L22,11.6820589 Z M13.0885691,10.300683 C12.730552,10.300683 12.4122981,9.98496095 12.4122981,9.62979205 C12.4122981,9.27462315 12.6908135,8.95890112 13.0885691,8.95890112 C13.4465862,8.95890112 13.7648401,9.27462315 13.7648401,9.62979205 C13.7648401,9.98496095 13.4863247,10.300683 13.0885691,10.300683 Z M8.99090783,11.6820589 C8.99090783,11.8398954 8.99090783,12.0372278 9.03069575,12.2345847 C8.67267865,12.2740561 8.31458737,12.313552 7.95657027,12.313552 C7.04154701,12.313552 6.16633639,12.1557156 5.37070162,11.8794404 C5.29110105,11.839969 5.01268452,11.7610262 4.85353284,11.8794404 C4.49551574,12.1162442 4.0579228,12.6687209 4.0579228,12.6687209 C4.0579228,12.6687209 4.21702502,12.2740071 4.29662559,11.7215548 C4.33641351,11.484751 3.93860849,11.2874431 3.85903265,11.2479718 C2.38707741,10.2613097 1.43226623,8.56426083 1.43226623,6.86716288 C1.43226623,3.82820946 4.33638878,1.38135138 7.95661972,1.38135138 C11.3381973,1.38135138 14.0832177,3.51251195 14.4412348,6.27514112 C11.3381726,6.70925279 8.99098202,8.95885205 8.99098202,11.6820344 L8.99090783,11.6820589 Z M17.2259688,10.300683 C16.8679517,10.300683 16.5496978,9.98496095 16.5496978,9.62979205 C16.5496978,9.27462315 16.8282133,8.95890112 17.2259688,8.95890112 C17.5839859,8.95890112 17.9022398,9.27462315 17.9022398,9.62979205 C17.9022398,9.98496095 17.6237244,10.300683 17.2259688,10.300683 Z" id="形状"></path>
                <path d="M10.7016153,5.44636464 C11.258572,5.44636464 11.7359529,4.97278158 11.7359529,4.42025574 C11.7359529,3.86772991 11.258572,3.39414685 10.7016153,3.39414685 C10.1446586,3.39414685 9.66727776,3.86772991 9.66727776,4.42025574 C9.66727776,5.01225296 10.1446586,5.44636464 10.7016153,5.44636464 Z M5.21154994,5.44636464 C5.76850664,5.44636464 6.24588751,4.97278158 6.24588751,4.42025574 C6.24588751,3.86772991 5.76850664,3.39414685 5.21154994,3.39414685 C4.65459324,3.39414685 4.17721237,3.86772991 4.17721237,4.42025574 C4.17721237,5.01225296 4.61480531,5.44636464 5.21154994,5.44636464 L5.21154994,5.44636464 Z" id="形状"></path>
            </g>
        </g>
    </g>
</svg>