<?xml version="1.0" encoding="UTF-8"?>
<svg width="62px" height="57px" viewBox="0 0 62 57" version="1.1" xmlns="http://www.w3.org/2000/svg" xmlns:xlink="http://www.w3.org/1999/xlink">
    <title>编组 9@4x</title>
    <defs>
        <filter x="-16.7%" y="-24.4%" width="137.5%" height="148.8%" filterUnits="objectBoundingBox" id="filter-1">
            <feOffset dx="0" dy="2" in="SourceAlpha" result="shadowOffsetOuter1"></feOffset>
            <feGaussianBlur stdDeviation="1" in="shadowOffsetOuter1" result="shadowBlurOuter1"></feGaussianBlur>
            <feColorMatrix values="0 0 0 0 0.235294118   0 0 0 0 0.431372549   0 0 0 0 0.941176471  0 0 0 0.319574956 0" type="matrix" in="shadowBlurOuter1" result="shadowMatrixOuter1"></feColorMatrix>
            <feMerge>
                <feMergeNode in="shadowMatrixOuter1"></feMergeNode>
                <feMergeNode in="SourceGraphic"></feMergeNode>
            </feMerge>
        </filter>
        <linearGradient x1="50%" y1="0%" x2="50%" y2="100%" id="linearGradient-2">
            <stop stop-color="#FFFFFF" stop-opacity="0.589051573" offset="0%"></stop>
            <stop stop-color="#FFFFFF" stop-opacity="0.12941177" offset="100%"></stop>
        </linearGradient>
        <path d="M24.2318132,26.1029382 L1.86189479,26.1029382 C0.835814084,26.1029382 0,25.2668285 0,24.2403848 L0,1.8625534 C0,0.83610974 0.835814084,0 1.86189479,0 L24.225018,0 C25.2510987,0 26.0869539,0.83610974 26.0869539,1.8625534 L26.0869539,24.2335872 C26.093708,25.2668285 25.2578939,26.1029382 24.2318132,26.1029382 Z" id="path-3"></path>
        <filter x="-3.8%" y="-3.8%" width="107.7%" height="107.7%" filterUnits="objectBoundingBox" id="filter-4">
            <feGaussianBlur stdDeviation="1" in="SourceAlpha" result="shadowBlurInner1"></feGaussianBlur>
            <feOffset dx="0" dy="0" in="shadowBlurInner1" result="shadowOffsetInner1"></feOffset>
            <feComposite in="shadowOffsetInner1" in2="SourceAlpha" operator="arithmetic" k2="-1" k3="1" result="shadowInnerInner1"></feComposite>
            <feColorMatrix values="0 0 0 0 1   0 0 0 0 1   0 0 0 0 1  0 0 0 0.29803923 0" type="matrix" in="shadowInnerInner1"></feColorMatrix>
        </filter>
        <filter x="-6.1%" y="-6.1%" width="112.3%" height="112.2%" filterUnits="objectBoundingBox" id="filter-5">
            <feOffset dx="0" dy="1" in="SourceAlpha" result="shadowOffsetOuter1"></feOffset>
            <feColorMatrix values="0 0 0 0 0.235294118   0 0 0 0 0.431372549   0 0 0 0 0.941176471  0 0 0 0.5 0" type="matrix" in="shadowOffsetOuter1" result="shadowMatrixOuter1"></feColorMatrix>
            <feMerge>
                <feMergeNode in="shadowMatrixOuter1"></feMergeNode>
                <feMergeNode in="SourceGraphic"></feMergeNode>
            </feMerge>
        </filter>
        <linearGradient x1="50%" y1="0%" x2="50%" y2="100%" id="linearGradient-6">
            <stop stop-color="#3C6EF0" offset="0%"></stop>
            <stop stop-color="#6E9AFF" offset="100%"></stop>
        </linearGradient>
        <linearGradient x1="50%" y1="0%" x2="50%" y2="100%" id="linearGradient-7">
            <stop stop-color="#FFFFFF" stop-opacity="0.589051573" offset="0%"></stop>
            <stop stop-color="#FFFFFF" stop-opacity="0.12941177" offset="100%"></stop>
        </linearGradient>
        <path d="M27.3955,28.7 L13.4045,28.7 C12.76275,28.7 12.24,28.1746875 12.24,27.5297917 L12.24,13.4702083 C12.24,12.8253125 12.76275,12.3 13.4045,12.3 L27.39125,12.3 C28.033,12.3 28.5557757,12.8253125 28.5557757,13.4702083 L28.5557757,27.5255208 C28.56,28.1746875 28.03725,28.7 27.3955,28.7 Z" id="path-8"></path>
        <filter x="-6.1%" y="-6.1%" width="112.3%" height="112.2%" filterUnits="objectBoundingBox" id="filter-9">
            <feGaussianBlur stdDeviation="1" in="SourceAlpha" result="shadowBlurInner1"></feGaussianBlur>
            <feOffset dx="0" dy="0" in="shadowBlurInner1" result="shadowOffsetInner1"></feOffset>
            <feComposite in="shadowOffsetInner1" in2="SourceAlpha" operator="arithmetic" k2="-1" k3="1" result="shadowInnerInner1"></feComposite>
            <feColorMatrix values="0 0 0 0 1   0 0 0 0 1   0 0 0 0 1  0 0 0 0.29803923 0" type="matrix" in="shadowInnerInner1"></feColorMatrix>
        </filter>
        <linearGradient x1="50%" y1="0%" x2="50%" y2="100%" id="linearGradient-10">
            <stop stop-color="#3C6EF0" offset="0%"></stop>
            <stop stop-color="#6E9AFF" offset="100%"></stop>
        </linearGradient>
    </defs>
    <g id="页面-1" stroke="none" stroke-width="1" fill="none" fill-rule="evenodd" opacity="0.5">
        <g id="合作伙伴" transform="translate(-195.000000, -272.000000)">
            <g id="编组-9" transform="translate(201.000000, 280.000000)">
                <g id="编组-12" filter="url(#filter-1)">
                    <g id="路径" transform="translate(0.000000, 1.808824)">
                        <use fill-opacity="0.2" fill="#7DCCFF" fill-rule="evenodd" xlink:href="#path-3"></use>
                        <use fill="black" fill-opacity="1" filter="url(#filter-4)" xlink:href="#path-3"></use>
                        <path stroke="url(#linearGradient-2)" stroke-width="0.5" d="M24.225018,0.25 C24.6691661,0.25 25.0720564,0.431107084 25.3639658,0.723113304 C25.6559019,1.01514626 25.8369539,1.41821154 25.8369539,1.8625534 L25.8369539,1.8625534 L25.8369592,24.2352213 C25.8398774,24.6816461 25.6610745,25.0855658 25.3707315,25.3781328 C25.0796067,25.6714876 24.6763666,25.8529382 24.2318132,25.8529382 L24.2318132,25.8529382 L1.86189479,25.8529382 C1.41775136,25.8529382 1.01487381,25.6718344 0.722975083,25.3798325 C0.431044317,25.0877984 0.25,24.6847299 0.25,24.2403848 L0.25,24.2403848 L0.25,1.8625534 C0.25,1.41820836 0.431044317,1.01513979 0.722975083,0.72310576 C1.01487381,0.431103782 1.41775136,0.25 1.86189479,0.25 L1.86189479,0.25 Z" stroke-linejoin="square"></path>
                    </g>
                    <g id="硬件芯片" filter="url(#filter-5)" transform="translate(7.200000, 0.000000)">
                        <path d="M1.3175,21.8666667 L4.08,21.8666667 L4.08,19.1333333 L1.3175,19.1333333 C0.59075,19.1333333 0,19.7269792 0,20.4572917 L0,20.5427083 C0,21.2730208 0.59075,21.8666667 1.3175,21.8666667 Z M1.3175,13.6666667 L4.08,13.6666667 L4.08,10.9333333 L1.3175,10.9333333 C0.59075,10.9333333 0,11.5269792 0,12.2572917 L0,12.3427083 C0,13.0730208 0.59075,13.6666667 1.3175,13.6666667 Z M21.76,4.1 L21.76,1.32395833 C21.76,0.593645833 21.16925,0 20.4425,0 L20.3575,0 C19.63075,0 19.04,0.593645833 19.04,1.32395833 L19.04,4.1 L21.76,4.1 Z M29.92,4.1 L29.92,1.32395833 C29.92,0.593645833 29.32925,0 28.6025,0 L28.5175,0 C27.79075,0 27.2,0.593645833 27.2,1.32395833 L27.2,4.1 L29.92,4.1 Z M4.08,27.3333333 L1.3175,27.3333333 C0.59075,27.3333333 0,27.9269792 0,28.6572917 L0,28.7427083 C0,29.4730208 0.59075,30.0666667 1.3175,30.0666667 L4.08,30.0666667 L4.08,27.3333333 Z M13.6,4.1 L13.6,1.32395833 C13.6,0.593645833 13.00925,0 12.2825,0 L12.1975,0 C11.47075,0 10.88,0.593645833 10.88,1.32395833 L10.88,4.1 L13.6,4.1 Z M39.4825,19.1333333 L36.72,19.1333333 L36.72,21.8666667 L39.4825,21.8666667 C40.20925,21.8666667 40.8,21.2730208 40.8,20.5427083 L40.8,20.4572917 C40.8,19.7269792 40.20925,19.1333333 39.4825,19.1333333 Z M39.4825,10.9333333 L36.72,10.9333333 L36.72,13.6666667 L39.4825,13.6666667 C40.20925,13.6666667 40.8,13.0730208 40.8,12.3427083 L40.8,12.2572917 C40.8,11.5269792 40.20925,10.9333333 39.4825,10.9333333 Z M39.4825,27.3333333 L36.72,27.3333333 L36.72,30.0666667 L39.4825,30.0666667 C40.20925,30.0666667 40.8,29.4730208 40.8,28.7427083 L40.8,28.6572917 C40.8,27.9269792 40.20925,27.3333333 39.4825,27.3333333 Z M27.2,36.9 L27.2,39.6760417 C27.2,40.4063542 27.79075,41 28.5175,41 L28.6025,41 C29.32925,41 29.92,40.4063542 29.92,39.6760417 L29.92,36.9 L27.2,36.9 Z M19.04,36.9 L19.04,39.6760417 C19.04,40.4063542 19.63075,41 20.3575,41 L20.4425,41 C21.16925,41 21.76,40.4063542 21.76,39.6760417 L21.76,36.9 L19.04,36.9 Z M10.88,36.9 L10.88,39.6760417 C10.88,40.4063542 11.47075,41 12.1975,41 L12.2825,41 C13.00925,41 13.6,40.4063542 13.6,39.6760417 L13.6,36.9 L10.88,36.9 Z M32.64,5.46666667 L8.16,5.46666667 C6.65975,5.46666667 5.44,6.69239583 5.44,8.2 L5.44,32.8 C5.44,34.3076042 6.65975,35.5333333 8.16,35.5333333 L32.64,35.5333333 C34.14025,35.5333333 35.36,34.3076042 35.36,32.8 L35.36,8.2 C35.36,6.69239583 34.14025,5.46666667 32.64,5.46666667 Z M31.28,30.0666667 C31.28,30.8226042 30.67225,31.4333333 29.92,31.4333333 L10.88,31.4333333 C10.12775,31.4333333 9.52,30.8226042 9.52,30.0666667 L9.52,10.9333333 C9.52,10.1773958 10.12775,9.56666667 10.88,9.56666667 L29.92,9.56666667 C30.67225,9.56666667 31.28,10.1773958 31.28,10.9333333 L31.28,30.0666667 Z" id="形状" fill="url(#linearGradient-6)" fill-rule="nonzero"></path>
                        <g id="路径">
                            <use fill-opacity="0.2" fill="#7DCCFF" fill-rule="evenodd" xlink:href="#path-8"></use>
                            <use fill="black" fill-opacity="1" filter="url(#filter-9)" xlink:href="#path-8"></use>
                            <path stroke="url(#linearGradient-7)" stroke-width="0.5" d="M27.39125,12.55 C27.6431031,12.55 27.8714708,12.6533147 28.0369662,12.8196177 C28.2028997,12.9863609 28.3057757,13.2165096 28.3057757,13.4702083 L28.3057757,13.4702083 L28.305781,27.5271476 C28.3074391,27.7819517 28.2059459,28.0125534 28.040958,28.179561 C27.8759692,28.3465695 27.6474773,28.45 27.3955,28.45 L27.3955,28.45 L13.4045,28.45 C13.1526505,28.45 12.9242909,28.3466878 12.7588021,28.1803878 C12.5928714,28.0136437 12.49,27.7834925 12.49,27.5297917 L12.49,27.5297917 L12.49,13.4702083 C12.49,13.2165075 12.5928714,12.9863563 12.7588021,12.8196122 C12.9242909,12.6533122 13.1526505,12.55 13.4045,12.55 L13.4045,12.55 Z" stroke-linejoin="square"></path>
                        </g>
                    </g>
                </g>
                <path d="M35.8346163,30.1470588 L19.3703547,30.1470588 C18.6151592,30.1470588 18,29.5290441 18,28.7703431 L18,12.2296569 C18,11.4709559 18.6151592,10.8529412 19.3703547,10.8529412 L35.829615,10.8529412 C36.5848105,10.8529412 37.2,11.4709559 37.2,12.2296569 L37.2,28.7653186 C37.204971,29.5290441 36.5898118,30.1470588 35.8346163,30.1470588 Z" id="路径" fill="url(#linearGradient-10)" fill-rule="nonzero"></path>
                <text id="API" opacity="0.672056686" font-family="PingFangSC-Semibold, PingFang SC" font-size="9.6" font-weight="500" letter-spacing="-0.00096011383" fill="#FFFFFF">
                    <tspan x="19.8657482" y="23.8995098">API</tspan>
                </text>
            </g>
        </g>
    </g>
</svg>