<?xml version="1.0" encoding="UTF-8"?>
<svg width="101px" height="92px" viewBox="0 0 101 92" version="1.1" xmlns="http://www.w3.org/2000/svg" xmlns:xlink="http://www.w3.org/1999/xlink">
    <title>编组 9@4x</title>
    <defs>
        <filter x="-15.0%" y="-22.1%" width="133.8%" height="144.1%" filterUnits="objectBoundingBox" id="filter-1">
            <feOffset dx="0" dy="3" in="SourceAlpha" result="shadowOffsetOuter1"></feOffset>
            <feGaussianBlur stdDeviation="1.5" in="shadowOffsetOuter1" result="shadowBlurOuter1"></feGaussianBlur>
            <feColorMatrix values="0 0 0 0 0.235294118   0 0 0 0 0.431372549   0 0 0 0 0.941176471  0 0 0 0.319574956 0" type="matrix" in="shadowBlurOuter1" result="shadowMatrixOuter1"></feColorMatrix>
            <feMerge>
                <feMergeNode in="shadowMatrixOuter1"></feMergeNode>
                <feMergeNode in="SourceGraphic"></feMergeNode>
            </feMerge>
        </filter>
        <linearGradient x1="50%" y1="0%" x2="50%" y2="100%" id="linearGradient-2">
            <stop stop-color="#FFFFFF" stop-opacity="0.589051573" offset="0%"></stop>
            <stop stop-color="#FFFFFF" stop-opacity="0.12941177" offset="100%"></stop>
        </linearGradient>
        <path d="M40.3863553,43.292678 L3.10315798,43.292678 C1.39302347,43.292678 0,41.9059594 0,40.203565 L0,3.08911296 C0,1.38671859 1.39302347,0 3.10315798,0 L40.3750299,0 C42.0851644,0 43.4782565,1.38671859 43.4782565,3.08911296 L43.4782565,40.1922909 C43.4895133,41.9059594 42.0964898,43.292678 40.3863553,43.292678 Z" id="path-3"></path>
        <filter x="-4.6%" y="-4.6%" width="109.2%" height="109.2%" filterUnits="objectBoundingBox" id="filter-4">
            <feGaussianBlur stdDeviation="2" in="SourceAlpha" result="shadowBlurInner1"></feGaussianBlur>
            <feOffset dx="0" dy="0" in="shadowBlurInner1" result="shadowOffsetInner1"></feOffset>
            <feComposite in="shadowOffsetInner1" in2="SourceAlpha" operator="arithmetic" k2="-1" k3="1" result="shadowInnerInner1"></feComposite>
            <feColorMatrix values="0 0 0 0 1   0 0 0 0 1   0 0 0 0 1  0 0 0 0.29803923 0" type="matrix" in="shadowInnerInner1"></feColorMatrix>
        </filter>
        <filter x="-5.9%" y="-5.9%" width="111.8%" height="111.8%" filterUnits="objectBoundingBox" id="filter-5">
            <feOffset dx="0" dy="2" in="SourceAlpha" result="shadowOffsetOuter1"></feOffset>
            <feColorMatrix values="0 0 0 0 0.235294118   0 0 0 0 0.431372549   0 0 0 0 0.941176471  0 0 0 0.5 0" type="matrix" in="shadowOffsetOuter1" result="shadowMatrixOuter1"></feColorMatrix>
            <feMerge>
                <feMergeNode in="shadowMatrixOuter1"></feMergeNode>
                <feMergeNode in="SourceGraphic"></feMergeNode>
            </feMerge>
        </filter>
        <linearGradient x1="50%" y1="0%" x2="50%" y2="100%" id="linearGradient-6">
            <stop stop-color="#3C6EF0" offset="0%"></stop>
            <stop stop-color="#6E9AFF" offset="100%"></stop>
        </linearGradient>
        <linearGradient x1="50%" y1="0%" x2="50%" y2="100%" id="linearGradient-7">
            <stop stop-color="#FFFFFF" stop-opacity="0.589051573" offset="0%"></stop>
            <stop stop-color="#FFFFFF" stop-opacity="0.12941177" offset="100%"></stop>
        </linearGradient>
        <path d="M45.6591667,47.6 L22.3408333,47.6 C21.27125,47.6 20.4,46.72875 20.4,45.6591667 L20.4,22.3408333 C20.4,21.27125 21.27125,20.4 22.3408333,20.4 L45.6520833,20.4 C46.7216667,20.4 47.5929596,21.27125 47.5929596,22.3408333 L47.5929596,45.6520833 C47.6,46.72875 46.72875,47.6 45.6591667,47.6 Z" id="path-8"></path>
        <filter x="-7.4%" y="-7.4%" width="114.7%" height="114.7%" filterUnits="objectBoundingBox" id="filter-9">
            <feGaussianBlur stdDeviation="2" in="SourceAlpha" result="shadowBlurInner1"></feGaussianBlur>
            <feOffset dx="0" dy="0" in="shadowBlurInner1" result="shadowOffsetInner1"></feOffset>
            <feComposite in="shadowOffsetInner1" in2="SourceAlpha" operator="arithmetic" k2="-1" k3="1" result="shadowInnerInner1"></feComposite>
            <feColorMatrix values="0 0 0 0 1   0 0 0 0 1   0 0 0 0 1  0 0 0 0.29803923 0" type="matrix" in="shadowInnerInner1"></feColorMatrix>
        </filter>
    </defs>
    <g id="页面-1" stroke="none" stroke-width="1" fill="none" fill-rule="evenodd">
        <g id="首页设计稿-无顶图" transform="translate(-113.000000, -1867.000000)">
            <g id="编组-9" transform="translate(122.000000, 1879.000000)">
                <g id="编组-12" filter="url(#filter-1)">
                    <g id="路径" transform="translate(0.000000, 3.000000)">
                        <use fill-opacity="0.2" fill="#7DCCFF" fill-rule="evenodd" xlink:href="#path-3"></use>
                        <use fill="black" fill-opacity="1" filter="url(#filter-4)" xlink:href="#path-3"></use>
                        <path stroke="url(#linearGradient-2)" stroke-width="0.568216399" d="M40.3750299,0.284108199 C41.151966,0.284108199 41.8568473,0.599173377 42.3675165,1.10752006 C42.8777095,1.61539267 43.1941483,2.31635241 43.1941483,3.08911296 L43.1941483,3.08911296 L43.1941544,40.1941571 C43.1992551,40.9706586 42.8865983,41.6731534 42.3791323,42.1820122 C41.8697483,42.6927943 41.16415,43.0085698 40.3863553,43.0085698 L40.3863553,43.0085698 L3.10315798,43.0085698 C2.32622871,43.0085698 1.62136859,42.6935096 1.11071721,42.1851694 C0.600534023,41.6772954 0.284108199,40.9763307 0.284108199,40.203565 L0.284108199,40.203565 L0.284108199,3.08911296 C0.284108199,2.31634732 0.600534023,1.61538265 1.11071721,1.10750857 C1.62136859,0.599168419 2.32622871,0.284108199 3.10315798,0.284108199 L3.10315798,0.284108199 Z" stroke-linejoin="square"></path>
                    </g>
                    <g id="硬件芯片" filter="url(#filter-5)" transform="translate(12.000000, 0.000000)">
                        <path d="M2.19583333,36.2666667 L6.8,36.2666667 L6.8,31.7333333 L2.19583333,31.7333333 C0.984583333,31.7333333 0,32.7179167 0,33.9291667 L0,34.0708333 C0,35.2820833 0.984583333,36.2666667 2.19583333,36.2666667 Z M2.19583333,22.6666667 L6.8,22.6666667 L6.8,18.1333333 L2.19583333,18.1333333 C0.984583333,18.1333333 0,19.1179167 0,20.3291667 L0,20.4708333 C0,21.6820833 0.984583333,22.6666667 2.19583333,22.6666667 Z M36.2666667,6.8 L36.2666667,2.19583333 C36.2666667,0.984583333 35.2820833,0 34.0708333,0 L33.9291667,0 C32.7179167,0 31.7333333,0.984583333 31.7333333,2.19583333 L31.7333333,6.8 L36.2666667,6.8 Z M49.8666667,6.8 L49.8666667,2.19583333 C49.8666667,0.984583333 48.8820833,0 47.6708333,0 L47.5291667,0 C46.3179167,0 45.3333333,0.984583333 45.3333333,2.19583333 L45.3333333,6.8 L49.8666667,6.8 Z M6.8,45.3333333 L2.19583333,45.3333333 C0.984583333,45.3333333 0,46.3179167 0,47.5291667 L0,47.6708333 C0,48.8820833 0.984583333,49.8666667 2.19583333,49.8666667 L6.8,49.8666667 L6.8,45.3333333 Z M22.6666667,6.8 L22.6666667,2.19583333 C22.6666667,0.984583333 21.6820833,0 20.4708333,0 L20.3291667,0 C19.1179167,0 18.1333333,0.984583333 18.1333333,2.19583333 L18.1333333,6.8 L22.6666667,6.8 Z M65.8041667,31.7333333 L61.2,31.7333333 L61.2,36.2666667 L65.8041667,36.2666667 C67.0154167,36.2666667 68,35.2820833 68,34.0708333 L68,33.9291667 C68,32.7179167 67.0154167,31.7333333 65.8041667,31.7333333 Z M65.8041667,18.1333333 L61.2,18.1333333 L61.2,22.6666667 L65.8041667,22.6666667 C67.0154167,22.6666667 68,21.6820833 68,20.4708333 L68,20.3291667 C68,19.1179167 67.0154167,18.1333333 65.8041667,18.1333333 Z M65.8041667,45.3333333 L61.2,45.3333333 L61.2,49.8666667 L65.8041667,49.8666667 C67.0154167,49.8666667 68,48.8820833 68,47.6708333 L68,47.5291667 C68,46.3179167 67.0154167,45.3333333 65.8041667,45.3333333 Z M45.3333333,61.2 L45.3333333,65.8041667 C45.3333333,67.0154167 46.3179167,68 47.5291667,68 L47.6708333,68 C48.8820833,68 49.8666667,67.0154167 49.8666667,65.8041667 L49.8666667,61.2 L45.3333333,61.2 Z M31.7333333,61.2 L31.7333333,65.8041667 C31.7333333,67.0154167 32.7179167,68 33.9291667,68 L34.0708333,68 C35.2820833,68 36.2666667,67.0154167 36.2666667,65.8041667 L36.2666667,61.2 L31.7333333,61.2 Z M18.1333333,61.2 L18.1333333,65.8041667 C18.1333333,67.0154167 19.1179167,68 20.3291667,68 L20.4708333,68 C21.6820833,68 22.6666667,67.0154167 22.6666667,65.8041667 L22.6666667,61.2 L18.1333333,61.2 Z M54.4,9.06666667 L13.6,9.06666667 C11.0995833,9.06666667 9.06666667,11.0995833 9.06666667,13.6 L9.06666667,54.4 C9.06666667,56.9004167 11.0995833,58.9333333 13.6,58.9333333 L54.4,58.9333333 C56.9004167,58.9333333 58.9333333,56.9004167 58.9333333,54.4 L58.9333333,13.6 C58.9333333,11.0995833 56.9004167,9.06666667 54.4,9.06666667 Z M52.1333333,49.8666667 C52.1333333,51.1204167 51.1204167,52.1333333 49.8666667,52.1333333 L18.1333333,52.1333333 C16.8795833,52.1333333 15.8666667,51.1204167 15.8666667,49.8666667 L15.8666667,18.1333333 C15.8666667,16.8795833 16.8795833,15.8666667 18.1333333,15.8666667 L49.8666667,15.8666667 C51.1204167,15.8666667 52.1333333,16.8795833 52.1333333,18.1333333 L52.1333333,49.8666667 Z" id="形状" fill="url(#linearGradient-6)" fill-rule="nonzero"></path>
                        <g id="路径">
                            <use fill-opacity="0.2" fill="#7DCCFF" fill-rule="evenodd" xlink:href="#path-8"></use>
                            <use fill="black" fill-opacity="1" filter="url(#filter-9)" xlink:href="#path-8"></use>
                            <path stroke="url(#linearGradient-7)" stroke-width="0.568216399" d="M45.6520833,20.6841082 C46.1085948,20.6841082 46.5226951,20.8701991 46.8227284,21.1702258 C47.122756,21.4702468 47.3088514,21.8843303 47.3088514,22.3408333 L47.3088514,22.3408333 L47.3088574,45.6539411 C47.3118564,46.1125615 47.1280997,46.5275132 46.8297203,46.8280719 C46.530509,47.1294685 46.1160679,47.3158918 45.6591667,47.3158918 L45.6591667,47.3158918 L22.3408333,47.3158918 C21.884327,47.3158918 21.47024,47.1298044 21.1702178,46.8297822 C20.8701956,46.52976 20.6841082,46.115673 20.6841082,45.6591667 L20.6841082,45.6591667 L20.6841082,22.3408333 C20.6841082,21.884327 20.8701956,21.47024 21.1702178,21.1702178 C21.47024,20.8701956 21.884327,20.6841082 22.3408333,20.6841082 L22.3408333,20.6841082 Z" stroke-linejoin="square"></path>
                        </g>
                    </g>
                </g>
                <path d="M59.7243605,50 L32.2839245,50 C31.0252654,50 30,48.975 30,47.7166667 L30,20.2833333 C30,19.025 31.0252654,18 32.2839245,18 L59.716025,18 C60.9746842,18 62,19.025 62,20.2833333 L62,47.7083333 C62.008285,48.975 60.9830196,50 59.7243605,50 Z" id="路径" fill="url(#linearGradient-6)" fill-rule="nonzero"></path>
                <text id="API" opacity="0.672056686" font-family="PingFangSC-Semibold, PingFang SC" font-size="16" font-weight="500" letter-spacing="-0.00160018971" fill="#FFFFFF">
                    <tspan x="33.1095803" y="40">API</tspan>
                </text>
            </g>
        </g>
    </g>
</svg>