<?xml version="1.0" encoding="UTF-8"?>
<svg width="95px" height="95px" viewBox="0 0 95 95" version="1.1" xmlns="http://www.w3.org/2000/svg" xmlns:xlink="http://www.w3.org/1999/xlink">
    <title>编组 18备份@4x</title>
    <defs>
        <filter x="-16.2%" y="-16.2%" width="136.5%" height="136.5%" filterUnits="objectBoundingBox" id="filter-1">
            <feOffset dx="0" dy="3" in="SourceAlpha" result="shadowOffsetOuter1"></feOffset>
            <feGaussianBlur stdDeviation="1.5" in="shadowOffsetOuter1" result="shadowBlurOuter1"></feGaussianBlur>
            <feColorMatrix values="0 0 0 0 0.235294118   0 0 0 0 0.431372549   0 0 0 0 0.941176471  0 0 0 0.319574956 0" type="matrix" in="shadowBlurOuter1" result="shadowMatrixOuter1"></feColorMatrix>
            <feMerge>
                <feMergeNode in="shadowMatrixOuter1"></feMergeNode>
                <feMergeNode in="SourceGraphic"></feMergeNode>
            </feMerge>
        </filter>
        <linearGradient x1="50%" y1="0%" x2="50%" y2="100%" id="linearGradient-2">
            <stop stop-color="#FFFFFF" stop-opacity="0.589051573" offset="0%"></stop>
            <stop stop-color="#FFFFFF" stop-opacity="0.12941177" offset="100%"></stop>
        </linearGradient>
        <path d="M20.0376049,37.4931883 L6.71681351,14.1796768 L20.0000629,23.0641005 L33.3584487,14.1715097 L20.0376573,37.495893 L20.0376049,37.4931883 Z M37.1248622,5.69436957 C26.0402821,5.69436957 21.1382766,0.554316296 21.0980081,0.483718628 C20.5595558,-0.115492008 19.6372978,-0.164746355 19.0380871,0.373705964 C18.995195,0.412248965 18.9546262,0.453301543 18.9165943,0.496647537 L18.8993493,0.516302167 L18.8993493,0.516302167 C18.8644499,0.554316296 13.67787,6.08536143 1.55973236,5.69708486 C0.739282448,5.65709251 0.0417561671,6.28977836 0.00176380753,7.11022827 C0.000588110203,7.1343479 2.17459281e-15,7.15849258 0,7.18264085 L0,28.9372728 L0,28.9372728 C0,35.0466864 2.0268467,43.9582631 19.4657715,50.7818204 L20.0026846,50.999044 L20.5342285,50.7818204 C38.0107477,43.9664302 40,35.0520958 40,28.9426822 L40,7.14965009 C40,6.32412793 39.3307821,5.65491 38.5052599,5.65491 C38.4835881,5.65491 38.4619189,5.65538132 38.4402676,5.65632362 L38.4402676,5.65632362 L38.4402676,5.65632362 C37.9785539,5.69436957 37.5490235,5.69436957 37.1248622,5.69436957 Z" id="path-3"></path>
        <filter x="-5.0%" y="-3.9%" width="110.0%" height="107.8%" filterUnits="objectBoundingBox" id="filter-4">
            <feGaussianBlur stdDeviation="2" in="SourceAlpha" result="shadowBlurInner1"></feGaussianBlur>
            <feOffset dx="0" dy="0" in="shadowBlurInner1" result="shadowOffsetInner1"></feOffset>
            <feComposite in="shadowOffsetInner1" in2="SourceAlpha" operator="arithmetic" k2="-1" k3="1" result="shadowInnerInner1"></feComposite>
            <feColorMatrix values="0 0 0 0 1   0 0 0 0 1   0 0 0 0 1  0 0 0 0.29803923 0" type="matrix" in="shadowInnerInner1"></feColorMatrix>
        </filter>
        <filter x="-8.2%" y="-6.4%" width="116.3%" height="112.9%" filterUnits="objectBoundingBox" id="filter-5">
            <feOffset dx="0" dy="2" in="SourceAlpha" result="shadowOffsetOuter1"></feOffset>
            <feColorMatrix values="0 0 0 0 0.235294118   0 0 0 0 0.431372549   0 0 0 0 0.941176471  0 0 0 0.5 0" type="matrix" in="shadowOffsetOuter1" result="shadowMatrixOuter1"></feColorMatrix>
            <feMerge>
                <feMergeNode in="shadowMatrixOuter1"></feMergeNode>
                <feMergeNode in="SourceGraphic"></feMergeNode>
            </feMerge>
        </filter>
        <linearGradient x1="50%" y1="0%" x2="50%" y2="100%" id="linearGradient-6">
            <stop stop-color="#3C6EF0" offset="0%"></stop>
            <stop stop-color="#6E9AFF" offset="100%"></stop>
        </linearGradient>
    </defs>
    <g id="页面-1" stroke="none" stroke-width="1" fill="none" fill-rule="evenodd">
        <g id="首页设计稿-无顶图" transform="translate(-971.000000, -2175.000000)">
            <g id="编组-18备份" filter="url(#filter-1)" transform="translate(980.000000, 2184.000956)">
                <g id="形状">
                    <use fill-opacity="0.2" fill="#7DCCFF" fill-rule="evenodd" xlink:href="#path-3"></use>
                    <use fill="black" fill-opacity="1" filter="url(#filter-4)" xlink:href="#path-3"></use>
                    <path stroke="url(#linearGradient-2)" stroke-width="0.626046079" d="M20.0522224,0.33040108 C20.3166738,0.328833716 20.5682356,0.421795327 20.7691289,0.597970524 L20.8651782,0.692940203 L20.8313491,0.645662442 C20.9548641,0.794533623 23.1620654,3.09848916 27.8986118,4.63843516 C30.3023845,5.41994977 33.3607976,6.00739261 37.1248622,6.00739261 C37.4475241,6.00739261 37.773224,6.00721791 38.1133272,5.9910182 L38.4586523,5.96888977 L38.4761597,5.96826798 L38.5052599,5.96793304 C38.8315821,5.96793304 39.1270113,6.10020123 39.34086,6.31404995 C39.524159,6.49734886 39.6475211,6.74058449 39.6790267,7.01183692 L39.686977,7.14965009 L39.686977,28.9426822 C39.686977,32.4351352 39.0275804,36.8605315 35.0970452,41.2702977 C32.3178191,44.3883813 27.914113,47.4933387 20.9833247,50.2678313 L20.4158133,50.4920597 L20.0020861,50.6611357 L19.5798316,50.4903179 C12.3356177,47.6557791 7.76891861,44.4630689 4.91261574,41.2577172 C1.08262445,36.9596894 0.348628365,32.6489717 0.314322305,29.2008066 L0.313023039,28.9372792 L0.313463943,7.15203055 L0.314415634,7.12546831 C0.330203395,6.80157977 0.475778299,6.51475298 0.698378397,6.31284527 C0.920978496,6.11093757 1.22060379,5.99394893 1.54970795,6.00994735 C12.6873455,6.36680777 18.0367668,1.77662925 18.9721359,0.88520103 L19.0116175,0.847258987 L19.1124754,0.746439196 C19.4192793,0.463439071 19.7421935,0.332238574 20.0522224,0.33040108 Z M34.2865218,13.1776594 L20.0004731,22.6877895 L5.78515438,13.1799566 L20.0377054,38.1269921 L34.2865218,13.1776594 Z" stroke-linejoin="square"></path>
                </g>
                <g id="稳定" filter="url(#filter-5)" transform="translate(25.000000, 11.896737)" fill="url(#linearGradient-6)" fill-rule="nonzero">
                    <path d="M24.546066,45.6563309 L8.22809654,17.2676474 L24.5000771,28.0861418 L40.8640997,17.2577024 L24.5461302,45.6596244 L24.546066,45.6563309 Z M45.4779562,6.93515409 C31.8993456,6.93515409 25.8943888,0.67615079 25.84506,0.590184553 C25.1814977,-0.143848168 24.0485231,-0.200975752 23.3144904,0.462586522 C23.2645826,0.507702905 23.2172557,0.555594567 23.1727345,0.606033955 L23.1517028,0.629861278 L23.1517028,0.629861278 C23.1089511,0.67615079 16.7553908,7.41126187 1.91067214,6.93846048 C0.905329049,6.88974795 0.050848132,7.66525024 0.0021355976,8.67059334 C0.000712074472,8.69997241 -3.6021199e-18,8.72938164 0,8.75879518 L0,35.2378585 L0,35.2378585 C0,42.6772443 2.48288721,53.5288026 23.8455701,61.8377959 L24.5032886,62.1023074 L25.1544299,61.8377959 C46.5631659,53.5387477 49,42.6838313 49,35.2444454 L49,8.71862532 C49,7.70710971 48.1800046,6.88711429 47.168489,6.88711429 C47.1420927,6.88711429 47.1156995,6.88768494 47.0893279,6.88882583 L47.0893279,6.88882583 L47.0893279,6.88882583 C46.5237285,6.93515409 45.9975537,6.93515409 45.4779562,6.93515409 Z" id="形状"></path>
                </g>
            </g>
        </g>
    </g>
</svg>