<?xml version="1.0" encoding="UTF-8"?>
<svg width="98px" height="92px" viewBox="0 0 98 92" version="1.1" xmlns="http://www.w3.org/2000/svg" xmlns:xlink="http://www.w3.org/1999/xlink">
    <title>编组 11@4x</title>
    <defs>
        <filter x="-15.6%" y="-16.9%" width="135.1%" height="138.0%" filterUnits="objectBoundingBox" id="filter-1">
            <feOffset dx="0" dy="3" in="SourceAlpha" result="shadowOffsetOuter1"></feOffset>
            <feGaussianBlur stdDeviation="1.5" in="shadowOffsetOuter1" result="shadowBlurOuter1"></feGaussianBlur>
            <feColorMatrix values="0 0 0 0 0.235294118   0 0 0 0 0.431372549   0 0 0 0 0.941176471  0 0 0 0.319574956 0" type="matrix" in="shadowBlurOuter1" result="shadowMatrixOuter1"></feColorMatrix>
            <feMerge>
                <feMergeNode in="shadowMatrixOuter1"></feMergeNode>
                <feMergeNode in="SourceGraphic"></feMergeNode>
            </feMerge>
        </filter>
        <linearGradient x1="50%" y1="0%" x2="50%" y2="100%" id="linearGradient-2">
            <stop stop-color="#FFFFFF" stop-opacity="0.589051573" offset="0%"></stop>
            <stop stop-color="#FFFFFF" stop-opacity="0.12941177" offset="100%"></stop>
        </linearGradient>
        <path d="M46.5000412,0 L3.5,0 C1.24999868,0 0,2.74658397 0,4.99377436 L0,35.7053763 C0,38.2022565 1.24999868,39.9500673 3.5,39.9500673 L20,39.9500673 L20,44.9438218 L15.2500038,44.9438218 C14.7500038,44.9438218 15,45.942575 15,46.4419487 L15,49.4382025 C15,50.187266 14.7500032,49.937578 15.2500038,49.937578 L34.5,49.937578 C35,49.937578 34.7499944,50.187266 34.7499944,49.68789 L34.7499944,46.6916361 C34.7499944,46.1922607 35,45.1935092 34.5,45.1935092 L30,45.1935092 L30,40.1997547 L46.5,40.1997547 C49,40.1997547 50,38.451938 50,35.9550637 L50,4.99375446 C50,2.74656408 48.7500013,0 46.5,0 L46.5000412,0 Z M41.7500368,20.7240895 C37.2500345,26.4669074 31.5000512,29.9625584 25.0000088,29.9625584 C18.500025,29.9625584 12.749983,26.4669308 8.24998075,20.7240895 C7.99998043,20.2247141 7.99998043,19.4756524 8.24998075,19.2259626 C12.749983,13.4831447 18.4999664,9.73784491 25.0000088,9.73784491 C31.4999926,9.73784491 37.2500345,13.2334724 41.7500368,18.9763138 C42.0000371,19.4756892 42.0000371,20.2247509 41.7500368,20.7241305 L41.7500368,20.7240895 Z" id="path-3"></path>
        <filter x="-4.0%" y="-4.0%" width="108.0%" height="108.0%" filterUnits="objectBoundingBox" id="filter-4">
            <feGaussianBlur stdDeviation="2" in="SourceAlpha" result="shadowBlurInner1"></feGaussianBlur>
            <feOffset dx="0" dy="0" in="shadowBlurInner1" result="shadowOffsetInner1"></feOffset>
            <feComposite in="shadowOffsetInner1" in2="SourceAlpha" operator="arithmetic" k2="-1" k3="1" result="shadowInnerInner1"></feComposite>
            <feColorMatrix values="0 0 0 0 1   0 0 0 0 1   0 0 0 0 1  0 0 0 0.29803923 0" type="matrix" in="shadowInnerInner1"></feColorMatrix>
        </filter>
        <filter x="-6.8%" y="-6.8%" width="113.6%" height="113.6%" filterUnits="objectBoundingBox" id="filter-5">
            <feOffset dx="0" dy="2" in="SourceAlpha" result="shadowOffsetOuter1"></feOffset>
            <feColorMatrix values="0 0 0 0 0.235294118   0 0 0 0 0.431372549   0 0 0 0 0.941176471  0 0 0 0.5 0" type="matrix" in="shadowOffsetOuter1" result="shadowMatrixOuter1"></feColorMatrix>
            <feMerge>
                <feMergeNode in="shadowMatrixOuter1"></feMergeNode>
                <feMergeNode in="SourceGraphic"></feMergeNode>
            </feMerge>
        </filter>
        <linearGradient x1="50%" y1="0%" x2="50%" y2="100%" id="linearGradient-6">
            <stop stop-color="#3C6EF0" offset="0%"></stop>
            <stop stop-color="#6E9AFF" offset="100%"></stop>
        </linearGradient>
        <linearGradient x1="50%" y1="0%" x2="50%" y2="100%" id="linearGradient-7">
            <stop stop-color="#3C6EF0" offset="0%"></stop>
            <stop stop-color="#6E9AFF" offset="100%"></stop>
        </linearGradient>
    </defs>
    <g id="页面-1" stroke="none" stroke-width="1" fill="none" fill-rule="evenodd">
        <g id="首页设计稿-无顶图" transform="translate(-398.000000, -1867.000000)">
            <g id="编组-11" filter="url(#filter-1)" transform="translate(407.000000, 1876.000000)">
                <g id="形状">
                    <use fill-opacity="0.2" fill="#7DCCFF" fill-rule="evenodd" xlink:href="#path-3"></use>
                    <use fill="black" fill-opacity="1" filter="url(#filter-4)" xlink:href="#path-3"></use>
                    <path stroke="url(#linearGradient-2)" stroke-width="0.568216399" d="M46.5,0.284108199 C47.43423,0.284108199 48.1706005,0.816359635 48.7011765,1.57337862 C49.3156611,2.45011728 49.6603221,3.63051037 49.7097108,4.72275616 L49.7158918,4.99375446 L49.7158918,35.9550637 C49.7158918,37.184959 49.4707175,38.2285074 48.8850394,38.9387995 C48.4052386,39.520687 47.6957079,39.8642077 46.7279305,39.9103132 L46.5,39.9156465 L29.7158918,39.9156465 L29.7158918,45.4776174 L34.3471949,45.4776174 C34.5195291,45.7657201 34.5189161,45.9822586 34.5022898,46.1771497 L34.4946413,46.2594947 L34.4682299,49.4073664 L15.5142742,49.6500627 L15.2832102,46.4193774 C15.2506416,46.0107275 15.2232228,45.7413461 15.2198282,45.5480351 L15.2198992,45.4696606 L20.2841082,45.213946 L20.2841082,39.6659591 L3.5,39.6659591 C2.49630823,39.6659591 1.70721049,39.2898117 1.16532137,38.6326255 C0.626623923,37.97931 0.331588647,37.0597022 0.289386163,35.9788798 L0.284108199,35.7053763 L0.284108199,4.99377436 C0.284108199,3.82936981 0.633132606,2.52319019 1.29882555,1.57338437 C1.79402965,0.866830797 2.46850297,0.356074429 3.31579467,0.291113819 L3.5,0.284108199 L46.5,0.284108199 Z M25.0000088,9.45373671 C18.4247286,9.45373671 12.5978235,13.2238637 8.03971369,19.0336851 C7.88168934,19.2005857 7.77837231,19.5131107 7.77837231,19.8813939 C7.77837231,20.2049514 7.85206442,20.5639018 8.02635009,20.8993231 C12.5864322,26.7188374 18.4174487,30.2466666 25.0000088,30.2466666 C31.582628,30.2466666 37.4135851,26.718814 42.0040835,20.8512813 C42.2904693,20.2792681 42.2904736,19.421186 41.9736675,18.8010802 C37.4135854,12.9815659 31.5825689,9.45373671 25.0000088,9.45373671 Z" stroke-linejoin="square"></path>
                </g>
                <g id="一体化监控" filter="url(#filter-5)" transform="translate(18.000000, 12.000000)" fill-rule="nonzero">
                    <path d="M54.8700486,0 L4.12999979,0 C1.47499844,0 0,3.24096909 0,5.89265375 L0,42.132344 C0,45.0786626 1.47499844,47.1410794 4.12999979,47.1410794 L23.6000097,47.1410794 L23.6000097,53.0337097 L17.9950045,53.0337097 C17.4050045,53.0337097 17.7000041,54.2122385 17.7000041,54.8014995 L17.7000041,58.337079 C17.7000041,59.2209739 17.4050038,58.926342 17.9950045,58.926342 L40.709993,58.926342 C41.2999931,58.926342 41.0049934,59.2209739 41.0049934,58.6317102 L41.0049934,55.0961306 C41.0049934,54.5068676 41.2999938,53.3283409 40.709993,53.3283409 L35.3999903,53.3283409 L35.3999903,47.4357106 L54.8700002,47.4357106 C57.820004,47.4357106 59,45.3732869 59,42.4269752 L59,5.89263027 C59,3.24094561 57.5250016,0 54.8700002,0 L54.8700486,0 Z M49.2650435,24.4544256 C43.9550408,31.2309508 37.1700604,35.3558189 29.5000104,35.3558189 C21.8300295,35.3558189 15.04498,31.2309784 9.73497729,24.4544256 C9.43997691,23.8651626 9.43997691,22.9812698 9.73497729,22.6866359 C15.04498,15.9101107 21.8299604,11.490657 29.5000104,11.490657 C37.1699912,11.490657 43.9550408,15.6154975 49.2650435,22.3920503 C49.5600438,22.9813133 49.5600438,23.8652061 49.2650435,24.454474 L49.2650435,24.4544256 Z" id="形状" fill="url(#linearGradient-6)"></path>
                    <path d="M28.9100815,13.5530807 C23.6000788,13.8477125 19.4700998,17.9725551 19.1750766,23.2759244 C18.8800762,29.4631886 23.8950813,34.7665579 30.0901052,34.1773177 C35.1051054,33.8826858 39.5300869,29.7578433 39.8251101,24.454474 C40.1201105,18.2672098 35.1051054,13.2584951 28.9100815,13.5530807 L28.9100815,13.5530807 Z M29.795082,28.2846391 C27.1400806,28.579271 25.0750773,26.2222154 25.0750773,23.5705307 C25.0750773,21.508107 26.8450782,19.7403173 29.2050771,19.4456902 C31.8600784,19.1510584 33.9250818,21.5081139 33.9250818,24.1597986 C33.6300814,26.2222223 31.8600784,27.9900121 29.795082,28.2846391 Z" id="形状" fill="url(#linearGradient-7)"></path>
                </g>
            </g>
        </g>
    </g>
</svg>