<?xml version="1.0" encoding="UTF-8"?><svg width="108px" height="93px" viewBox="0 0 108 93" version="1.1" xmlns="http://www.w3.org/2000/svg" xmlns:xlink="http://www.w3.org/1999/xlink"><title>编组 11@4x</title><defs><filter x="-13.8%" y="-16.9%" width="131.0%" height="137.9%" filterUnits="objectBoundingBox" id="filter-1"><feOffset dx="0" dy="2" in="SourceAlpha" result="shadowOffsetOuter1"/><feGaussianBlur stdDeviation="2" in="shadowOffsetOuter1" result="shadowBlurOuter1"/><feColorMatrix values="0 0 0 0 0.235294118   0 0 0 0 0.431372549   0 0 0 0 0.941176471  0 0 0 0.543706294 0" type="matrix" in="shadowBlurOuter1" result="shadowMatrixOuter1"/><feMerge><feMergeNode in="shadowMatrixOuter1"/><feMergeNode in="SourceGraphic"/></feMerge></filter><linearGradient x1="50%" y1="0%" x2="50%" y2="100%" id="linearGradient-2"><stop stop-color="#FFFFFF" stop-opacity="0.589051573" offset="0%"/><stop stop-color="#FFFFFF" stop-opacity="0.12941177" offset="100%"/></linearGradient><path d="M30.998463,0 C13.881833,0 0.00313538684,13.8786976 0,30.998463 C0,48.1242533 13.8786976,62 30.998463,62 C48.1211794,62 62,48.1213024 62,30.998463 C62,13.8787591 48.1243763,0 30.998463,0 Z M44.7078498,30.5947974 C44.8126086,31.0907418 44.864988,31.6545581 44.864988,32.2891973 C44.864988,33.0656051 44.8126086,33.7186878 44.7078498,34.2485682 L34.5506719,34.2485682 L34.5506719,38.9067079 L44.7078498,38.9067079 C44.8126086,39.3996399 44.864988,39.9634562 44.864988,40.5980954 C44.864988,41.3775771 44.8126086,42.0275859 44.7078498,42.5574662 L34.5506719,42.5574662 L34.5506719,50.8631674 C34.1224149,50.9309779 33.6849977,50.9864312 33.2259402,51.0233796 C32.7669442,51.0603279 32.3048742,51.0788329 31.8488906,51.0788329 C31.3898946,51.0788329 30.933911,51.0603894 30.4749149,51.0233796 C30.0189313,50.9864312 29.5753048,50.9341132 29.1501832,50.8631674 L29.1501832,42.5574662 L19.415053,42.5574662 C19.2732844,42.1322832 19.202523,41.5347153 19.202523,40.7583075 C19.202523,40.4378832 19.2209664,40.1236683 19.2549024,39.8032441 C19.2918508,39.4858937 19.3441687,39.1871098 19.4151145,38.9067079 L29.1502447,38.9067079 L29.1502447,34.2485682 L19.4151145,34.2485682 C19.2733458,33.8233851 19.2025845,33.2258173 19.2025845,32.4494094 C19.2025845,32.1320591 19.2210279,31.8147702 19.2549639,31.494346 C19.2919122,31.1769957 19.3442302,30.8782117 19.415176,30.5947359 L27.0338586,30.5947359 L17.2987284,13.4535146 C17.7577244,13.3826917 18.2599396,13.3302508 18.805251,13.2963764 C19.3566488,13.259428 19.8773689,13.240923 20.3703009,13.240923 C20.8632329,13.240923 21.3745468,13.2593665 21.9045502,13.2933024 C22.4345535,13.3272384 22.9087961,13.3796178 23.3340407,13.4504407 L32.0094101,29.4302778 L40.5307153,13.4504407 C40.9866989,13.3796178 41.4549167,13.3271769 41.9323562,13.2933024 C42.4037093,13.2594895 42.8935674,13.240923 43.3864994,13.240923 C43.8794314,13.240923 44.3723019,13.2593665 44.8652339,13.2933024 C45.3611783,13.3271154 45.8202973,13.3796178 46.2422835,13.4504407 L36.6673039,30.591662 L44.7080342,30.591662 L44.7078498,30.5947974 Z" id="path-3"/><filter x="-3.2%" y="-3.2%" width="106.5%" height="106.5%" filterUnits="objectBoundingBox" id="filter-4"><feGaussianBlur stdDeviation="2" in="SourceAlpha" result="shadowBlurInner1"/><feOffset dx="0" dy="0" in="shadowBlurInner1" result="shadowOffsetInner1"/><feComposite in="shadowOffsetInner1" in2="SourceAlpha" operator="arithmetic" k2="-1" k3="1" result="shadowInnerInner1"/><feColorMatrix values="0 0 0 0 1   0 0 0 0 1   0 0 0 0 1  0 0 0 0.29803923 0" type="matrix" in="shadowInnerInner1"/></filter><filter x="-6.1%" y="-7.4%" width="112.1%" height="114.8%" filterUnits="objectBoundingBox" id="filter-5"><feOffset dx="0" dy="2" in="SourceAlpha" result="shadowOffsetOuter1"/><feColorMatrix values="0 0 0 0 0.235294118   0 0 0 0 0.431372549   0 0 0 0 0.941176471  0 0 0 0.5 0" type="matrix" in="shadowOffsetOuter1" result="shadowMatrixOuter1"/><feMerge><feMergeNode in="shadowMatrixOuter1"/><feMergeNode in="SourceGraphic"/></feMerge></filter><linearGradient x1="50%" y1="0%" x2="50%" y2="100%" id="linearGradient-6"><stop stop-color="#3C6EF0" offset="0%"/><stop stop-color="#6E9AFF" offset="100%"/></linearGradient><linearGradient x1="50%" y1="0%" x2="50%" y2="100%" id="linearGradient-7"><stop stop-color="#3C6EF0" offset="0%"/><stop stop-color="#6E9AFF" offset="100%"/></linearGradient><linearGradient x1="50%" y1="0%" x2="50%" y2="100%" id="linearGradient-8"><stop stop-color="#3C6EF0" offset="0%"/><stop stop-color="#6E9AFF" offset="100%"/></linearGradient></defs><g id="页面-2" stroke="none" stroke-width="1" fill="none" fill-rule="evenodd"><g id="A3-解决方案流程图-寄件" transform="translate(-1013.000000, -496.000000)"><g id="编组-11" filter="url(#filter-1)" transform="translate(1022.000000, 505.000000)"><g id="编组-10"><g id="形状"><use fill-opacity="0.2" fill="#7DCCFF" fill-rule="evenodd" xlink:href="#path-3"/><use fill="black" fill-opacity="1" filter="url(#filter-4)" xlink:href="#path-3"/><path stroke="url(#linearGradient-2)" stroke-width="0.568216399" d="M30.998463,0.284108199 C39.482389,0.284108199 47.1613022,3.72153654 52.7194556,9.27913886 C58.2783323,14.8374644 61.7158918,22.5165074 61.7158918,30.998463 C61.7158918,39.4814078 58.2780013,47.1607555 52.7193855,52.7193712 C47.1607498,58.278007 39.4813774,61.7158918 30.998463,61.7158918 C22.5164998,61.7158918 14.8374755,58.2783203 9.27916112,52.7194548 C3.72154003,47.1612826 0.284108199,39.482351 0.284108195,30.9985151 C0.285661524,22.5170654 3.72432136,14.8384588 9.28256586,9.28021432 C14.8407915,3.72198866 22.5185929,0.284108199 30.998463,0.284108199 Z M43.3864994,12.9568148 C42.8866764,12.9568148 42.3899702,12.9756368 41.9120276,13.0099225 C41.3776005,13.0478401 40.8542819,13.1087006 40.3464545,13.192181 L40.3464545,13.192181 L32.0071687,28.8306809 L23.5180947,13.193996 L23.2297681,13.1461164 C22.8354832,13.0859389 22.4013997,13.0404256 21.9227044,13.0097749 C21.3864297,12.9754374 20.8690648,12.9568148 20.3703009,12.9568148 C19.8713869,12.9568148 19.344346,12.975507 18.7862559,13.0129039 C18.0689434,13.0574586 17.423015,13.1340646 16.8517062,13.2417106 L16.8517062,13.2417106 L26.5457722,30.3106277 L19.1976681,30.3106277 L19.1253802,30.5836287 C19.0587253,30.8612216 19.00869,31.1529032 18.9727619,31.4614899 C18.9374366,31.7948868 18.9184763,32.1221185 18.9184763,32.4494094 C18.9184763,33.3913303 19.02283,34.081428 19.2197062,34.5326764 L19.2197062,34.5326764 L28.8661365,34.5326764 L28.8661365,38.6225997 L19.1984503,38.6225997 L19.125881,38.8927211 C19.0589649,39.1684271 19.0087321,39.4609111 18.9727004,39.7703879 C18.9373751,40.1037849 18.9184148,40.4278464 18.9184148,40.7583075 C18.9184148,41.7002284 19.0227686,42.3903261 19.2196447,42.8415744 L19.2196447,42.8415744 L28.866075,42.8415744 L28.866075,51.101519 L29.2492143,51.1669114 C29.6372843,51.227345 30.0396606,51.2731503 30.4519688,51.3065596 C30.9187049,51.3441936 31.3822666,51.3629411 31.8488906,51.3629411 C32.3124228,51.3629411 32.7821422,51.3441317 33.2487367,51.3065717 C33.8012353,51.2621025 34.3229015,51.1913092 34.8347801,51.104448 L34.8347801,51.104448 L34.8347801,42.8415744 L44.9364352,42.8415744 L44.9859974,42.615427 C45.0940761,42.0701245 45.1490962,41.4009759 45.1490962,40.5980954 C45.1490962,39.8425179 45.0764169,39.1840727 44.9332485,38.6225997 L44.9332485,38.6225997 L34.8347801,38.6225997 L34.8347801,34.5326764 L44.9363801,34.5326764 L44.9859551,34.3067424 C45.0940617,33.761413 45.1490962,33.089016 45.1490962,32.2891973 C45.1490962,31.5351169 45.0767508,30.8778255 44.934324,30.3075538 L44.934324,30.3075538 L37.1514332,30.3075538 L46.6831933,13.2437044 L46.3547846,13.1814343 C45.9064389,13.1035185 45.4162518,13.0461025 44.8845592,13.0098523 C44.3853105,12.9754814 43.8859356,12.9568148 43.3864994,12.9568148 Z" stroke-linejoin="square"/></g><g id="编组-22" transform="translate(21.000000, 17.198706)" fill-rule="nonzero"><g id="服务02" filter="url(#filter-5)"><path d="M16.6444634,11.5288146 L28.207714,2.40181963 C31.3835364,-0.0596776256 35.5772505,-0.685625381 39.2253746,0.78619772 L57.6125717,8.08610195 C58.8258987,8.57670965 60.1125139,8.78817849 61.3339841,8.78817849 L64.3795163,8.78817849 C65.2589748,8.78817849 66,9.49025502 66,10.4038004 L66,33.8599237 C66,34.7734691 65.2589748,35.5432157 64.3795163,35.5432157 L60.3893805,35.5432157 C59.8519336,35.5432157 59.2411986,35.7546845 58.8340419,36.1014934 L57.9545834,36.8712399 C57.751005,37.0827088 57.4171365,37.0150388 57.2135582,36.8035699 L35.7808288,9.70172386 C35.243382,8.99964732 34.2906353,8.85584851 33.5496101,9.27878619 L23.7452764,14.9715273 C21.7827811,16.0965415 19.4212722,16.2318815 17.3203435,15.3267949 C16.2373067,14.8361872 15.6998598,13.4997042 16.1721616,12.3070199 C16.1721616,12.0194223 16.37574,11.7402834 16.6444634,11.5288146 L16.6444634,11.5288146 Z" id="路径" fill="url(#linearGradient-6)"/><path d="M1.95058813,35.8980249 L5.38849971,35.8980249 L7.81860743,32.7693509 C9.98050927,29.992117 13.889813,29.6406769 16.523107,31.9121799 C17.4658912,32.7693509 18.2136167,33.9093883 18.5468422,35.186573 C20.6355969,35.7523059 22.2610871,37.4666478 22.8625184,39.6695772 C24.3498418,40.1667363 25.6989986,41.1610547 26.4385966,42.6611039 C27.7227338,42.8753966 28.933724,43.5182748 29.8765082,44.5125931 C31.8352238,46.7155225 32.2415963,49.9899156 30.7542729,52.6300022 L30.41292,53.2728804 L30.41292,53.3414541 C32.0302826,54.4814915 34.1921845,54.1214797 35.338155,52.4157095 C35.8745667,51.5585385 36.077753,50.5642202 35.8745667,49.5699018 L35.8745667,49.4927565 L35.9395863,49.4927565 L36.2077922,49.7756229 C37.4187823,51.0528076 39.3774979,51.2671004 40.7998018,50.272782 C41.9457723,49.4156111 42.4903115,47.9241336 42.2139782,46.5012298 L42.2139782,46.4326561 L42.2789978,46.4326561 L42.5472036,46.7155225 C43.7581938,47.9927073 45.6518897,48.207 47.1392132,47.2126817 C48.2851837,46.3555107 48.8947425,44.8640332 48.6265366,43.4411294 L48.6265366,43.3725558 L48.6915562,43.3725558 L48.9597621,43.6554222 C50.1057326,44.8640332 51.9262816,45.078326 53.2754384,44.221155 C54.9659481,43.1496913 55.5023598,40.8781882 54.4864285,39.0952726 C54.3482618,38.8809799 54.2182226,38.6666872 54.080056,38.5295398 L51.9181541,35.7523059 L34.4441354,13.3372851 C34.2409492,13.1229923 33.9727433,13.0544187 33.7045374,13.191566 L25.3332634,18.1031557 C22.6349498,19.6717785 19.4652441,19.954645 16.5637442,18.8146076 C14.9463816,18.2488747 13.727264,16.8945446 13.1258326,15.2573481 C12.6544405,13.5515778 12.8576268,11.7000885 13.7353914,10.2086111 C13.9385777,9.78002558 13.800411,9.28286642 13.402166,9.06857368 C13.2639993,9 13.1339601,9 12.9957934,9 L1.61736266,9 C0.739598,9 0,9.7114519 0,10.6371965 L0,34.3379738 C0.333225473,35.186573 1.07282347,35.8980249 1.95058813,35.8980249 L1.95058813,35.8980249 Z" id="路径" fill="url(#linearGradient-7)"/><path d="M13.8770962,34.4024679 C12.5428487,33.640064 10.9433593,33.9835646 10.002956,35.2402743 L7.66400411,38.2312434 C6.65929969,39.5549776 6.79593949,41.4986886 8.06588587,42.5459467 L8.13018696,42.5459467 L8.46776764,42.8224229 C9.40013333,43.5848267 10.7343808,43.6602293 11.7390852,43.098899 C11.8033863,43.0318745 11.875725,43.098899 11.9400261,43.1659235 L11.9400261,43.3083506 C11.7390852,44.4226332 12.140967,45.6039403 13.0090316,46.2993197 L13.2742736,46.5087713 C14.2066392,47.2711752 15.4122845,47.3465778 16.48129,46.86065 C16.5455911,46.7936255 16.6822309,46.86065 16.6822309,46.9276746 L16.6822309,46.9946991 C16.5455911,48.0419572 17.0198116,49.0808372 17.8155375,49.7762165 L18.0164784,49.9186436 C18.9488441,50.6810475 20.1544894,50.8234746 21.2234949,50.1951198 C21.287796,50.1280953 21.4244358,50.1951198 21.4244358,50.2621443 L21.4244358,50.3291688 C21.5610756,51.0915727 21.9549197,51.7869521 22.5577423,52.2728798 L22.6943821,52.3399043 C24.0286296,53.3871624 25.9013986,53.1777108 26.8980654,51.7869521 C26.9623665,51.644525 27.0990063,51.5104759 27.1633074,51.4350733 L27.5651891,50.6726695 C28.2966139,49.3489352 28.0956731,47.7487249 27.0347052,46.7098449 C26.1666406,45.8720384 24.8966942,45.6625868 23.7633876,46.1568926 C23.6990865,46.1568926 23.6990865,46.1568926 23.6267478,46.0898681 L23.6267478,46.0228436 C23.6910489,44.3556087 22.4291402,42.8894474 20.8216131,42.7553983 C20.4197313,42.7553983 20.0178496,42.8224229 19.6240054,42.96485 C19.1578226,43.0318745 19.2864248,42.6213493 19.2864248,42.6213493 C19.8892474,41.021139 19.2221237,39.2785015 17.6869353,38.5831221 C16.8831718,38.2312434 15.886505,38.306646 15.1470426,38.7255492 C14.8094619,38.7925738 14.8818006,38.4490731 14.8818006,38.4490731 C15.7418276,37.1085828 15.2756447,35.2318963 13.8770962,34.4024679 L13.8770962,34.4024679 Z" id="路径" fill="url(#linearGradient-8)"/></g></g></g><g id="编组-23" transform="translate(21.000000, 17.198706)"/></g></g></g></svg>