<?xml version="1.0" encoding="UTF-8"?>
<svg width="17px" height="16px" viewBox="0 0 17 16" version="1.1" xmlns="http://www.w3.org/2000/svg" xmlns:xlink="http://www.w3.org/1999/xlink">
    <title>电话@4x</title>
    <g id="页面-2" stroke="none" stroke-width="1" fill="none" fill-rule="evenodd">
        <g id="4.1.7典型页面-查询页-简单操作型备份-33" transform="translate(-1151.000000, -604.000000)" fill="#3C6EF0" fill-rule="nonzero">
            <g id="电话" transform="translate(1151.000000, 604.000000)">
                <path d="M13.9428436,1.75355362 C12.3236759,0.729858107 10.3446857,0.350712613 8.37571035,0.682464724 C8.11584339,0.72985795 7.94593204,0.957346348 7.99590479,1.20379037 C8.01589456,1.31753433 8.08585857,1.42179993 8.18580757,1.49762935 C8.28575623,1.56397993 8.41568988,1.59241596 8.53562848,1.5734586 C10.2647432,1.2890983 12.0038529,1.61137315 13.4231097,2.51184602 C14.8423798,3.40284006 15.7719072,4.73933505 16.0617588,6.27488068 C16.1017384,6.49289024 16.301636,6.64454907 16.5315167,6.64454907 C16.5615013,6.64454907 16.5814909,6.64454907 16.6114756,6.63507041 C16.8713425,6.58767718 17.0412539,6.36018879 16.9912811,6.11374477 C16.66145,4.32227487 15.5820059,2.77725056 13.9428418,1.75356922 L13.9428436,1.75355362 Z M8.80549032,3.80094779 C9.81497185,3.63033161 10.8244567,3.81990514 11.654032,4.34123079 C12.4736107,4.85307776 13.0133328,5.63032767 13.1832458,6.52132643 C13.2232253,6.739336 13.423123,6.89099482 13.6530036,6.89099482 C13.6829883,6.89099482 13.7029779,6.89099482 13.7329625,6.88151616 C13.9928295,6.83412294 14.1627408,6.60663454 14.1127681,6.36019052 C13.9028755,5.22275089 13.2132303,4.23696693 12.1737608,3.59241692 C11.1442895,2.94786847 9.88493254,2.70142288 8.64556704,2.90995377 C8.38570008,2.95734699 8.21578873,3.18483539 8.26576149,3.43127941 C8.30574102,3.67772501 8.54561821,3.84833961 8.80548351,3.8009478 L8.80549032,3.80094779 Z M14.7224445,10.5971432 C14.2127071,10.2559109 13.6829783,9.94311613 13.2132205,9.71562789 C12.453611,9.33648082 12.113785,9.28908901 11.9338788,9.28908901 C11.5440783,9.28908901 11.204254,9.47866255 10.9343921,9.85780804 C10.7644791,10.094775 10.6345456,10.369655 10.514607,10.635058 C10.4546379,10.7582804 10.3546892,10.9952477 10.2747298,11.1184689 C10.1248069,11.0710757 9.76499245,10.9288954 9.12531994,10.5118352 C8.49564396,10.1042536 7.80599869,9.57344774 7.28626145,9.0900368 C6.77652408,8.59714719 6.21681063,7.94311849 5.78703231,7.33648161 C5.34725912,6.7203692 5.19733587,6.38861551 5.14736146,6.24643536 C5.27729477,6.1706061 5.51717213,6.07581918 5.66709372,6.00946844 C5.94695044,5.89572448 6.23680039,5.77250152 6.47667759,5.61136402 C6.86647802,5.35543975 7.06637403,5.03316631 7.06637403,4.66349792 C7.06637403,4.48340307 7.01639978,4.17060831 6.61660595,3.44075178 C6.37672875,3.00473422 6.04689927,2.49288568 5.68708348,2.00947474 C5.41722164,1.64928503 5.01742798,1.12795938 4.58764801,0.710899179 C4.08790551,0.218009564 3.70809996,0 3.33828928,0 C2.48872588,0 1.5592001,1.07108889 1.18938942,1.5260638 C0.839568517,1.99051739 0,3.16587487 0,4.28435873 C0,5.32701159 0.71962992,6.66350658 1.32931613,7.60189558 C2.1389,8.84359908 3.24833368,10.1895743 4.46770941,11.3744089 L4.86750473,11.753556 C6.11686346,12.909953 7.52614363,13.9715663 8.83547331,14.7393391 C9.82496507,15.3175369 11.2242504,16 12.3236875,16 C13.503082,16 14.7424492,15.2037927 15.2222036,14.8625604 C15.7019563,14.521328 16.8313764,13.6303355 16.8313764,12.8246449 C16.8313764,12.4739338 16.6014941,12.104267 16.0817619,11.6303332 C15.6519819,11.2417074 15.102265,10.8530833 14.7224611,10.597159 L14.7224445,10.5971432 Z M4.4477213,5.29857871 C4.07791063,5.53554563 3.8980044,5.81990436 3.90799928,6.16113672 C3.90799928,6.31279523 3.92798904,6.77724913 4.78754733,7.98104265 C5.25730517,8.63506977 5.86699304,9.35544762 6.43669971,9.90521402 C7.00640639,10.4265397 7.75602096,11.0142176 8.44567121,11.4597139 C9.7150197,12.2843572 10.2047706,12.2938358 10.3846785,12.2938358 C10.7344994,12.2938358 11.0343443,12.113741 11.2742215,11.7725102 C11.4141495,11.573458 11.5340884,11.3175353 11.6340372,11.0805684 C11.7139961,10.9004735 11.8039503,10.7109 11.8839093,10.5782001 C11.9238889,10.5118495 11.9538733,10.4739348 11.9738631,10.4549776 C12.0638169,10.4739349 12.2637147,10.5402855 12.6435186,10.7298592 C13.033319,10.9289114 13.5030769,11.1943128 13.9428501,11.4881518 C15.0422856,12.2085296 15.5020485,12.7014192 15.6119956,12.8625567 C15.5820109,12.9194286 15.5120469,13.0426516 15.3421337,13.2322251 C15.1222463,13.4786707 14.8024117,13.7440721 14.4625857,13.9905177 C13.6829864,14.5402794 12.8833975,14.8625544 12.3336756,14.8625544 C11.7039996,14.8625544 10.6645301,14.46445 9.4851339,13.7725081 C8.25576494,13.0521303 6.91644895,12.047389 5.72705787,10.9478625 L5.34725231,10.5781941 C4.18784754,9.45023313 3.12838827,8.18008887 2.36877716,7.00473296 C1.63915236,5.87677201 1.21936727,4.89098805 1.21936727,4.29383142 C1.21936727,3.7630271 1.55919329,3.01421321 2.13889485,2.2653946 C2.38876692,1.93364092 2.67861687,1.63980351 2.92848895,1.43127263 C3.12838661,1.27013512 3.25832009,1.19430571 3.31828939,1.17534836 C3.4882024,1.27961364 4.00793466,1.71563135 4.76754411,2.75828737 C5.07738549,3.18482624 5.35724055,3.63032405 5.5671331,3.99999087 C5.76703076,4.36018058 5.83699494,4.54975254 5.85698471,4.63506063 C5.83699494,4.65401799 5.79701558,4.68245386 5.72705139,4.72036857 C5.57712848,4.8056765 5.37723049,4.89098475 5.17733449,4.96681416 C4.91746753,5.06160077 4.66759711,5.16586637 4.44770968,5.29856785 L4.4477213,5.29857871 Z M8.44567453,5.96208451 C8.54562319,6.02843509 8.67555684,6.05687112 8.79549544,6.03791376 C9.30523281,5.95260583 9.81497185,6.04739242 10.2347553,6.31279539 C10.6445455,6.56871966 10.9144057,6.95734383 10.9943647,7.40284163 C11.0343443,7.6208512 11.2342419,7.77251003 11.4541277,7.77251003 C11.4841123,7.77251003 11.5140968,7.77251003 11.5340866,7.76303137 C11.7939535,7.71563814 11.9638649,7.48814974 11.9138921,7.24170572 C11.783959,6.5497639 11.3641752,5.95260884 10.7344976,5.56397994 C10.1148165,5.1753542 9.35520706,5.02369694 8.60558751,5.15639842 C8.34572055,5.20379164 8.1758092,5.43128004 8.22578196,5.67772406 C8.27575621,5.79146803 8.34572039,5.89573363 8.44566938,5.96208436 L8.44567453,5.96208451 Z" id="形状"></path>
            </g>
        </g>
    </g>
</svg>