<?xml version="1.0" encoding="UTF-8"?>
<svg width="29px" height="29px" viewBox="0 0 29 29" version="1.1" xmlns="http://www.w3.org/2000/svg" xmlns:xlink="http://www.w3.org/1999/xlink">
    <title>编组 8@4x</title>
    <defs>
        <radialGradient cx="40.8035778%" cy="31.5989425%" fx="40.8035778%" fy="31.5989425%" r="77.8288635%" id="radialGradient-1">
            <stop stop-color="#FDFEFF" offset="0%"></stop>
            <stop stop-color="#DAE0EA" offset="76.7414988%"></stop>
            <stop stop-color="#D4DCEB" offset="100%"></stop>
        </radialGradient>
    </defs>
    <g id="页面-1" stroke="none" stroke-width="1" fill="none" fill-rule="evenodd">
        <g id="签约商家" transform="translate(-119.000000, -1112.000000)">
            <g id="编组-8" transform="translate(119.000000, 1112.000000)">
                <g id="编组-5备份-3" opacity="0.795694041" fill="url(#radialGradient-1)">
                    <circle id="椭圆形" cx="14.5" cy="14.5" r="14.5"></circle>
                </g>
                <g id="酒水" transform="translate(6.000000, 7.000000)" fill="#FFFFFF" fill-rule="nonzero">
                    <path d="M9.64276137,9.34307896 L16.6931737,1.8866357 C17.4293946,1.12018363 16.7574174,0 15.5619867,0 L1.43799887,0 C0.251002305,0 -0.423073177,1.10569902 0.29523028,1.87524195 L7.36882632,9.33168521 C7.51204267,9.4858241 7.69216367,9.60063029 7.88804217,9.67717449 L7.88804217,14.7588083 L6.18812453,14.7588083 C5.83950523,14.7588083 5.55617876,15.0370461 5.55617876,15.3794041 C5.55617876,15.7217621 5.83950523,16 6.18812453,16 L10.738134,16 C11.0867533,16 11.3700798,15.7217621 11.3700798,15.3794041 C11.3700798,15.0370461 11.0867533,14.7588083 10.738134,14.7588083 L9.1530034,14.7588083 L9.1530034,9.6688918 C9.33627179,9.59442837 9.50583978,9.48685438 9.64276137,9.34307896 L9.64276137,9.34307896 Z M9.11930785,2.84439776 C8.77066798,2.84439776 8.48736209,2.5661801 8.48736209,2.22380188 C8.48736209,1.88142366 8.77066798,1.60320601 9.11930785,1.60320601 L13.2880516,1.60320601 C13.6366504,1.60320601 13.9199974,1.88144387 13.9199974,2.22380188 C13.9199974,2.5661599 13.6366504,2.84439776 13.2880516,2.84439776 L9.11930785,2.84439776 Z" id="形状"></path>
                </g>
            </g>
        </g>
    </g>
</svg>