<?xml version="1.0" encoding="UTF-8"?>
<svg width="105px" height="94px" viewBox="0 0 105 94" version="1.1" xmlns="http://www.w3.org/2000/svg" xmlns:xlink="http://www.w3.org/1999/xlink">
    <title>编组 16@4x</title>
    <defs>
        <filter x="-14.3%" y="-16.4%" width="132.1%" height="137.0%" filterUnits="objectBoundingBox" id="filter-1">
            <feOffset dx="0" dy="3" in="SourceAlpha" result="shadowOffsetOuter1"></feOffset>
            <feGaussianBlur stdDeviation="1.5" in="shadowOffsetOuter1" result="shadowBlurOuter1"></feGaussianBlur>
            <feColorMatrix values="0 0 0 0 0.235294118   0 0 0 0 0.431372549   0 0 0 0 0.941176471  0 0 0 0.319574956 0" type="matrix" in="shadowBlurOuter1" result="shadowMatrixOuter1"></feColorMatrix>
            <feMerge>
                <feMergeNode in="shadowMatrixOuter1"></feMergeNode>
                <feMergeNode in="SourceGraphic"></feMergeNode>
            </feMerge>
        </filter>
        <linearGradient x1="50%" y1="0%" x2="50%" y2="100%" id="linearGradient-2">
            <stop stop-color="#FFFFFF" stop-opacity="0.589051573" offset="0%"></stop>
            <stop stop-color="#FFFFFF" stop-opacity="0.12941177" offset="100%"></stop>
        </linearGradient>
        <path d="M27.6041667,0.637490922 L48.3455065,12.6125091 C49.0287672,13.0069898 49.4496732,13.7360203 49.4496732,14.5249818 L49.4496732,38.4750182 C49.4496732,39.2639797 49.0287672,39.9930102 48.3455065,40.3874909 L27.6041667,52.3625091 C26.920906,52.7569898 26.079094,52.7569898 25.3958333,52.3625091 L4.65449347,40.3874909 C3.97123276,39.9930102 3.5503268,39.2639797 3.5503268,38.4750182 L3.5503268,14.5249818 C3.5503268,13.7360203 3.97123276,13.0069898 4.65449347,12.6125091 L25.3958333,0.637490922 C26.079094,0.243010167 26.920906,0.243010167 27.6041667,0.637490922 Z" id="path-3"></path>
        <filter x="2.9%" y="-3.1%" width="94.1%" height="106.3%" filterUnits="objectBoundingBox" id="filter-4">
            <feGaussianBlur stdDeviation="2" in="SourceAlpha" result="shadowBlurInner1"></feGaussianBlur>
            <feOffset dx="0" dy="0" in="shadowBlurInner1" result="shadowOffsetInner1"></feOffset>
            <feComposite in="shadowOffsetInner1" in2="SourceAlpha" operator="arithmetic" k2="-1" k3="1" result="shadowInnerInner1"></feComposite>
            <feColorMatrix values="0 0 0 0 1   0 0 0 0 1   0 0 0 0 1  0 0 0 0.29803923 0" type="matrix" in="shadowInnerInner1"></feColorMatrix>
        </filter>
        <filter x="-6.7%" y="-6.0%" width="113.3%" height="111.9%" filterUnits="objectBoundingBox" id="filter-5">
            <feOffset dx="0" dy="2" in="SourceAlpha" result="shadowOffsetOuter1"></feOffset>
            <feColorMatrix values="0 0 0 0 0.235294118   0 0 0 0 0.431372549   0 0 0 0 0.941176471  0 0 0 0.5 0" type="matrix" in="shadowOffsetOuter1" result="shadowMatrixOuter1"></feColorMatrix>
            <feMerge>
                <feMergeNode in="shadowMatrixOuter1"></feMergeNode>
                <feMergeNode in="SourceGraphic"></feMergeNode>
            </feMerge>
        </filter>
        <linearGradient x1="50%" y1="0%" x2="50%" y2="100%" id="linearGradient-6">
            <stop stop-color="#3C6EF0" offset="0%"></stop>
            <stop stop-color="#6E9AFF" offset="100%"></stop>
        </linearGradient>
    </defs>
    <g id="页面-1" stroke="none" stroke-width="1" fill="none" fill-rule="evenodd">
        <g id="首页设计稿-无顶图" transform="translate(-681.000000, -2175.000000)">
            <g id="编组-16" filter="url(#filter-1)" transform="translate(690.000000, 2184.000000)">
                <g id="多边形">
                    <use fill-opacity="0.2" fill="#7DCCFF" fill-rule="evenodd" xlink:href="#path-3"></use>
                    <use fill="black" fill-opacity="1" filter="url(#filter-4)" xlink:href="#path-3"></use>
                    <path stroke="url(#linearGradient-2)" stroke-width="0.626046079" d="M25.5523449,0.908576826 C26.1387559,0.570012251 26.8612441,0.570012251 27.4476551,0.908576826 L27.4476551,0.908576826 L48.188995,12.883595 C48.4822005,13.0528773 48.7191143,13.2939417 48.8827267,13.5773267 C49.0463391,13.8607117 49.1366502,14.1864173 49.1366502,14.5249818 L49.1366502,14.5249818 L49.1366502,38.4750182 C49.1366502,38.8135827 49.0463391,39.1392883 48.8827267,39.4226733 C48.7191143,39.7060583 48.4822005,39.9471227 48.188995,40.116405 L48.188995,40.116405 L27.4476551,52.0914232 C26.8612441,52.4299877 26.1387559,52.4299877 25.5523449,52.0914232 L25.5523449,52.0914232 L4.81100499,40.116405 C4.22459394,39.7778404 3.86334984,39.1521473 3.86334984,38.4750182 L3.86334984,38.4750182 L3.86334984,14.5249818 C3.86334984,14.1864173 3.95366086,13.8607117 4.11727327,13.5773267 C4.28088568,13.2939417 4.51779946,13.0528773 4.81100499,12.883595 L4.81100499,12.883595 Z" stroke-linejoin="square"></path>
                </g>
                <g id="流程设置" filter="url(#filter-5)" transform="translate(24.000000, 6.000000)" fill="url(#linearGradient-6)" fill-rule="nonzero">
                    <path d="M43.3733065,51.5229939 L43.3666398,51.9250203 C43.3666398,54.2499212 43.8899732,56.4508721 44.8266398,58.4173228 L30.0332806,67 L15.2399214,58.4173228 L15.2399214,58.4173227 C16.2617443,56.2676426 16.7599084,53.9044522 16.6932548,51.5229939 L30.0332286,59.2614969 L43.3732024,51.5229939 L43.3733065,51.5229939 Z M52.2333325,38.1631887 L52.2333325,20.6192581 L40.7033196,13.9293316 L40.7033196,13.9293316 C42.3098755,12.3420068 43.5402922,10.4115947 44.3033195,8.28122942 L58.9066405,16.7500589 L58.9066405,36.8601429 L58.9066405,36.860143 C56.6141014,36.7756994 54.3329882,37.2227407 52.2399739,38.1666435 L52.2333325,38.1631887 Z M7.83333294,38.1632674 L7.83333327,38.1632674 C5.74032548,37.2192868 3.45920571,36.7722448 1.16666667,36.8566884 L1.16666667,16.7500067 L16.0166665,8.1338295 C16.7633332,10.2945803 17.9833332,12.2308811 19.5566665,13.8154317 L7.83335931,20.6159344 L7.83335931,38.1632674 L7.83333294,38.1632674 Z M30.0333327,13.4000052 L30.0333324,13.4000052 C26.3514314,13.4000052 23.3666658,10.4003146 23.3666658,6.70000262 C23.3666658,2.99969062 26.3514314,0 30.0333324,0 L30.0333321,0 C33.7152331,0 36.6999987,2.99969062 36.6999987,6.70000262 C36.6999987,10.4003146 33.7152331,13.4000052 30.0333321,13.4000052 L30.0333327,13.4000052 Z M6.66666628,55.1008477 L6.6666666,55.1008477 C2.98476559,55.1008477 0,52.1011571 0,48.4008451 C0,44.7005331 2.98476559,41.7008425 6.6666666,41.7008425 C6.66666672,41.7008425 6.6666668,41.7008425 6.66666692,41.7008425 L6.66666724,41.7008425 C10.3485682,41.7008425 13.3333338,44.7005331 13.3333338,48.4008451 C13.3333338,52.1011571 10.3485682,55.1008477 6.66666724,55.1008477 L6.66666628,55.1008477 Z M53.3333324,55.1008477 L53.3333328,55.1008477 C49.6514318,55.1008477 46.6666662,52.1011571 46.6666662,48.4008451 C46.6666662,44.7005331 49.6514318,41.7008425 53.3333328,41.7008425 C53.3333329,41.7008425 53.333333,41.7008425 53.3333331,41.7008425 L53.3333334,41.7008425 C57.0152344,41.7008425 60,44.7005331 60,48.4008451 C60,52.1011571 57.0152344,55.1008477 53.3333334,55.1008477 L53.3333324,55.1008477 Z M30.0733067,16.4150064 L44.5066398,24.7900097 L44.5066398,41.5400162 L30.0733067,49.9150195 L15.6399735,41.5400162 L15.6399735,24.7900097 L30.0733067,16.4150064 Z" id="形状"></path>
                </g>
            </g>
        </g>
    </g>
</svg>