<?xml version="1.0" encoding="UTF-8"?>
<svg width="18px" height="18px" viewBox="0 0 18 18" version="1.1" xmlns="http://www.w3.org/2000/svg" xmlns:xlink="http://www.w3.org/1999/xlink">
    <title>发布调研@4x</title>
    <defs>
        <linearGradient x1="0.00591455087%" y1="50.0118483%" x2="99.9360153%" y2="50.0118483%" id="linearGradient-1">
            <stop stop-color="#83A6FF" offset="0%"></stop>
            <stop stop-color="#5A78FF" offset="100%"></stop>
        </linearGradient>
    </defs>
    <g id="页面-1" stroke="none" stroke-width="1" fill="none" fill-rule="evenodd">
        <g id="首页设计稿-无顶图" transform="translate(-1199.000000, -2238.000000)" fill="url(#linearGradient-1)" fill-rule="nonzero">
            <g id="发布调研" transform="translate(1199.000000, 2238.000000)">
                <path d="M2.50636279,8.33444585 C1.09365428,6.92177838 1.09365428,4.63372775 2.50636279,3.22105676 C3.91907131,1.80838928 6.20718842,1.80838928 7.61990045,3.22105676 L8.64260623,2.1983807 C6.66438749,0.220219434 3.46188278,0.220219434 1.48366405,2.1983807 L1.48366405,2.1983807 C-0.494554684,4.17654196 -0.494554684,7.37895362 1.48366405,9.35711488 L2.50636982,8.33443882 L2.50636279,8.33444585 Z M14.7791415,10.3797909 C16.19185,11.7924584 16.19185,14.0808079 14.7791415,15.4934789 C13.3664329,16.9061463 11.0783158,16.9061463 9.66560381,15.4934789 L8.64289803,16.5161549 C10.6214156,18.494615 13.8236215,18.494615 15.802139,16.5161549 C17.7806566,14.5376948 17.7803578,11.335582 15.802139,9.35712191 L14.7791327,10.379798 L14.7791415,10.3797909 Z M17.5154591,3.5525462 L14.4473435,0.484519778 C13.8272392,-0.135566585 13.050535,-0.164364928 12.4658376,0.420621311 L1.8070822,11.079067 L0.464874811,16.5119397 C0.327474085,17.2694224 0.730075832,17.6720121 1.48758058,17.5346157 L6.92061107,16.1924473 L17.5793665,5.53400162 C18.1643697,4.94931597 18.1355705,4.17263257 17.5154661,3.55255324 L17.5154591,3.5525462 Z M2.1745596,15.8249683 L3.19727065,11.7339617 L6.26538621,14.8019882 L2.1745596,15.8249683 L2.1745596,15.8249683 Z M7.28810254,13.7796232 L4.21998697,10.7115968 L9.84501199,5.0867352 L12.9131276,8.15476163 L7.28810254,13.7796232 L7.28810254,13.7796232 Z M15.9782547,5.08972349 L13.9361374,7.13178146 L10.8710278,4.06705974 L12.9131451,2.02500176 C13.4021476,1.50421458 13.450148,1.50721342 13.9358509,2.02500176 L15.9779682,4.06705974 C16.476871,4.57224804 16.5056719,4.562348 15.9782682,5.0897358 L15.9782547,5.08972349 Z" id="形状"></path>
            </g>
        </g>
    </g>
</svg>