<?xml version="1.0" encoding="UTF-8"?>
<svg width="18px" height="18px" viewBox="0 0 18 18" version="1.1" xmlns="http://www.w3.org/2000/svg" xmlns:xlink="http://www.w3.org/1999/xlink">
    <title>联系方式@4x</title>
    <defs>
        <linearGradient x1="0.00591455087%" y1="50.0118483%" x2="99.9360153%" y2="50.0118483%" id="linearGradient-1">
            <stop stop-color="#83A6FF" offset="0%"></stop>
            <stop stop-color="#5A78FF" offset="100%"></stop>
        </linearGradient>
    </defs>
    <g id="页面-1" stroke="none" stroke-width="1" fill="none" fill-rule="evenodd">
        <g id="首页设计稿-无顶图" transform="translate(-1199.000000, -2182.000000)" fill="url(#linearGradient-1)" fill-rule="nonzero">
            <g id="联系方式" transform="translate(1199.000000, 2182.000000)">
                <path d="M4.44907217,1.86959266 L4.4490722,1.8695927 C4.1858599,1.60244468 3.75919023,1.60244468 3.49597793,1.86959263 L1.94163915,3.44901773 L1.94163902,3.44901786 C1.33205642,4.06759666 1.17565069,5.01046068 1.55204294,5.79762185 C2.69386875,8.18454809 4.13631958,10.2621643 5.87939543,12.0318366 C7.62246574,13.8015032 9.66749915,15.2659691 12.0199161,16.4252172 L12.0199161,16.4252172 C12.7952507,16.8073525 13.7239444,16.6485603 14.3332229,16.0296765 L15.8889108,14.4516211 L15.8889108,14.4516211 C16.1520439,14.1843926 16.1520439,13.7512127 15.8889108,13.4839842 L13.9813768,11.5473445 L13.9813768,11.5473445 C13.7181645,11.2801965 13.2914948,11.2801965 13.0282825,11.5473444 L11.122094,13.4839842 L11.122094,13.4839842 C10.916771,13.69186 10.603508,13.7431216 10.3442509,13.6112689 L10.3442498,13.6112683 C9.04576209,12.960531 7.85979448,12.1003499 6.83249775,11.0642045 L6.83249762,11.0642043 C5.81192813,10.0212365 4.96468202,8.8171693 4.32371359,7.49886882 L4.32371361,7.49886886 C4.19384309,7.23565598 4.2443343,6.91761309 4.44908517,6.70915725 L6.35661917,4.77388346 L6.3566192,4.77388343 C6.61975225,4.50665495 6.61975225,4.07347502 6.35661914,3.80624654 L4.44908514,1.86960677 L4.44907217,1.86959266 Z M12.0751718,10.5796907 L12.0751717,10.5796908 C12.8648104,9.77824488 14.1448231,9.77824488 14.9344545,10.5796906 L16.8419885,12.5163303 L16.8419886,12.5163304 C17.6304901,13.3178605 17.6304901,14.6163449 16.8419885,15.4178751 L15.2863006,16.998668 L15.2863008,16.9986678 C14.2703058,18.0293661 12.7225376,18.2930954 11.4307772,17.6556212 C8.94626651,16.430677 6.77719925,14.8786238 4.92628472,12.9994675 C3.07537018,11.1203111 1.54664471,8.9181475 0.338762852,6.39572739 L0.338762951,6.3957276 C-0.288787849,5.08397446 -0.0284765557,3.51255812 0.987190335,2.48137514 L2.54287824,0.901950047 L2.54287812,0.901950177 C3.33251687,0.100504246 4.61252956,0.100504246 5.40216094,0.901949917 L7.30969494,2.83858968 L7.30969498,2.83858972 C8.09819655,3.64011985 8.09819655,4.93860429 7.30969491,5.74013442 L5.75265971,7.32229522 L5.75266012,7.32229599 C6.29586229,8.34157811 6.98049333,9.27633795 7.78556052,10.0979274 L7.78555991,10.0979268 C8.59479799,10.9152854 9.51550748,11.6103628 10.5194763,12.1618458 L12.0751642,10.5796832 L12.0751718,10.5796907 Z M18,7.52758893 L18,7.52770209 C18,7.90564408 17.6982179,8.2120275 17.325956,8.2120275 C16.9536941,8.2120275 16.6519154,7.90564408 16.6519154,7.52770209 C16.6519154,7.52762665 16.6519154,7.52755121 16.6519154,7.52747577 L16.6519154,7.52758893 C16.6519154,4.12615214 13.935969,1.36870884 10.5856524,1.3686527 L10.5856524,1.3686527 C10.2133905,1.3685902 9.9117223,1.06215701 9.9117223,0.684213143 C9.9117223,0.306359095 10.2134771,0 10.5856524,0 L10.585652,0 C14.6804997,0 18,3.37026253 18,7.5275908 L18,7.52758893 Z M14.6297967,8.21191434 L14.6297967,8.21191434 C14.6297967,8.58985634 14.3280145,8.89623976 13.9557526,8.89623976 C13.5834907,8.89623976 13.2817119,8.58985634 13.2817119,8.21191434 L13.2817119,8.21191436 C13.2817119,6.32220439 11.7728198,4.79028728 9.91150848,4.79028728 L9.91150847,4.79028728 C9.53924656,4.79028727 9.23746778,4.48390386 9.23746778,4.10596187 C9.23746778,3.72801987 9.53924656,3.42163645 9.91150847,3.42163645 L9.91150823,3.42163645 C12.5173489,3.42163645 14.6297967,5.56631665 14.6297967,8.2119181 L14.6297967,8.21191434 Z" id="形状"></path>
            </g>
        </g>
    </g>
</svg>