<?xml version="1.0" encoding="UTF-8"?>
<svg width="19px" height="18px" viewBox="0 0 19 18" version="1.1" xmlns="http://www.w3.org/2000/svg" xmlns:xlink="http://www.w3.org/1999/xlink">
    <title>icon_icon_提问_s备份@4x</title>
    <defs>
        <linearGradient x1="0.00591455087%" y1="50.0118483%" x2="99.9360153%" y2="50.0118483%" id="linearGradient-1">
            <stop stop-color="#83A6FF" offset="0%"></stop>
            <stop stop-color="#5A78FF" offset="100%"></stop>
        </linearGradient>
        <linearGradient x1="0.00591455087%" y1="50.0118483%" x2="99.9360153%" y2="50.0118483%" id="linearGradient-2">
            <stop stop-color="#83A6FF" offset="0%"></stop>
            <stop stop-color="#5A78FF" offset="100%"></stop>
        </linearGradient>
        <linearGradient x1="0.00591455087%" y1="50.0118483%" x2="99.9360153%" y2="50.0118483%" id="linearGradient-3">
            <stop stop-color="#83A6FF" offset="0%"></stop>
            <stop stop-color="#5A78FF" offset="100%"></stop>
        </linearGradient>
    </defs>
    <g id="页面-1" stroke="none" stroke-width="1" fill="none" fill-rule="evenodd">
        <g id="首页设计稿-无顶图" transform="translate(-1199.000000, -2123.000000)" fill-rule="nonzero">
            <g id="icon_icon_提问_s备份" transform="translate(1199.000000, 2123.000000)">
                <path d="M8.00099081,9.60365335 L8.00099081,9.60365326 C8.00099081,9.97165995 8.30575177,10.2699876 8.6816943,10.2699876 C9.05763683,10.2699876 9.36239779,9.97165995 9.36239779,9.60365326 C9.36239779,9.60365325 9.36239779,9.60365324 9.36239779,9.60365323 L9.36239779,9.60365321 C9.36239779,9.23564653 9.05763683,8.93731884 8.6816943,8.93731884 C8.30575177,8.93731884 8.00099081,9.23564653 8.00099081,9.60365321 C8.00099081,9.60365323 8.00099081,9.60365324 8.00099081,9.60365325 L8.00099081,9.60365335 Z" id="路径" fill="url(#linearGradient-1)"></path>
                <path d="M17.7446123,4.65803618 L15.980431,4.65803618 L15.980431,2.13624668 C15.980431,0.958280009 15.0014862,0 13.7981174,0 L2.18231359,0 C0.978944758,0 0,0.958280009 0,2.13624668 L0,11.1885011 C0,12.3662252 0.978944758,13.3245053 2.18231359,13.3245053 L2.52514243,13.3245053 C2.69209808,13.3245053 2.82809016,13.4576266 2.82809016,13.6213005 L2.82809016,15.5179772 C2.82809016,15.9248582 3.07480802,16.2917301 3.45652711,16.4524942 L3.45652717,16.4524942 C3.83783755,16.6133077 4.28035922,16.5362469 4.58162006,16.2565705 L7.54495916,13.5095173 C7.67376768,13.3902173 7.8424573,13.3242628 8.01981673,13.3242628 L13.7981174,13.3242628 C15.0014863,13.3242628 15.980431,12.3659828 15.980431,11.1882586 L15.980431,6.15534871 L17.4703988,6.15534871 L17.4703988,14.2728436 L16.6182809,14.2728436 C15.917513,14.2728436 15.3465445,14.8278798 15.3403518,15.5126426 C15.337627,15.6166664 15.3353976,15.7146283 15.3331682,15.8058007 L13.854595,14.5907346 C13.6232351,14.3853542 13.3249938,14.2728436 13.01189,14.2728436 L8.73148381,14.2728436 C8.30914048,14.2728436 7.96680707,14.6079506 7.96680707,15.0213786 C7.96680707,15.4348066 8.30938819,15.7699137 8.73148381,15.7699137 L12.9103295,15.7699137 L15.3760218,17.7960745 C15.540005,17.9308933 15.7426307,18 15.9469903,18 C16.0866981,18 16.2273966,17.9675077 16.3574437,17.9015532 C16.6660887,17.7444263 16.8501362,17.4296876 16.8352737,17.0923983 C16.8355214,16.9798877 16.8493931,16.3724759 16.8640079,15.7699137 L17.74486,15.7699137 C18.4369581,15.7699137 19,15.2187572 19,14.5415112 L19,5.88668114 C18.9997523,5.20943517 18.4367104,4.6580362 17.7446123,4.6580362 L17.7446123,4.65803618 Z M14.4508298,11.1885011 C14.4508298,11.5405817 14.1580381,11.8271927 13.7981174,11.8271927 L8.02006438,11.8271927 C7.44983897,11.8271927 6.90760464,12.0386351 6.49368341,12.4224806 L4.35793905,14.4023278 L4.35793905,13.6213005 C4.35793905,12.6319831 3.5357939,11.8271927 2.52539013,11.8271927 L2.1825613,11.8271927 C1.82264057,11.8271927 1.52984889,11.5405817 1.52984889,11.1885011 L1.52984889,2.13624668 C1.52984889,1.78392359 1.82264057,1.49731251 2.1825613,1.49731251 L13.7981174,1.49731251 C14.1580381,1.49731251 14.4508298,1.78392359 14.4508298,2.13624668 L14.4508298,11.1885011 Z" id="形状" fill="url(#linearGradient-2)"></path>
                <path d="M8.57369331,8.77437257 C8.16001979,8.77437257 7.81966805,8.45114705 7.80951199,8.04402354 L7.80009906,7.66817991 C7.78796133,7.18370535 8.06440424,6.7278434 8.50458259,6.50694434 C8.99702747,6.25961499 9.33737921,5.94851346 9.39261825,5.69512211 C9.42704976,5.53775274 9.34852611,5.34110166 9.15952437,5.11050341 C8.96507305,4.8733582 8.51969282,4.87675292 8.20163485,5.01690622 C8.03071585,5.09231743 7.75229128,5.26375062 7.80530094,5.5670928 C7.83056723,5.71185321 7.8412187,5.81660447 7.83998016,5.90704942 C7.8355214,6.20869424 7.67773097,6.46645022 7.41763684,6.59666185 C7.04161504,6.78482615 6.58087687,6.63885333 6.38865492,6.27076906 L6.38865492,6.27076904 C6.32473839,6.14881943 6.29645155,6.01196555 6.30691105,5.87528456 C6.30492938,5.86170569 6.30195687,5.84351971 6.29799353,5.82048413 C6.13921226,4.91482223 6.63983153,4.06347579 7.57369331,3.65198764 C8.02031208,3.45509408 8.52539011,3.38113775 8.99578892,3.44418249 C9.54545451,3.51765386 10.0272479,3.77662224 10.3527371,4.1735616 C10.9635868,4.9187019 10.9814218,5.58236901 10.8887788,6.0076785 C10.7911815,6.45553862 10.5296012,6.86920909 10.1114689,7.23777832 C9.84815453,7.46983145 9.56031703,7.64853904 9.33292045,7.77147627 L9.33886546,8.00789404 C9.34902152,8.42132203 9.0151102,8.76443089 8.59276687,8.77437257 C8.58632645,8.77413008 8.57988602,8.77437257 8.5736933,8.77437257 L8.57369331,8.77437257 Z" id="路径" fill="url(#linearGradient-3)"></path>
            </g>
        </g>
    </g>
</svg>