<?xml version="1.0" encoding="UTF-8"?>
<svg width="18px" height="17px" viewBox="0 0 18 17" version="1.1" xmlns="http://www.w3.org/2000/svg" xmlns:xlink="http://www.w3.org/1999/xlink">
    <title>返回顶部@4x</title>
    <g id="页面-2" stroke="none" stroke-width="1" fill="none" fill-rule="evenodd">
        <g id="4.1.7典型页面-查询页-简单操作型备份-33" transform="translate(-1151.000000, -690.000000)" fill="#3C6EF0" fill-rule="nonzero">
            <g id="返回顶部" transform="translate(1151.000000, 690.000000)">
                <path d="M17.4694023,0.980232685 L0.503578025,0.980232685 L0.503578003,0.980232685 C0.225459533,0.980232685 0,0.761010571 0,0.490586346 C0,0.220162122 0.225459533,0.000940007772 0.503578003,0.000940007772 L17.4694023,0.000940007772 L17.4694023,0.000940006535 C17.7448967,-0.015601328 17.9820197,0.188142758 17.9990332,0.456015538 C18.0160452,0.723888318 17.8065041,0.954451187 17.5310097,0.970994074 C17.5104939,0.972225887 17.4899195,0.972225887 17.4694038,0.970994071 L17.4694023,0.980232685 Z M12.977099,16.9999965 L4.99586274,16.9999965 L4.99586272,16.9999965 C4.72089532,17.0010051 4.49713752,16.7850948 4.4960853,16.5177345 C4.49608045,16.5165003 4.49608045,16.5152661 4.4960853,16.514032 L4.4960853,9.75506837 L2.00100253,9.75506837 L2.00100254,9.75506837 C1.72498479,9.75425511 1.50190619,9.5360285 1.50273894,9.26764688 C1.50315576,9.13465005 1.5596126,9.00763053 1.658949,8.91620257 L8.64442362,2.54526061 L8.64442361,2.54526062 C8.83609724,2.36997351 9.13495564,2.36997351 9.32662928,2.5452606 L16.3140153,8.91436206 L16.3140153,8.91436204 C16.5144722,9.09885997 16.5231535,9.40643171 16.3334065,9.60134112 C16.2393772,9.69792917 16.1087431,9.75282419 15.9719627,9.7532273 L13.4768799,9.7532273 L13.4768799,16.5066513 L13.4768799,16.5066513 C13.4821297,16.7739647 13.2635181,16.9948035 12.9885989,16.9999965 C12.9847672,16.9999965 12.9809348,16.9999965 12.9771024,16.9999965 L12.977099,16.9999965 Z M5.49374357,16.02069 L12.4792182,16.02069 L12.4792182,9.26910651 L12.4792182,9.26910498 C12.4781695,9.00174466 12.7002258,8.784179 12.9751931,8.7831595 C12.9758278,8.78315715 12.9764624,8.78315597 12.9770971,8.78315598 L14.7101655,8.78315598 L8.98647521,3.56518174 L3.26278491,8.78315598 L4.99585336,8.78315598 L4.99585334,8.78315598 C5.27082074,8.78213355 5.49457854,8.99804389 5.49563075,9.26540421 C5.49563561,9.26663838 5.49563561,9.26787256 5.49563075,9.26910673 L5.49374357,16.02069 Z" id="形状"></path>
            </g>
        </g>
    </g>
</svg>