<?xml version="1.0" encoding="UTF-8"?>
<svg width="20px" height="20px" viewBox="0 0 20 20" version="1.1" xmlns="http://www.w3.org/2000/svg" xmlns:xlink="http://www.w3.org/1999/xlink">
    <title>分享－常见问题@4x</title>
    <g id="页面-2" stroke="none" stroke-width="1" fill="none" fill-rule="evenodd">
        <g id="4.1.7典型页面-查询页-简单操作型备份-33" transform="translate(-1150.000000, -559.000000)" fill="#3C6EF0" fill-rule="nonzero" stroke="#3C6EF0" stroke-width="0.3">
            <g id="编组" transform="translate(1142.000000, 551.000000)">
                <g id="分享－常见问题" transform="translate(18.000000, 18.000000) scale(-1, 1) translate(-18.000000, -18.000000) translate(9.000000, 9.000000)">
                    <path d="M9.00001424,17.9994357 C7.5330141,17.9994357 6.08344849,17.6399975 4.79475587,16.9588116 L1.80900046,17.8121244 C1.44843724,17.915062 1.10587458,17.8171869 0.916313186,17.5657487 C0.765000703,17.3654995 0.726750035,17.0971857 0.80831315,16.8114355 L1.58343776,14.0996262 C0.546749508,12.5960641 0,10.8376922 0,9 C0,4.03706561 4.03706561,0 9,0 C13.9629344,0 18,4.03706561 18,9 C18,13.9623719 13.9623719,18 9,18 L9.00001424,17.9994357 Z M4.84988259,15.9930058 C4.92863259,15.9930058 5.00682008,16.0126932 5.07657015,16.0515059 C6.2690705,16.7163806 7.62581192,17.0679435 9.00000721,17.0679435 C13.4493806,17.0679435 17.0690758,13.4482484 17.0690758,8.99887496 C17.0690758,4.54950155 13.4493806,0.9298064 9.00000721,0.9298064 C4.55063379,0.9298064 0.930938643,4.54950155 0.930938643,8.99887496 C0.930938643,10.7156241 1.46250193,12.3541868 2.46881424,13.7379449 C2.55318924,13.8538199 2.57906417,14.0023194 2.53968917,14.1395702 L1.76400204,16.8553172 L4.72163157,16.0098796 C4.76325664,15.9986296 4.80656909,15.9924421 4.84931902,15.9924421 L4.84988259,15.9930058 Z M9.00000018,12.1027626 C9.25706192,12.1027626 9.46575067,11.8940703 9.46575067,11.6370068 L9.46575067,9.77512637 C9.46575067,8.97975113 8.86500123,8.61187693 8.38237521,8.31600148 C7.79793703,7.95768833 7.29337458,7.64831421 7.29337458,6.67181357 C7.29337458,5.73075155 8.05949891,4.96518797 9.00000018,4.96518797 C9.94049968,4.96518797 10.7066258,5.73074979 10.7066258,6.67181357 C10.7066258,6.92887532 10.9147502,7.13756406 11.1723763,7.13756406 C11.4300005,7.13756406 11.6381268,6.92943959 11.6381268,6.67181357 C11.6381268,5.21718882 10.4546267,4.03369402 9.00000721,4.03369402 C7.54538245,4.03369402 6.36188766,5.21719409 6.36188766,6.67181357 C6.36188766,8.16975042 7.24782472,8.71311955 7.89526311,9.10969444 C8.35932605,9.39375703 8.53426375,9.52538263 8.53426375,9.77513164 L8.53426375,11.6370121 C8.53426375,11.8940738 8.74295074,12.1027626 9.00001424,12.1027626 L9.00000018,12.1027626 Z M8.53426375,13.3441949 C8.53426375,13.6012567 8.74295074,13.8099454 9.00001424,13.8099454 C9.25707598,13.8099454 9.46576473,13.6012584 9.46576473,13.3441949 C9.46576473,13.0871332 9.25707774,12.8784444 9.00001424,12.8784444 C8.74295249,12.8784444 8.53426375,13.0871314 8.53426375,13.3441949 Z" id="形状"></path>
                </g>
            </g>
        </g>
    </g>
</svg>